<svg width="45" height="37" viewBox="0 0 45 37" fill="none" xmlns="http://www.w3.org/2000/svg">
<path d="M4.62647 4.50987C3.41464 5.98747 2.79759 8.08103 2.56245 9.34309C2.35534 9.43456 2.2132 9.46517 2.06924 9.50857C1.73317 9.62633 1.02463 9.96392 0.521774 10.6052C0.488924 10.7745 0.476762 10.9781 0.607687 11.0934C1.2005 11.6155 2.78439 12.0845 3.20231 13.0326C3.45449 13.6047 3.55878 14.1631 3.70668 14.5477C4.09733 15.5635 4.96052 16.6973 4.88471 17.4289C4.83418 17.9166 4.82068 18.4126 4.56329 18.5726C3.88508 18.994 2.47041 19.074 1.73317 19.6338C1.59874 19.7359 1.51719 19.8624 1.39558 20.1423C0.824498 21.4562 0.479567 22.4914 0.9281 23.359C1.19747 23.88 1.88657 24.7927 3.19271 25.0424C5.38099 25.4609 7.08379 25.0916 8.71397 24.8868C10.5803 24.6523 15.1509 24.0014 14.6891 25.1091C14.5698 25.3952 14.0854 25.5683 13.981 25.8839C13.8976 26.1361 13.8831 26.4323 14.0851 26.7617C14.405 27.2833 14.6232 27.8866 15.0317 27.9211C15.8231 27.9878 16.6917 28.2373 18.4506 28.5108C18.9868 28.5942 20.6884 29.4757 23.275 29.9274C24.5136 30.1437 25.3861 30.275 26.611 30.0244C29.3339 29.4675 30.4293 29.2095 31.8942 28.2202C33.1425 27.3773 34.815 26.5729 34.6515 25.7616C34.5838 25.4255 34.2806 25.0212 32.6189 23.3944C31.0037 21.813 29.9094 20.7566 29.6806 20.4045C29.4623 20.0685 29.1755 19.5066 29.4138 19.0062C29.5654 18.6878 30.2171 18.047 30.8844 16.6905C32.16 14.0979 31.4682 11.7856 32.5669 11.2066C33.1394 10.9049 33.792 10.6951 34.133 10.1767C34.5869 9.48684 34.9477 8.70485 34.8704 7.93482C34.786 7.09438 34.5432 6.14051 33.7848 4.9637C32.6573 3.21408 31.7302 1.54563 30.7712 1.04752C29.9647 0.628558 29.2119 0.418188 28.583 0.529504C28.0119 0.630581 26.8815 1.83852 25.0256 2.67282C23.799 3.22419 22.8958 3.14848 22.0474 3.39399C21.8099 3.46272 21.4626 3.57827 21.4096 4.00651C21.2762 5.08398 21.823 7.53684 20.6338 8.73686C19.5801 9.80018 17.9299 10.8625 17.0285 11.0414C16.6924 11.1081 16.3563 11.081 16.1021 10.8534C15.7827 10.5674 15.3788 10.0226 14.7174 9.33321C13.927 8.50944 12.2818 6.91322 9.99409 5.37205C8.5012 4.36634 7.49135 3.86152 6.66516 3.88118C5.94297 3.89836 5.13695 3.88742 4.62647 4.50987Z" fill="#375C3A"/>
<path d="M2.47607 9.8952C2.6095 8.79144 3.21393 6.2322 4.62647 4.50987C5.13695 3.88742 5.94297 3.89836 6.66516 3.88118C7.49135 3.86152 8.5012 4.36634 9.99409 5.37205C12.2818 6.91322 13.927 8.50944 14.7174 9.33321C15.3788 10.0226 15.7827 10.5674 16.1021 10.8534C16.3563 11.081 16.6924 11.1081 17.0285 11.0414C17.9299 10.8625 19.5801 9.80018 20.6338 8.73686C21.823 7.53684 21.2762 5.08398 21.4096 4.00651C21.4626 3.57827 21.8099 3.46272 22.0474 3.39399C22.8958 3.14848 23.799 3.22419 25.0256 2.67282C26.8815 1.83852 28.0119 0.630581 28.583 0.529504C29.2119 0.418188 29.9647 0.628558 30.7712 1.04752C31.7302 1.54563 32.6573 3.21408 33.7848 4.9637C34.5432 6.14051 34.786 7.09438 34.8704 7.93482C34.9477 8.70485 34.5869 9.48684 34.133 10.1767C33.792 10.6951 33.1394 10.9049 32.5669 11.2067C31.4682 11.7856 32.16 14.0979 30.8844 16.6905C30.2171 18.047 29.5654 18.6878 29.4138 19.0062C29.1755 19.5066 29.4623 20.0685 29.6806 20.4045C29.9094 20.7566 31.0037 21.813 32.6189 23.3944C34.2806 25.0212 34.5838 25.4255 34.6515 25.7616C34.815 26.5729 33.1425 27.3773 31.8942 28.2202C30.4293 29.2095 29.3339 29.4675 26.611 30.0244C25.3861 30.275 24.5136 30.1437 23.275 29.9274C20.6883 29.4757 18.9868 28.5942 18.4506 28.5108C16.6917 28.2373 15.8231 27.9878 15.0317 27.9211C14.6232 27.8866 14.405 27.2833 14.0851 26.7617C13.8831 26.4323 13.8976 26.1361 13.981 25.8839C14.0854 25.5683 14.5698 25.3952 14.6891 25.1091C15.1509 24.0014 10.5803 24.6523 8.71397 24.8868C7.08379 25.0916 5.38099 25.4609 3.19271 25.0424C1.88657 24.7927 1.19747 23.88 0.9281 23.359C0.479567 22.4914 0.824498 21.4562 1.39558 20.1423C1.51719 19.8624 1.59874 19.7359 1.73317 19.6338C2.47041 19.074 3.88508 18.994 4.56329 18.5726C4.82068 18.4126 4.83418 17.9166 4.88471 17.4289C4.96052 16.6973 4.09733 15.5635 3.70668 14.5477C3.55878 14.1631 3.45449 13.6047 3.20231 13.0326C2.7844 12.0845 1.2005 11.6155 0.607687 11.0934C0.476762 10.9781 0.488924 10.7745 0.521774 10.6052C1.02463 9.96392 1.73317 9.62633 2.06924 9.50857C2.23855 9.45753 2.40532 9.42418 2.67823 9.28874" stroke="#393939" stroke-linecap="round"/>
<path d="M25.4203 23.7426C25.4536 23.3424 25.487 22.9421 25.5042 22.2356C25.5214 21.5291 25.5214 20.5284 25.5214 19.4974" stroke="#393939" stroke-linecap="round"/>
<path d="M9.85461 11.5125C10.3236 11.8137 10.9321 12.4868 11.2343 13.2944C11.8418 14.4416 12.1106 15.1148 12.6322 16.1746C12.7514 16.4298 12.8182 16.5966 12.8869 16.7684" stroke="#393939" stroke-linecap="round"/>
<path d="M21.8826 18.3855C22.3193 17.8812 23.0571 16.3438 23.331 14.9692C23.4911 14.1662 23.6009 13.3702 23.7687 12.3751C23.8844 11.6886 24.0376 11.1445 24.4752 10.0175C24.7436 9.32641 25.2161 8.75303 25.6376 8.26281C25.8893 8.01113 26.1602 7.77361 26.4123 7.57196C26.5311 7.47037 26.6312 7.37031 26.8353 7.26721" stroke="#393939" stroke-linecap="round"/>
<path d="M12.2805 19.8007C12.6474 20.0352 14.6598 20.306 16.4028 21.1783C17.8343 21.8947 19.7217 23.2352 20.3645 23.6567C20.6334 23.9084 20.8709 24.2793 21.0559 24.6998C21.1408 24.8868 21.2075 25.0202 21.4784 25.4609" stroke="#393939" stroke-linecap="round"/>
<path d="M16.5945 27.3583C16.5945 27.5979 16.5633 27.8088 16.5008 27.9911C16.4435 28.1682 16.3784 28.3192 16.3055 28.4442C16.2326 28.564 16.1649 28.6552 16.1024 28.7177C16.0399 28.7802 16.006 28.814 16.0008 28.8192L15.9227 28.8817L15.8133 28.8505C15.5477 28.7671 15.3263 28.7098 15.1492 28.6786C14.9721 28.6421 14.8081 28.6239 14.657 28.6239C14.6154 28.6239 14.5789 28.6239 14.5477 28.6239C14.5164 28.6239 14.4852 28.6291 14.4539 28.6395V28.8817C14.4539 29.1057 14.4617 29.3192 14.4774 29.5223C14.4982 29.7255 14.532 29.9156 14.5789 30.0927L14.5945 30.2098L14.5477 30.288C14.5425 30.2932 14.5138 30.3244 14.4617 30.3817C14.4149 30.439 14.3393 30.5015 14.2352 30.5692C14.131 30.6369 14.0008 30.6994 13.8445 30.7567C13.6883 30.8088 13.5008 30.8348 13.282 30.8348C13.0633 30.8348 12.8732 30.801 12.7117 30.7333C12.5555 30.6656 12.4227 30.5927 12.3133 30.5145C12.2091 30.4364 12.1284 30.3635 12.0711 30.2958C12.019 30.2281 11.9904 30.1942 11.9852 30.1942L11.9227 30.0927L11.9539 29.9989C12.0112 29.8062 12.0581 29.5953 12.0945 29.3661C12.1362 29.1317 12.1701 28.8947 12.1961 28.6552C11.9982 28.6656 11.7977 28.6942 11.5945 28.7411C11.3914 28.788 11.1649 28.8557 10.9149 28.9442H10.7742C10.7638 28.939 10.7143 28.913 10.6258 28.8661C10.5425 28.814 10.4487 28.7281 10.3445 28.6083C10.2456 28.4885 10.1544 28.327 10.0711 28.1239C9.99298 27.9208 9.95392 27.6656 9.95392 27.3583C9.95392 27.077 9.99298 26.8427 10.0711 26.6552C10.1492 26.4677 10.2352 26.3192 10.3289 26.2098C10.4279 26.0953 10.5164 26.0171 10.5945 25.9755C10.6779 25.9286 10.7248 25.9052 10.7352 25.9052L10.8055 25.8739L10.8836 25.8895C11.1076 25.9781 11.3185 26.0406 11.5164 26.077C11.7195 26.1083 11.9201 26.1239 12.118 26.1239H12.2117C12.1961 25.8999 12.1727 25.6838 12.1414 25.4755C12.1102 25.2671 12.0685 25.0796 12.0164 24.913V24.7645C12.0216 24.7593 12.0477 24.7177 12.0945 24.6395C12.1414 24.5562 12.2169 24.4677 12.3211 24.3739C12.4305 24.2802 12.5737 24.1942 12.7508 24.1161C12.9331 24.038 13.157 23.9989 13.4227 23.9989C13.6935 23.9989 13.9175 24.0432 14.0945 24.1317C14.2716 24.215 14.4123 24.3088 14.5164 24.413C14.6206 24.5171 14.6909 24.6135 14.7274 24.702C14.769 24.7854 14.7899 24.8296 14.7899 24.8348L14.8211 24.913L14.7899 24.9755C14.7221 25.1369 14.6649 25.3244 14.618 25.538C14.5711 25.7515 14.532 25.9755 14.5008 26.2098H14.6727C14.8498 26.2098 15.0268 26.1916 15.2039 26.1552C15.381 26.1135 15.5841 26.0562 15.8133 25.9833L15.907 25.952L15.9852 25.9989C15.9904 26.0041 16.0242 26.0328 16.0867 26.0848C16.1492 26.1369 16.2169 26.2177 16.2899 26.327C16.3628 26.4364 16.4279 26.577 16.4852 26.7489C16.5477 26.9208 16.5841 27.1239 16.5945 27.3583ZM22.8211 22.3192L22.7899 22.4286C22.6857 22.7203 22.6076 23.0067 22.5555 23.288C22.5086 23.564 22.4852 23.8374 22.4852 24.1083C22.4852 24.3218 22.4982 24.5328 22.5242 24.7411C22.5503 24.9442 22.5971 25.1499 22.6649 25.3583L22.6805 25.4677C22.5919 25.7593 22.5268 26.038 22.4852 26.3036C22.4435 26.5692 22.4227 26.8348 22.4227 27.1005C22.4227 27.6265 22.5138 28.1395 22.6961 28.6395L22.7117 28.702L22.6805 28.7645C22.4878 29.3062 22.3914 29.8505 22.3914 30.3973C22.3914 30.9182 22.4826 31.4468 22.6649 31.9833L22.6961 32.0458L22.6649 32.1239C22.6596 32.1343 22.631 32.1812 22.5789 32.2645C22.5268 32.3427 22.4383 32.4286 22.3133 32.5223C22.1935 32.6161 22.032 32.702 21.8289 32.7802C21.6258 32.8583 21.3706 32.8973 21.0633 32.8973C20.756 32.8973 20.5008 32.8557 20.2977 32.7723C20.0998 32.689 19.9435 32.5953 19.8289 32.4911C19.7143 32.3869 19.6336 32.2932 19.5867 32.2098C19.5399 32.1213 19.5138 32.0718 19.5086 32.0614L19.4774 31.9989L19.5086 31.9208C19.6284 31.6291 19.7169 31.3348 19.7742 31.038C19.8315 30.7411 19.8602 30.4312 19.8602 30.1083C19.8602 29.8895 19.8471 29.6708 19.8211 29.452C19.8003 29.2281 19.7612 28.9989 19.7039 28.7645V28.6708C19.7768 28.4052 19.8289 28.1447 19.8602 27.8895C19.8914 27.6343 19.907 27.3765 19.907 27.1161C19.907 26.5848 19.8289 26.064 19.6727 25.5536L19.6336 25.4911L19.6727 25.4208C19.7352 25.2541 19.7873 25.0874 19.8289 24.9208C19.8758 24.7489 19.9123 24.5796 19.9383 24.413C19.6727 24.6161 19.4279 24.8322 19.2039 25.0614C18.98 25.2854 18.7925 25.5015 18.6414 25.7098L18.6102 25.7723L18.532 25.8114C18.5216 25.8114 18.493 25.8166 18.4461 25.827C18.4044 25.8374 18.3419 25.8427 18.2586 25.8427C18.1649 25.8427 18.0294 25.8088 17.8524 25.7411C17.6753 25.6734 17.4982 25.5744 17.3211 25.4442C17.1492 25.3088 16.9982 25.1395 16.868 24.9364C16.743 24.7333 16.6805 24.4963 16.6805 24.2255C16.6805 24.0484 16.7039 23.9052 16.7508 23.7958C16.7977 23.6864 16.8263 23.6265 16.8367 23.6161L16.8836 23.5536L16.9461 23.538C17.1596 23.465 17.3966 23.3583 17.657 23.2177C17.9227 23.077 18.1883 22.913 18.4539 22.7255C18.7195 22.538 18.9695 22.3374 19.2039 22.1239C19.4435 21.9052 19.6466 21.6864 19.8133 21.4677L19.8602 21.3895L19.9539 21.3739C19.9695 21.3739 20.0008 21.3765 20.0477 21.3817C20.0998 21.3817 20.1649 21.3921 20.243 21.413C20.3211 21.4286 20.407 21.4572 20.5008 21.4989C20.5998 21.5354 20.7013 21.59 20.8055 21.663C20.9305 21.6317 21.0841 21.6161 21.2664 21.6161C21.5112 21.6161 21.7248 21.6473 21.907 21.7098C22.0945 21.7723 22.2508 21.8427 22.3758 21.9208C22.5008 21.9989 22.5945 22.0718 22.657 22.1395C22.7195 22.202 22.7534 22.2359 22.7586 22.2411L22.8211 22.3192ZM33.7586 26.8661C33.7586 26.8765 33.7612 26.9025 33.7664 26.9442C33.7716 26.9859 33.7742 27.0432 33.7742 27.1161C33.7742 27.1942 33.7664 27.2828 33.7508 27.3817C33.7352 27.4807 33.7013 27.5874 33.6492 27.702C33.6024 27.8166 33.532 27.939 33.4383 28.0692C33.3498 28.1942 33.2326 28.3192 33.0867 28.4442C32.8992 28.5953 32.7221 28.7072 32.5555 28.7802C32.394 28.8531 32.2508 28.8973 32.1258 28.913C31.9748 29.0796 31.8367 29.2567 31.7117 29.4442C31.5867 29.6265 31.4721 29.8218 31.368 30.0302L31.3055 30.1083C31.1076 30.1864 30.8992 30.3192 30.6805 30.5067C30.4669 30.689 30.2586 30.8973 30.0555 31.1317C29.8576 31.3609 29.6753 31.6005 29.5086 31.8505C29.3471 32.1005 29.2221 32.3322 29.1336 32.5458L29.1024 32.6239L29.0164 32.6552C29.006 32.6656 28.9643 32.6812 28.8914 32.702C28.8185 32.7229 28.7169 32.7333 28.5867 32.7333C28.4357 32.7333 28.2534 32.6994 28.0399 32.6317C27.8315 32.564 27.6076 32.4234 27.368 32.2098C27.2169 32.0796 27.0971 31.9494 27.0086 31.8192C26.9253 31.689 26.8602 31.5666 26.8133 31.452C26.6518 31.3166 26.4852 31.1942 26.3133 31.0848C26.1466 30.9755 25.9826 30.8635 25.8211 30.7489L25.7586 30.7333L25.7195 30.6708C25.4643 30.1864 25.1518 29.7697 24.782 29.4208C24.4175 29.0718 23.9852 28.7854 23.4852 28.5614L23.3992 28.5145L23.368 28.413C23.3628 28.4025 23.3602 28.3869 23.3602 28.3661C23.355 28.3453 23.3524 28.3036 23.3524 28.2411C23.3524 28.1734 23.3576 28.09 23.368 27.9911C23.3836 27.8921 23.4175 27.7775 23.4695 27.6473C23.3237 27.4807 23.2352 27.3192 23.2039 27.163C23.1675 27.0067 23.1492 26.8791 23.1492 26.7802C23.1492 26.7333 23.1518 26.6968 23.157 26.6708C23.1623 26.6395 23.1649 26.6187 23.1649 26.6083L23.1805 26.5302L23.243 26.4989C23.4201 26.3635 23.5971 26.1968 23.7742 25.9989C23.9565 25.7958 24.1258 25.5796 24.282 25.3505C24.4383 25.1213 24.5789 24.8817 24.7039 24.6317C24.8341 24.3817 24.9383 24.1395 25.0164 23.9052L25.0867 23.788C25.5294 23.4598 25.8914 23.0848 26.1727 22.663C26.4539 22.2411 26.6675 21.7697 26.8133 21.2489L26.8445 21.1552L26.9383 21.1005C26.9487 21.1005 26.9904 21.09 27.0633 21.0692C27.1414 21.0484 27.243 21.038 27.368 21.038C27.5555 21.038 27.7248 21.0588 27.8758 21.1005C28.032 21.1421 28.1701 21.1968 28.2899 21.2645C28.4096 21.3322 28.5164 21.4104 28.6102 21.4989C28.7039 21.5874 28.7873 21.6786 28.8602 21.7723C29.0008 21.7411 29.1284 21.7255 29.243 21.7255C29.3211 21.7255 29.3836 21.7281 29.4305 21.7333C29.4774 21.7385 29.506 21.7411 29.5164 21.7411L29.6102 21.7723L29.657 21.8739C29.855 22.3739 30.1024 22.814 30.3992 23.1942C30.7013 23.5692 31.0581 23.8973 31.4695 24.1786L31.5477 24.2567C31.657 24.4859 31.7846 24.7177 31.9305 24.952C32.0815 25.1864 32.2456 25.413 32.4227 25.6317C32.5998 25.8505 32.7899 26.0562 32.993 26.2489C33.2013 26.4416 33.4227 26.6083 33.657 26.7489L33.7195 26.7802L33.7586 26.8661ZM29.3836 26.1942L29.3211 26.163L29.3055 26.0927C29.1701 25.7072 28.9982 25.3557 28.7899 25.038C28.5815 24.7203 28.3315 24.4338 28.0399 24.1786C27.9461 24.3453 27.8602 24.5197 27.782 24.702C27.7039 24.8843 27.6362 25.0718 27.5789 25.2645L27.532 25.3583C27.3914 25.4572 27.2508 25.5822 27.1102 25.7333C26.9748 25.8791 26.8445 26.0406 26.7195 26.2177C26.5945 26.3947 26.4748 26.5796 26.3602 26.7723C26.2508 26.9598 26.1544 27.1447 26.0711 27.327C26.5086 27.8114 27.0112 28.1838 27.5789 28.4442L27.657 28.5145C27.756 28.6395 27.855 28.7723 27.9539 28.913C28.0529 29.0536 28.1675 29.1916 28.2977 29.327C28.4279 29.176 28.5503 29.0223 28.6649 28.8661C28.7846 28.7046 28.8966 28.5432 29.0008 28.3817C29.0164 28.3557 29.0268 28.3322 29.032 28.3114C29.0425 28.2906 29.0529 28.2671 29.0633 28.2411L29.1024 28.1786L29.1649 28.1473C29.6649 27.9025 30.0919 27.5874 30.4461 27.202C30.2846 26.9989 30.1128 26.8114 29.9305 26.6395C29.7534 26.4624 29.5711 26.314 29.3836 26.1942ZM44.118 26.8661C44.118 26.8765 44.1206 26.9025 44.1258 26.9442C44.131 26.9859 44.1336 27.0432 44.1336 27.1161C44.1336 27.1942 44.1258 27.2828 44.1102 27.3817C44.0945 27.4807 44.0607 27.5874 44.0086 27.702C43.9617 27.8166 43.8914 27.939 43.7977 28.0692C43.7091 28.1942 43.5919 28.3192 43.4461 28.4442C43.2586 28.5953 43.0815 28.7072 42.9149 28.7802C42.7534 28.8531 42.6102 28.8973 42.4852 28.913C42.3341 29.0796 42.1961 29.2567 42.0711 29.4442C41.9461 29.6265 41.8315 29.8218 41.7274 30.0302L41.6649 30.1083C41.4669 30.1864 41.2586 30.3192 41.0399 30.5067C40.8263 30.689 40.618 30.8973 40.4149 31.1317C40.2169 31.3609 40.0346 31.6005 39.868 31.8505C39.7065 32.1005 39.5815 32.3322 39.493 32.5458L39.4617 32.6239L39.3758 32.6552C39.3654 32.6656 39.3237 32.6812 39.2508 32.702C39.1779 32.7229 39.0763 32.7333 38.9461 32.7333C38.7951 32.7333 38.6128 32.6994 38.3992 32.6317C38.1909 32.564 37.9669 32.4234 37.7274 32.2098C37.5763 32.0796 37.4565 31.9494 37.368 31.8192C37.2846 31.689 37.2195 31.5666 37.1727 31.452C37.0112 31.3166 36.8445 31.1942 36.6727 31.0848C36.506 30.9755 36.3419 30.8635 36.1805 30.7489L36.118 30.7333L36.0789 30.6708C35.8237 30.1864 35.5112 29.7697 35.1414 29.4208C34.7768 29.0718 34.3445 28.7854 33.8445 28.5614L33.7586 28.5145L33.7274 28.413C33.7221 28.4025 33.7195 28.3869 33.7195 28.3661C33.7143 28.3453 33.7117 28.3036 33.7117 28.2411C33.7117 28.1734 33.7169 28.09 33.7274 27.9911C33.743 27.8921 33.7768 27.7775 33.8289 27.6473C33.6831 27.4807 33.5945 27.3192 33.5633 27.163C33.5268 27.0067 33.5086 26.8791 33.5086 26.7802C33.5086 26.7333 33.5112 26.6968 33.5164 26.6708C33.5216 26.6395 33.5242 26.6187 33.5242 26.6083L33.5399 26.5302L33.6024 26.4989C33.7794 26.3635 33.9565 26.1968 34.1336 25.9989C34.3159 25.7958 34.4852 25.5796 34.6414 25.3505C34.7977 25.1213 34.9383 24.8817 35.0633 24.6317C35.1935 24.3817 35.2977 24.1395 35.3758 23.9052L35.4461 23.788C35.8888 23.4598 36.2508 23.0848 36.532 22.663C36.8133 22.2411 37.0268 21.7697 37.1727 21.2489L37.2039 21.1552L37.2977 21.1005C37.3081 21.1005 37.3498 21.09 37.4227 21.0692C37.5008 21.0484 37.6024 21.038 37.7274 21.038C37.9149 21.038 38.0841 21.0588 38.2352 21.1005C38.3914 21.1421 38.5294 21.1968 38.6492 21.2645C38.769 21.3322 38.8758 21.4104 38.9695 21.4989C39.0633 21.5874 39.1466 21.6786 39.2195 21.7723C39.3602 21.7411 39.4878 21.7255 39.6024 21.7255C39.6805 21.7255 39.743 21.7281 39.7899 21.7333C39.8367 21.7385 39.8654 21.7411 39.8758 21.7411L39.9695 21.7723L40.0164 21.8739C40.2143 22.3739 40.4617 22.814 40.7586 23.1942C41.0607 23.5692 41.4175 23.8973 41.8289 24.1786L41.907 24.2567C42.0164 24.4859 42.144 24.7177 42.2899 24.952C42.4409 25.1864 42.605 25.413 42.782 25.6317C42.9591 25.8505 43.1492 26.0562 43.3524 26.2489C43.5607 26.4416 43.782 26.6083 44.0164 26.7489L44.0789 26.7802L44.118 26.8661ZM39.743 26.1942L39.6805 26.163L39.6649 26.0927C39.5294 25.7072 39.3576 25.3557 39.1492 25.038C38.9409 24.7203 38.6909 24.4338 38.3992 24.1786C38.3055 24.3453 38.2195 24.5197 38.1414 24.702C38.0633 24.8843 37.9956 25.0718 37.9383 25.2645L37.8914 25.3583C37.7508 25.4572 37.6102 25.5822 37.4695 25.7333C37.3341 25.8791 37.2039 26.0406 37.0789 26.2177C36.9539 26.3947 36.8341 26.5796 36.7195 26.7723C36.6102 26.9598 36.5138 27.1447 36.4305 27.327C36.868 27.8114 37.3706 28.1838 37.9383 28.4442L38.0164 28.5145C38.1154 28.6395 38.2143 28.7723 38.3133 28.913C38.4123 29.0536 38.5268 29.1916 38.657 29.327C38.7873 29.176 38.9096 29.0223 39.0242 28.8661C39.144 28.7046 39.256 28.5432 39.3602 28.3817C39.3758 28.3557 39.3862 28.3322 39.3914 28.3114C39.4018 28.2906 39.4123 28.2671 39.4227 28.2411L39.4617 28.1786L39.5242 28.1473C40.0242 27.9025 40.4513 27.5874 40.8055 27.202C40.644 26.9989 40.4721 26.8114 40.2899 26.6395C40.1128 26.4624 39.9305 26.314 39.743 26.1942Z" fill="#D9D9D9"/>
</svg>
