<svg width="47" height="39" viewBox="0 0 47 39" fill="none" xmlns="http://www.w3.org/2000/svg">
<path d="M4.62647 4.50987C3.41464 5.98747 2.79759 8.08103 2.56245 9.34309C2.35534 9.43456 2.2132 9.46517 2.06924 9.50857C1.73317 9.62633 1.02463 9.96392 0.521774 10.6052C0.488924 10.7745 0.476762 10.9781 0.607687 11.0934C1.2005 11.6155 2.78439 12.0845 3.20231 13.0326C3.45449 13.6047 3.55878 14.1631 3.70668 14.5477C4.09733 15.5635 4.96052 16.6973 4.88471 17.4289C4.83418 17.9166 4.82068 18.4126 4.56329 18.5726C3.88508 18.994 2.47041 19.074 1.73317 19.6338C1.59874 19.7359 1.51719 19.8624 1.39558 20.1423C0.824498 21.4562 0.479567 22.4914 0.9281 23.359C1.19747 23.88 1.88657 24.7927 3.19271 25.0424C5.38099 25.4609 7.08379 25.0916 8.71397 24.8868C10.5803 24.6523 15.1509 24.0014 14.6891 25.1091C14.5698 25.3952 14.0854 25.5683 13.981 25.8839C13.8976 26.1361 13.8831 26.4323 14.0851 26.7617C14.405 27.2833 14.6232 27.8866 15.0317 27.9211C15.8231 27.9878 16.6917 28.2373 18.4506 28.5108C18.9868 28.5942 20.6884 29.4757 23.275 29.9274C24.5136 30.1437 25.3861 30.275 26.611 30.0244C29.3339 29.4675 30.4293 29.2095 31.8942 28.2202C33.1425 27.3773 34.815 26.5729 34.6515 25.7616C34.5838 25.4255 34.2806 25.0212 32.6189 23.3944C31.0037 21.813 29.9094 20.7566 29.6806 20.4045C29.4623 20.0685 29.1755 19.5066 29.4138 19.0062C29.5654 18.6878 30.2171 18.047 30.8844 16.6905C32.16 14.0979 31.4682 11.7856 32.5669 11.2066C33.1394 10.9049 33.792 10.6951 34.133 10.1767C34.5869 9.48684 34.9477 8.70485 34.8704 7.93482C34.786 7.09438 34.5432 6.14051 33.7848 4.9637C32.6573 3.21408 31.7302 1.54563 30.7712 1.04752C29.9647 0.628558 29.2119 0.418188 28.583 0.529504C28.0119 0.630581 26.8815 1.83852 25.0256 2.67282C23.799 3.22419 22.8958 3.14848 22.0474 3.39399C21.8099 3.46272 21.4626 3.57827 21.4096 4.00651C21.2762 5.08398 21.823 7.53684 20.6338 8.73686C19.5801 9.80018 17.9299 10.8625 17.0285 11.0414C16.6924 11.1081 16.3563 11.081 16.1021 10.8534C15.7827 10.5674 15.3788 10.0226 14.7174 9.33321C13.927 8.50944 12.2818 6.91322 9.99409 5.37205C8.5012 4.36634 7.49135 3.86152 6.66516 3.88118C5.94297 3.89836 5.13695 3.88742 4.62647 4.50987Z" fill="#375C3A"/>
<path d="M2.47607 9.8952C2.6095 8.79144 3.21393 6.2322 4.62647 4.50987C5.13695 3.88742 5.94297 3.89836 6.66516 3.88118C7.49135 3.86152 8.5012 4.36634 9.99409 5.37205C12.2818 6.91322 13.927 8.50944 14.7174 9.33321C15.3788 10.0226 15.7827 10.5674 16.1021 10.8534C16.3563 11.081 16.6924 11.1081 17.0285 11.0414C17.9299 10.8625 19.5801 9.80018 20.6338 8.73686C21.823 7.53684 21.2762 5.08398 21.4096 4.00651C21.4626 3.57827 21.8099 3.46272 22.0474 3.39399C22.8958 3.14848 23.799 3.22419 25.0256 2.67282C26.8815 1.83852 28.0119 0.630581 28.583 0.529504C29.2119 0.418188 29.9647 0.628558 30.7712 1.04752C31.7302 1.54563 32.6573 3.21408 33.7848 4.9637C34.5432 6.14051 34.786 7.09438 34.8704 7.93482C34.9477 8.70485 34.5869 9.48684 34.133 10.1767C33.792 10.6951 33.1394 10.9049 32.5669 11.2067C31.4682 11.7856 32.16 14.0979 30.8844 16.6905C30.2171 18.047 29.5654 18.6878 29.4138 19.0062C29.1755 19.5066 29.4623 20.0685 29.6806 20.4045C29.9094 20.7566 31.0037 21.813 32.6189 23.3944C34.2806 25.0212 34.5838 25.4255 34.6515 25.7616C34.815 26.5729 33.1425 27.3773 31.8942 28.2202C30.4293 29.2095 29.3339 29.4675 26.611 30.0244C25.3861 30.275 24.5136 30.1437 23.275 29.9274C20.6883 29.4757 18.9868 28.5942 18.4506 28.5108C16.6917 28.2373 15.8231 27.9878 15.0317 27.9211C14.6232 27.8866 14.405 27.2833 14.0851 26.7617C13.8831 26.4323 13.8976 26.1361 13.981 25.8839C14.0854 25.5683 14.5698 25.3952 14.6891 25.1091C15.1509 24.0014 10.5803 24.6523 8.71397 24.8868C7.08379 25.0916 5.38099 25.4609 3.19271 25.0424C1.88657 24.7927 1.19747 23.88 0.9281 23.359C0.479567 22.4914 0.824498 21.4562 1.39558 20.1423C1.51719 19.8624 1.59874 19.7359 1.73317 19.6338C2.47041 19.074 3.88508 18.994 4.56329 18.5726C4.82068 18.4126 4.83418 17.9166 4.88471 17.4289C4.96052 16.6973 4.09733 15.5635 3.70668 14.5477C3.55878 14.1631 3.45449 13.6047 3.20231 13.0326C2.7844 12.0845 1.2005 11.6155 0.607687 11.0934C0.476762 10.9781 0.488924 10.7745 0.521774 10.6052C1.02463 9.96392 1.73317 9.62633 2.06924 9.50857C2.23855 9.45753 2.40532 9.42418 2.67823 9.28874" stroke="#393939" stroke-linecap="round"/>
<path d="M25.4203 23.7426C25.4536 23.3424 25.487 22.9421 25.5042 22.2356C25.5214 21.5291 25.5214 20.5284 25.5214 19.4974" stroke="#393939" stroke-linecap="round"/>
<path d="M9.85461 11.5125C10.3236 11.8137 10.9321 12.4868 11.2343 13.2944C11.8418 14.4416 12.1106 15.1148 12.6322 16.1746C12.7514 16.4298 12.8182 16.5966 12.8869 16.7684" stroke="#393939" stroke-linecap="round"/>
<path d="M21.8826 18.3855C22.3193 17.8812 23.0571 16.3438 23.331 14.9692C23.4911 14.1662 23.6009 13.3702 23.7687 12.3751C23.8844 11.6886 24.0376 11.1445 24.4752 10.0175C24.7436 9.32641 25.2161 8.75303 25.6376 8.26281C25.8893 8.01113 26.1602 7.77361 26.4123 7.57196C26.5311 7.47037 26.6312 7.37031 26.8353 7.26721" stroke="#393939" stroke-linecap="round"/>
<path d="M12.2805 19.8007C12.6474 20.0352 14.6598 20.306 16.4028 21.1783C17.8343 21.8947 19.7217 23.2352 20.3645 23.6567C20.6334 23.9084 20.8709 24.2793 21.0559 24.6998C21.1408 24.8868 21.2075 25.0202 21.4784 25.4609" stroke="#393939" stroke-linecap="round"/>
<path d="M10.7885 29.0659C10.7885 29.3055 10.7572 29.5164 10.6947 29.6987C10.6374 29.8758 10.5723 30.0269 10.4994 30.1519C10.4265 30.2716 10.3588 30.3628 10.2963 30.4253C10.2338 30.4878 10.1999 30.5216 10.1947 30.5269L10.1166 30.5894L10.0072 30.5581C9.74158 30.4748 9.52022 30.4175 9.34314 30.3862C9.16606 30.3498 9.00199 30.3315 8.85095 30.3315C8.80929 30.3315 8.77283 30.3315 8.74158 30.3315C8.71033 30.3315 8.67908 30.3368 8.64783 30.3472V30.5894C8.64783 30.8133 8.65564 31.0269 8.67126 31.23C8.6921 31.4331 8.72595 31.6232 8.77283 31.8003L8.78845 31.9175L8.74158 31.9956C8.73637 32.0008 8.70772 32.0321 8.65564 32.0894C8.60876 32.1466 8.53324 32.2091 8.42908 32.2769C8.32491 32.3446 8.1947 32.4071 8.03845 32.4644C7.8822 32.5164 7.6947 32.5425 7.47595 32.5425C7.2572 32.5425 7.0671 32.5086 6.90564 32.4409C6.74939 32.3732 6.61658 32.3003 6.5072 32.2222C6.40304 32.144 6.32231 32.0711 6.26501 32.0034C6.21293 31.9357 6.18429 31.9019 6.17908 31.9019L6.11658 31.8003L6.14783 31.7065C6.20512 31.5138 6.25199 31.3029 6.28845 31.0737C6.33012 30.8394 6.36397 30.6024 6.39001 30.3628C6.1921 30.3732 5.99158 30.4019 5.78845 30.4487C5.58533 30.4956 5.35876 30.5633 5.10876 30.6519H4.96814C4.95772 30.6466 4.90824 30.6206 4.8197 30.5737C4.73637 30.5216 4.64262 30.4357 4.53845 30.3159C4.43949 30.1961 4.34835 30.0347 4.26501 29.8315C4.18689 29.6284 4.14783 29.3732 4.14783 29.0659C4.14783 28.7847 4.18689 28.5503 4.26501 28.3628C4.34314 28.1753 4.42908 28.0269 4.52283 27.9175C4.62179 27.8029 4.71033 27.7248 4.78845 27.6831C4.87179 27.6362 4.91866 27.6128 4.92908 27.6128L4.99939 27.5815L5.07751 27.5972C5.30147 27.6857 5.51241 27.7482 5.71033 27.7847C5.91345 27.8159 6.11397 27.8315 6.31189 27.8315H6.40564C6.39001 27.6076 6.36658 27.3914 6.33533 27.1831C6.30408 26.9748 6.26241 26.7873 6.21033 26.6206V26.4722C6.21554 26.467 6.24158 26.4253 6.28845 26.3472C6.33533 26.2638 6.41085 26.1753 6.51501 26.0815C6.62439 25.9878 6.76762 25.9019 6.9447 25.8237C7.12699 25.7456 7.35095 25.7065 7.61658 25.7065C7.88741 25.7065 8.11137 25.7508 8.28845 25.8394C8.46554 25.9227 8.60616 26.0164 8.71033 26.1206C8.81449 26.2248 8.88481 26.3211 8.92126 26.4097C8.96293 26.493 8.98376 26.5373 8.98376 26.5425L9.01501 26.6206L8.98376 26.6831C8.91606 26.8446 8.85876 27.0321 8.81189 27.2456C8.76501 27.4591 8.72595 27.6831 8.6947 27.9175H8.86658C9.04366 27.9175 9.22074 27.8993 9.39783 27.8628C9.57491 27.8211 9.77804 27.7638 10.0072 27.6909L10.101 27.6597L10.1791 27.7065C10.1843 27.7118 10.2181 27.7404 10.2806 27.7925C10.3431 27.8446 10.4108 27.9253 10.4838 28.0347C10.5567 28.144 10.6218 28.2847 10.6791 28.4565C10.7416 28.6284 10.778 28.8315 10.7885 29.0659ZM17.015 24.0269L16.9838 24.1362C16.8796 24.4279 16.8015 24.7144 16.7494 24.9956C16.7025 25.2716 16.6791 25.5451 16.6791 25.8159C16.6791 26.0295 16.6921 26.2404 16.7181 26.4487C16.7442 26.6519 16.7911 26.8576 16.8588 27.0659L16.8744 27.1753C16.7858 27.467 16.7207 27.7456 16.6791 28.0112C16.6374 28.2769 16.6166 28.5425 16.6166 28.8081C16.6166 29.3341 16.7077 29.8472 16.89 30.3472L16.9056 30.4097L16.8744 30.4722C16.6817 31.0138 16.5853 31.5581 16.5853 32.105C16.5853 32.6258 16.6765 33.1545 16.8588 33.6909L16.89 33.7534L16.8588 33.8315C16.8536 33.842 16.8249 33.8888 16.7728 33.9722C16.7207 34.0503 16.6322 34.1362 16.5072 34.23C16.3874 34.3237 16.226 34.4097 16.0228 34.4878C15.8197 34.5659 15.5645 34.605 15.2572 34.605C14.9499 34.605 14.6947 34.5633 14.4916 34.48C14.2937 34.3966 14.1374 34.3029 14.0228 34.1987C13.9082 34.0946 13.8275 34.0008 13.7806 33.9175C13.7338 33.8289 13.7077 33.7795 13.7025 33.769L13.6713 33.7065L13.7025 33.6284C13.8223 33.3368 13.9108 33.0425 13.9681 32.7456C14.0254 32.4487 14.0541 32.1388 14.0541 31.8159C14.0541 31.5972 14.0411 31.3784 14.015 31.1597C13.9942 30.9357 13.9551 30.7065 13.8978 30.4722V30.3784C13.9707 30.1128 14.0228 29.8524 14.0541 29.5972C14.0853 29.342 14.101 29.0841 14.101 28.8237C14.101 28.2925 14.0228 27.7716 13.8666 27.2612L13.8275 27.1987L13.8666 27.1284C13.9291 26.9618 13.9812 26.7951 14.0228 26.6284C14.0697 26.4565 14.1062 26.2873 14.1322 26.1206C13.8666 26.3237 13.6218 26.5399 13.3978 26.769C13.1739 26.993 12.9864 27.2091 12.8353 27.4175L12.8041 27.48L12.726 27.519C12.7155 27.519 12.6869 27.5243 12.64 27.5347C12.5983 27.5451 12.5358 27.5503 12.4525 27.5503C12.3588 27.5503 12.2233 27.5164 12.0463 27.4487C11.8692 27.381 11.6921 27.2821 11.515 27.1519C11.3431 27.0164 11.1921 26.8472 11.0619 26.644C10.9369 26.4409 10.8744 26.2039 10.8744 25.9331C10.8744 25.756 10.8978 25.6128 10.9447 25.5034C10.9916 25.394 11.0202 25.3341 11.0306 25.3237L11.0775 25.2612L11.14 25.2456C11.3536 25.1727 11.5905 25.0659 11.851 24.9253C12.1166 24.7847 12.3822 24.6206 12.6478 24.4331C12.9135 24.2456 13.1635 24.0451 13.3978 23.8315C13.6374 23.6128 13.8405 23.394 14.0072 23.1753L14.0541 23.0972L14.1478 23.0815C14.1635 23.0815 14.1947 23.0841 14.2416 23.0894C14.2937 23.0894 14.3588 23.0998 14.4369 23.1206C14.515 23.1362 14.601 23.1649 14.6947 23.2065C14.7937 23.243 14.8952 23.2977 14.9994 23.3706C15.1244 23.3394 15.278 23.3237 15.4603 23.3237C15.7051 23.3237 15.9187 23.355 16.101 23.4175C16.2885 23.48 16.4447 23.5503 16.5697 23.6284C16.6947 23.7065 16.7885 23.7795 16.851 23.8472C16.9135 23.9097 16.9473 23.9435 16.9525 23.9487L17.015 24.0269ZM25.1322 32.5425L25.101 32.6206C25.101 32.6258 25.0931 32.6466 25.0775 32.6831C25.0619 32.7196 25.0332 32.7664 24.9916 32.8237C24.9551 32.8758 24.9056 32.9357 24.8431 33.0034C24.7806 33.0659 24.7025 33.1232 24.6088 33.1753C24.5879 33.3732 24.5463 33.5451 24.4838 33.6909C24.4265 33.8368 24.364 33.9591 24.2963 34.0581C24.2338 34.1571 24.1739 34.2352 24.1166 34.2925C24.0645 34.3446 24.0358 34.3732 24.0306 34.3784L23.9525 34.4409L23.851 34.4097C23.5853 34.3315 23.3431 34.2716 23.1244 34.23C22.9108 34.1883 22.7051 34.1675 22.5072 34.1675C22.3249 34.1675 22.1374 34.1883 21.9447 34.23C21.7572 34.2664 21.5463 34.3211 21.3119 34.394H21.1947C20.903 34.342 20.6556 34.2925 20.4525 34.2456C20.2494 34.1935 20.0489 34.1675 19.851 34.1675C19.6843 34.1675 19.5124 34.1857 19.3353 34.2222C19.1582 34.2586 18.9525 34.3211 18.7181 34.4097L18.64 34.4253L18.5697 34.394C18.5593 34.394 18.5124 34.3706 18.4291 34.3237C18.3457 34.2769 18.252 34.1987 18.1478 34.0894C18.0489 33.9748 17.9577 33.8211 17.8744 33.6284C17.7963 33.4357 17.7572 33.1909 17.7572 32.894C17.7572 32.644 17.7963 32.4305 17.8744 32.2534C17.9525 32.0711 18.0385 31.9201 18.1322 31.8003C18.2312 31.6805 18.3197 31.592 18.3978 31.5347C18.4812 31.4722 18.528 31.4383 18.5385 31.4331H18.6869C18.9213 31.5216 19.1244 31.5841 19.2963 31.6206C19.4733 31.6571 19.653 31.6753 19.8353 31.6753C19.9864 31.6753 20.1661 31.6675 20.3744 31.6519C20.5827 31.631 20.8041 31.5789 21.0385 31.4956L21.101 31.4644L21.1635 31.4956C21.4239 31.5946 21.6582 31.6675 21.8666 31.7144C22.0749 31.7612 22.2885 31.7847 22.5072 31.7847C22.5489 31.5659 22.5801 31.3341 22.601 31.0894C22.627 30.8394 22.64 30.5868 22.64 30.3315C22.64 30.2586 22.64 30.1857 22.64 30.1128C22.64 30.0347 22.6348 29.9591 22.6244 29.8862H22.5385C22.403 29.8862 22.2598 29.8993 22.1088 29.9253C21.9577 29.9461 21.7754 29.9852 21.5619 30.0425H21.4525C21.2858 30.0112 21.14 29.98 21.015 29.9487C20.89 29.9175 20.7754 29.8888 20.6713 29.8628C20.5723 29.8315 20.4786 29.8081 20.39 29.7925C20.3067 29.7769 20.2181 29.769 20.1244 29.769C20.0046 29.769 19.8718 29.7847 19.726 29.8159C19.5853 29.8472 19.4135 29.8914 19.2103 29.9487L19.1322 29.98L19.0541 29.9487C19.0489 29.9435 19.0072 29.9201 18.9291 29.8784C18.8562 29.8315 18.7728 29.756 18.6791 29.6519C18.5905 29.5477 18.5072 29.4097 18.4291 29.2378C18.3562 29.0659 18.3197 28.8498 18.3197 28.5894C18.3197 28.5477 18.3197 28.5086 18.3197 28.4722C18.3197 28.4305 18.3249 28.394 18.3353 28.3628C18.2051 28.2586 18.114 28.1545 18.0619 28.0503C18.0098 27.9461 17.9838 27.8862 17.9838 27.8706L17.9525 27.8003L17.9838 27.7222C18.0723 27.467 18.14 27.1519 18.1869 26.7769C18.239 26.4019 18.265 26.019 18.265 25.6284C18.265 25.368 18.252 25.118 18.226 24.8784C18.2051 24.6388 18.1661 24.4149 18.1088 24.2065L18.0775 24.105L18.14 24.0269C18.1452 24.0216 18.1713 23.9904 18.2181 23.9331C18.2702 23.8706 18.3483 23.8055 18.4525 23.7378C18.5567 23.6649 18.6869 23.5998 18.8431 23.5425C18.9994 23.48 19.1869 23.4487 19.4056 23.4487C19.5827 23.4487 19.739 23.4722 19.8744 23.519C20.0098 23.5607 20.1296 23.6128 20.2338 23.6753C20.2963 23.6753 20.3744 23.6727 20.4681 23.6675C20.5619 23.6623 20.6635 23.6519 20.7728 23.6362C20.8822 23.6154 20.9916 23.5868 21.101 23.5503C21.2103 23.5138 21.3119 23.4644 21.4056 23.4019H21.5306C21.7598 23.4591 21.9577 23.5034 22.1244 23.5347C22.2911 23.5659 22.4447 23.5815 22.5853 23.5815C22.7832 23.5815 22.9786 23.5529 23.1713 23.4956C23.3692 23.4383 23.6114 23.355 23.8978 23.2456L23.9994 23.1987L24.0931 23.2456C24.0983 23.2508 24.1322 23.2769 24.1947 23.3237C24.2572 23.3706 24.3275 23.4435 24.4056 23.5425C24.4838 23.6362 24.5593 23.7612 24.6322 23.9175C24.7051 24.0737 24.7546 24.2638 24.7806 24.4878C24.7806 24.5295 24.7832 24.5685 24.7885 24.605C24.7937 24.6362 24.7963 24.6675 24.7963 24.6987C24.7963 24.8914 24.7702 25.0633 24.7181 25.2144C24.6713 25.3602 24.6192 25.4852 24.5619 25.5894C24.5046 25.6935 24.4473 25.7769 24.39 25.8394C24.3379 25.8966 24.3093 25.9279 24.3041 25.9331L24.2181 25.9956L24.1244 25.98C23.9004 25.9331 23.7077 25.8966 23.5463 25.8706C23.3848 25.8446 23.2364 25.8315 23.101 25.8315C22.9187 25.8315 22.739 25.8576 22.5619 25.9097C22.3848 25.9565 22.1635 26.0321 21.8978 26.1362L21.8041 26.1519C21.5697 26.105 21.3614 26.0763 21.1791 26.0659C21.002 26.0503 20.8483 26.0425 20.7181 26.0425C20.6869 26.0425 20.653 26.0425 20.6166 26.0425C20.5853 26.0425 20.5541 26.0477 20.5228 26.0581C20.5228 26.5477 20.5671 26.9904 20.6556 27.3862C20.7598 27.3862 20.8744 27.3784 20.9994 27.3628C21.1296 27.3472 21.2702 27.3185 21.4213 27.2769H21.5463C21.8275 27.3862 22.0645 27.4696 22.2572 27.5269C22.4551 27.5841 22.6452 27.6128 22.8275 27.6128C22.9786 27.6128 23.1374 27.5972 23.3041 27.5659C23.476 27.5347 23.6791 27.4852 23.9135 27.4175L24.015 27.4019L24.0931 27.4644C24.0983 27.4696 24.1218 27.493 24.1635 27.5347C24.2051 27.5711 24.252 27.6284 24.3041 27.7065C24.3614 27.7847 24.4161 27.8836 24.4681 28.0034C24.5202 28.118 24.5593 28.2534 24.5853 28.4097C24.7312 28.4982 24.8431 28.5841 24.9213 28.6675C24.9994 28.7508 25.0437 28.7977 25.0541 28.8081L25.1166 28.894L25.0853 28.9878C25.0124 29.2378 24.9577 29.5112 24.9213 29.8081C24.89 30.105 24.8744 30.4019 24.8744 30.6987C24.8744 31.0269 24.8952 31.3446 24.9369 31.6519C24.9786 31.9591 25.0385 32.2326 25.1166 32.4722L25.1322 32.5425ZM35.9681 28.5737C35.9681 28.5841 35.9707 28.6102 35.976 28.6519C35.9812 28.6935 35.9838 28.7508 35.9838 28.8237C35.9838 28.9019 35.976 28.9904 35.9603 29.0894C35.9447 29.1883 35.9108 29.2951 35.8588 29.4097C35.8119 29.5243 35.7416 29.6466 35.6478 29.7769C35.5593 29.9019 35.4421 30.0269 35.2963 30.1519C35.1088 30.3029 34.9317 30.4149 34.765 30.4878C34.6036 30.5607 34.4603 30.605 34.3353 30.6206C34.1843 30.7873 34.0463 30.9644 33.9213 31.1519C33.7963 31.3341 33.6817 31.5295 33.5775 31.7378L33.515 31.8159C33.3171 31.894 33.1088 32.0269 32.89 32.2144C32.6765 32.3966 32.4681 32.605 32.265 32.8394C32.0671 33.0685 31.8848 33.3081 31.7181 33.5581C31.5567 33.8081 31.4317 34.0399 31.3431 34.2534L31.3119 34.3315L31.226 34.3628C31.2155 34.3732 31.1739 34.3888 31.101 34.4097C31.028 34.4305 30.9265 34.4409 30.7963 34.4409C30.6452 34.4409 30.4629 34.4071 30.2494 34.3394C30.0411 34.2716 29.8171 34.131 29.5775 33.9175C29.4265 33.7873 29.3067 33.6571 29.2181 33.5269C29.1348 33.3966 29.0697 33.2743 29.0228 33.1597C28.8614 33.0243 28.6947 32.9019 28.5228 32.7925C28.3562 32.6831 28.1921 32.5711 28.0306 32.4565L27.9681 32.4409L27.9291 32.3784C27.6739 31.894 27.3614 31.4774 26.9916 31.1284C26.627 30.7795 26.1947 30.493 25.6947 30.269L25.6088 30.2222L25.5775 30.1206C25.5723 30.1102 25.5697 30.0946 25.5697 30.0737C25.5645 30.0529 25.5619 30.0112 25.5619 29.9487C25.5619 29.881 25.5671 29.7977 25.5775 29.6987C25.5931 29.5998 25.627 29.4852 25.6791 29.355C25.5332 29.1883 25.4447 29.0269 25.4135 28.8706C25.377 28.7144 25.3588 28.5868 25.3588 28.4878C25.3588 28.4409 25.3614 28.4045 25.3666 28.3784C25.3718 28.3472 25.3744 28.3263 25.3744 28.3159L25.39 28.2378L25.4525 28.2065C25.6296 28.0711 25.8067 27.9045 25.9838 27.7065C26.1661 27.5034 26.3353 27.2873 26.4916 27.0581C26.6478 26.8289 26.7885 26.5894 26.9135 26.3394C27.0437 26.0894 27.1478 25.8472 27.226 25.6128L27.2963 25.4956C27.739 25.1675 28.101 24.7925 28.3822 24.3706C28.6635 23.9487 28.877 23.4774 29.0228 22.9565L29.0541 22.8628L29.1478 22.8081C29.1582 22.8081 29.1999 22.7977 29.2728 22.7769C29.351 22.756 29.4525 22.7456 29.5775 22.7456C29.765 22.7456 29.9343 22.7664 30.0853 22.8081C30.2416 22.8498 30.3796 22.9045 30.4994 22.9722C30.6192 23.0399 30.726 23.118 30.8197 23.2065C30.9135 23.2951 30.9968 23.3862 31.0697 23.48C31.2103 23.4487 31.3379 23.4331 31.4525 23.4331C31.5306 23.4331 31.5931 23.4357 31.64 23.4409C31.6869 23.4461 31.7155 23.4487 31.726 23.4487L31.8197 23.48L31.8666 23.5815C32.0645 24.0815 32.3119 24.5216 32.6088 24.9019C32.9108 25.2769 33.2676 25.605 33.6791 25.8862L33.7572 25.9644C33.8666 26.1935 33.9942 26.4253 34.14 26.6597C34.2911 26.894 34.4551 27.1206 34.6322 27.3394C34.8093 27.5581 34.9994 27.7638 35.2025 27.9565C35.4108 28.1493 35.6322 28.3159 35.8666 28.4565L35.9291 28.4878L35.9681 28.5737ZM31.5931 27.9019L31.5306 27.8706L31.515 27.8003C31.3796 27.4149 31.2077 27.0633 30.9994 26.7456C30.7911 26.4279 30.5411 26.1414 30.2494 25.8862C30.1556 26.0529 30.0697 26.2274 29.9916 26.4097C29.9135 26.592 29.8457 26.7795 29.7885 26.9722L29.7416 27.0659C29.601 27.1649 29.4603 27.2899 29.3197 27.4409C29.1843 27.5868 29.0541 27.7482 28.9291 27.9253C28.8041 28.1024 28.6843 28.2873 28.5697 28.48C28.4603 28.6675 28.364 28.8524 28.2806 29.0347C28.7181 29.519 29.2207 29.8914 29.7885 30.1519L29.8666 30.2222C29.9655 30.3472 30.0645 30.48 30.1635 30.6206C30.2624 30.7612 30.377 30.8993 30.5072 31.0347C30.6374 30.8836 30.7598 30.73 30.8744 30.5737C30.9942 30.4123 31.1062 30.2508 31.2103 30.0894C31.226 30.0633 31.2364 30.0399 31.2416 30.019C31.252 29.9982 31.2624 29.9748 31.2728 29.9487L31.3119 29.8862L31.3744 29.855C31.8744 29.6102 32.3015 29.2951 32.6556 28.9097C32.4942 28.7065 32.3223 28.519 32.14 28.3472C31.9629 28.1701 31.7806 28.0216 31.5931 27.9019ZM46.3275 28.5737C46.3275 28.5841 46.3301 28.6102 46.3353 28.6519C46.3405 28.6935 46.3431 28.7508 46.3431 28.8237C46.3431 28.9019 46.3353 28.9904 46.3197 29.0894C46.3041 29.1883 46.2702 29.2951 46.2181 29.4097C46.1713 29.5243 46.101 29.6466 46.0072 29.7769C45.9187 29.9019 45.8015 30.0269 45.6556 30.1519C45.4681 30.3029 45.2911 30.4149 45.1244 30.4878C44.9629 30.5607 44.8197 30.605 44.6947 30.6206C44.5437 30.7873 44.4056 30.9644 44.2806 31.1519C44.1556 31.3341 44.0411 31.5295 43.9369 31.7378L43.8744 31.8159C43.6765 31.894 43.4681 32.0269 43.2494 32.2144C43.0358 32.3966 42.8275 32.605 42.6244 32.8394C42.4265 33.0685 42.2442 33.3081 42.0775 33.5581C41.9161 33.8081 41.7911 34.0399 41.7025 34.2534L41.6713 34.3315L41.5853 34.3628C41.5749 34.3732 41.5332 34.3888 41.4603 34.4097C41.3874 34.4305 41.2858 34.4409 41.1556 34.4409C41.0046 34.4409 40.8223 34.4071 40.6088 34.3394C40.4004 34.2716 40.1765 34.131 39.9369 33.9175C39.7858 33.7873 39.6661 33.6571 39.5775 33.5269C39.4942 33.3966 39.4291 33.2743 39.3822 33.1597C39.2207 33.0243 39.0541 32.9019 38.8822 32.7925C38.7155 32.6831 38.5515 32.5711 38.39 32.4565L38.3275 32.4409L38.2885 32.3784C38.0332 31.894 37.7207 31.4774 37.351 31.1284C36.9864 30.7795 36.5541 30.493 36.0541 30.269L35.9681 30.2222L35.9369 30.1206C35.9317 30.1102 35.9291 30.0946 35.9291 30.0737C35.9239 30.0529 35.9213 30.0112 35.9213 29.9487C35.9213 29.881 35.9265 29.7977 35.9369 29.6987C35.9525 29.5998 35.9864 29.4852 36.0385 29.355C35.8926 29.1883 35.8041 29.0269 35.7728 28.8706C35.7364 28.7144 35.7181 28.5868 35.7181 28.4878C35.7181 28.4409 35.7207 28.4045 35.726 28.3784C35.7312 28.3472 35.7338 28.3263 35.7338 28.3159L35.7494 28.2378L35.8119 28.2065C35.989 28.0711 36.1661 27.9045 36.3431 27.7065C36.5254 27.5034 36.6947 27.2873 36.851 27.0581C37.0072 26.8289 37.1478 26.5894 37.2728 26.3394C37.403 26.0894 37.5072 25.8472 37.5853 25.6128L37.6556 25.4956C38.0983 25.1675 38.4603 24.7925 38.7416 24.3706C39.0228 23.9487 39.2364 23.4774 39.3822 22.9565L39.4135 22.8628L39.5072 22.8081C39.5176 22.8081 39.5593 22.7977 39.6322 22.7769C39.7103 22.756 39.8119 22.7456 39.9369 22.7456C40.1244 22.7456 40.2937 22.7664 40.4447 22.8081C40.601 22.8498 40.739 22.9045 40.8588 22.9722C40.9786 23.0399 41.0853 23.118 41.1791 23.2065C41.2728 23.2951 41.3562 23.3862 41.4291 23.48C41.5697 23.4487 41.6973 23.4331 41.8119 23.4331C41.89 23.4331 41.9525 23.4357 41.9994 23.4409C42.0463 23.4461 42.0749 23.4487 42.0853 23.4487L42.1791 23.48L42.226 23.5815C42.4239 24.0815 42.6713 24.5216 42.9681 24.9019C43.2702 25.2769 43.627 25.605 44.0385 25.8862L44.1166 25.9644C44.226 26.1935 44.3536 26.4253 44.4994 26.6597C44.6504 26.894 44.8145 27.1206 44.9916 27.3394C45.1687 27.5581 45.3588 27.7638 45.5619 27.9565C45.7702 28.1493 45.9916 28.3159 46.226 28.4565L46.2885 28.4878L46.3275 28.5737ZM41.9525 27.9019L41.89 27.8706L41.8744 27.8003C41.739 27.4149 41.5671 27.0633 41.3588 26.7456C41.1504 26.4279 40.9004 26.1414 40.6088 25.8862C40.515 26.0529 40.4291 26.2274 40.351 26.4097C40.2728 26.592 40.2051 26.7795 40.1478 26.9722L40.101 27.0659C39.9603 27.1649 39.8197 27.2899 39.6791 27.4409C39.5437 27.5868 39.4135 27.7482 39.2885 27.9253C39.1635 28.1024 39.0437 28.2873 38.9291 28.48C38.8197 28.6675 38.7233 28.8524 38.64 29.0347C39.0775 29.519 39.5801 29.8914 40.1478 30.1519L40.226 30.2222C40.3249 30.3472 40.4239 30.48 40.5228 30.6206C40.6218 30.7612 40.7364 30.8993 40.8666 31.0347C40.9968 30.8836 41.1192 30.73 41.2338 30.5737C41.3536 30.4123 41.4655 30.2508 41.5697 30.0894C41.5853 30.0633 41.5957 30.0399 41.601 30.019C41.6114 29.9982 41.6218 29.9748 41.6322 29.9487L41.6713 29.8862L41.7338 29.855C42.2338 29.6102 42.6608 29.2951 43.015 28.9097C42.8536 28.7065 42.6817 28.519 42.4994 28.3472C42.3223 28.1701 42.14 28.0216 41.9525 27.9019Z" fill="#D9D9D9"/>
</svg>
