<svg width="47" height="37" viewBox="0 0 47 37" fill="none" xmlns="http://www.w3.org/2000/svg">
<path d="M4.62647 4.50987C3.41464 5.98747 2.79759 8.08103 2.56245 9.34309C2.35534 9.43456 2.2132 9.46517 2.06924 9.50857C1.73317 9.62633 1.02463 9.96392 0.521774 10.6052C0.488924 10.7745 0.476762 10.9781 0.607687 11.0934C1.2005 11.6155 2.78439 12.0845 3.20231 13.0326C3.45449 13.6047 3.55878 14.1631 3.70668 14.5477C4.09733 15.5635 4.96052 16.6973 4.88471 17.4289C4.83418 17.9166 4.82068 18.4126 4.56329 18.5726C3.88508 18.994 2.47041 19.074 1.73317 19.6338C1.59874 19.7359 1.51719 19.8624 1.39558 20.1423C0.824498 21.4562 0.479567 22.4914 0.9281 23.359C1.19747 23.88 1.88657 24.7927 3.19271 25.0424C5.38099 25.4609 7.08379 25.0916 8.71397 24.8868C10.5803 24.6523 15.1509 24.0014 14.6891 25.1091C14.5698 25.3952 14.0854 25.5683 13.981 25.8839C13.8976 26.1361 13.8831 26.4323 14.0851 26.7617C14.405 27.2833 14.6232 27.8866 15.0317 27.9211C15.8231 27.9878 16.6917 28.2373 18.4506 28.5108C18.9868 28.5942 20.6884 29.4757 23.275 29.9274C24.5136 30.1437 25.3861 30.275 26.611 30.0244C29.3339 29.4675 30.4293 29.2095 31.8942 28.2202C33.1425 27.3773 34.815 26.5729 34.6515 25.7616C34.5838 25.4255 34.2806 25.0212 32.6189 23.3944C31.0037 21.813 29.9094 20.7566 29.6806 20.4045C29.4623 20.0685 29.1755 19.5066 29.4138 19.0062C29.5654 18.6878 30.2171 18.047 30.8844 16.6905C32.16 14.0979 31.4682 11.7856 32.5669 11.2066C33.1394 10.9049 33.792 10.6951 34.133 10.1767C34.5869 9.48684 34.9477 8.70485 34.8704 7.93482C34.786 7.09438 34.5432 6.14051 33.7848 4.9637C32.6573 3.21408 31.7302 1.54563 30.7712 1.04752C29.9647 0.628558 29.2119 0.418188 28.583 0.529504C28.0119 0.630581 26.8815 1.83852 25.0256 2.67282C23.799 3.22419 22.8958 3.14848 22.0474 3.39399C21.8099 3.46272 21.4626 3.57827 21.4096 4.00651C21.2762 5.08398 21.823 7.53684 20.6338 8.73686C19.5801 9.80018 17.9299 10.8625 17.0285 11.0414C16.6924 11.1081 16.3563 11.081 16.1021 10.8534C15.7827 10.5674 15.3788 10.0226 14.7174 9.33321C13.927 8.50944 12.2818 6.91322 9.99409 5.37205C8.5012 4.36634 7.49135 3.86152 6.66516 3.88118C5.94297 3.89836 5.13695 3.88742 4.62647 4.50987Z" fill="#375C3A"/>
<path d="M2.47607 9.8952C2.6095 8.79144 3.21393 6.2322 4.62647 4.50987C5.13695 3.88742 5.94297 3.89836 6.66516 3.88118C7.49135 3.86152 8.5012 4.36634 9.99409 5.37205C12.2818 6.91322 13.927 8.50944 14.7174 9.33321C15.3788 10.0226 15.7827 10.5674 16.1021 10.8534C16.3563 11.081 16.6924 11.1081 17.0285 11.0414C17.9299 10.8625 19.5801 9.80018 20.6338 8.73686C21.823 7.53684 21.2762 5.08398 21.4096 4.00651C21.4626 3.57827 21.8099 3.46272 22.0474 3.39399C22.8958 3.14848 23.799 3.22419 25.0256 2.67282C26.8815 1.83852 28.0119 0.630581 28.583 0.529504C29.2119 0.418188 29.9647 0.628558 30.7712 1.04752C31.7302 1.54563 32.6573 3.21408 33.7848 4.9637C34.5432 6.14051 34.786 7.09438 34.8704 7.93482C34.9477 8.70485 34.5869 9.48684 34.133 10.1767C33.792 10.6951 33.1394 10.9049 32.5669 11.2067C31.4682 11.7856 32.16 14.0979 30.8844 16.6905C30.2171 18.047 29.5654 18.6878 29.4138 19.0062C29.1755 19.5066 29.4623 20.0685 29.6806 20.4045C29.9094 20.7566 31.0037 21.813 32.6189 23.3944C34.2806 25.0212 34.5838 25.4255 34.6515 25.7616C34.815 26.5729 33.1425 27.3773 31.8942 28.2202C30.4293 29.2095 29.3339 29.4675 26.611 30.0244C25.3861 30.275 24.5136 30.1437 23.275 29.9274C20.6883 29.4757 18.9868 28.5942 18.4506 28.5108C16.6917 28.2373 15.8231 27.9878 15.0317 27.9211C14.6232 27.8866 14.405 27.2833 14.0851 26.7617C13.8831 26.4323 13.8976 26.1361 13.981 25.8839C14.0854 25.5683 14.5698 25.3952 14.6891 25.1091C15.1509 24.0014 10.5803 24.6523 8.71397 24.8868C7.08379 25.0916 5.38099 25.4609 3.19271 25.0424C1.88657 24.7927 1.19747 23.88 0.9281 23.359C0.479567 22.4914 0.824498 21.4562 1.39558 20.1423C1.51719 19.8624 1.59874 19.7359 1.73317 19.6338C2.47041 19.074 3.88508 18.994 4.56329 18.5726C4.82068 18.4126 4.83418 17.9166 4.88471 17.4289C4.96052 16.6973 4.09733 15.5635 3.70668 14.5477C3.55878 14.1631 3.45449 13.6047 3.20231 13.0326C2.7844 12.0845 1.2005 11.6155 0.607687 11.0934C0.476762 10.9781 0.488924 10.7745 0.521774 10.6052C1.02463 9.96392 1.73317 9.62633 2.06924 9.50857C2.23855 9.45753 2.40532 9.42418 2.67823 9.28874" stroke="#393939" stroke-linecap="round"/>
<path d="M25.4203 23.7426C25.4536 23.3424 25.487 22.9421 25.5042 22.2356C25.5214 21.5291 25.5214 20.5284 25.5214 19.4974" stroke="#393939" stroke-linecap="round"/>
<path d="M9.85461 11.5125C10.3236 11.8137 10.9321 12.4868 11.2343 13.2944C11.8418 14.4416 12.1106 15.1148 12.6322 16.1746C12.7514 16.4298 12.8182 16.5966 12.8869 16.7684" stroke="#393939" stroke-linecap="round"/>
<path d="M21.8826 18.3855C22.3193 17.8812 23.0571 16.3438 23.331 14.9692C23.4911 14.1662 23.6009 13.3702 23.7687 12.3751C23.8844 11.6886 24.0376 11.1445 24.4752 10.0175C24.7436 9.32641 25.2161 8.75303 25.6376 8.26281C25.8893 8.01113 26.1602 7.77361 26.4123 7.57196C26.5311 7.47037 26.6312 7.37031 26.8353 7.26721" stroke="#393939" stroke-linecap="round"/>
<path d="M12.2805 19.8007C12.6474 20.0352 14.6598 20.306 16.4028 21.1783C17.8343 21.8947 19.7217 23.2352 20.3645 23.6567C20.6334 23.9084 20.8709 24.2793 21.0559 24.6998C21.1408 24.8868 21.2075 25.0202 21.4784 25.4609" stroke="#393939" stroke-linecap="round"/>
<path d="M16.5945 27.3583C16.5945 27.5979 16.5633 27.8088 16.5008 27.9911C16.4435 28.1682 16.3784 28.3192 16.3055 28.4442C16.2326 28.564 16.1649 28.6552 16.1024 28.7177C16.0399 28.7802 16.006 28.814 16.0008 28.8192L15.9227 28.8817L15.8133 28.8505C15.5477 28.7671 15.3263 28.7098 15.1492 28.6786C14.9721 28.6421 14.8081 28.6239 14.657 28.6239C14.6154 28.6239 14.5789 28.6239 14.5477 28.6239C14.5164 28.6239 14.4852 28.6291 14.4539 28.6395V28.8817C14.4539 29.1057 14.4617 29.3192 14.4774 29.5223C14.4982 29.7255 14.532 29.9156 14.5789 30.0927L14.5945 30.2098L14.5477 30.288C14.5425 30.2932 14.5138 30.3244 14.4617 30.3817C14.4149 30.439 14.3393 30.5015 14.2352 30.5692C14.131 30.6369 14.0008 30.6994 13.8445 30.7567C13.6883 30.8088 13.5008 30.8348 13.282 30.8348C13.0633 30.8348 12.8732 30.801 12.7117 30.7333C12.5555 30.6656 12.4227 30.5927 12.3133 30.5145C12.2091 30.4364 12.1284 30.3635 12.0711 30.2958C12.019 30.2281 11.9904 30.1942 11.9852 30.1942L11.9227 30.0927L11.9539 29.9989C12.0112 29.8062 12.0581 29.5953 12.0945 29.3661C12.1362 29.1317 12.1701 28.8947 12.1961 28.6552C11.9982 28.6656 11.7977 28.6942 11.5945 28.7411C11.3914 28.788 11.1649 28.8557 10.9149 28.9442H10.7742C10.7638 28.939 10.7143 28.913 10.6258 28.8661C10.5425 28.814 10.4487 28.7281 10.3445 28.6083C10.2456 28.4885 10.1544 28.327 10.0711 28.1239C9.99298 27.9208 9.95392 27.6656 9.95392 27.3583C9.95392 27.077 9.99298 26.8427 10.0711 26.6552C10.1492 26.4677 10.2352 26.3192 10.3289 26.2098C10.4279 26.0953 10.5164 26.0171 10.5945 25.9755C10.6779 25.9286 10.7248 25.9052 10.7352 25.9052L10.8055 25.8739L10.8836 25.8895C11.1076 25.9781 11.3185 26.0406 11.5164 26.077C11.7195 26.1083 11.9201 26.1239 12.118 26.1239H12.2117C12.1961 25.8999 12.1727 25.6838 12.1414 25.4755C12.1102 25.2671 12.0685 25.0796 12.0164 24.913V24.7645C12.0216 24.7593 12.0477 24.7177 12.0945 24.6395C12.1414 24.5562 12.2169 24.4677 12.3211 24.3739C12.4305 24.2802 12.5737 24.1942 12.7508 24.1161C12.9331 24.038 13.157 23.9989 13.4227 23.9989C13.6935 23.9989 13.9175 24.0432 14.0945 24.1317C14.2716 24.215 14.4123 24.3088 14.5164 24.413C14.6206 24.5171 14.6909 24.6135 14.7274 24.702C14.769 24.7854 14.7899 24.8296 14.7899 24.8348L14.8211 24.913L14.7899 24.9755C14.7221 25.1369 14.6649 25.3244 14.618 25.538C14.5711 25.7515 14.532 25.9755 14.5008 26.2098H14.6727C14.8498 26.2098 15.0268 26.1916 15.2039 26.1552C15.381 26.1135 15.5841 26.0562 15.8133 25.9833L15.907 25.952L15.9852 25.9989C15.9904 26.0041 16.0242 26.0328 16.0867 26.0848C16.1492 26.1369 16.2169 26.2177 16.2899 26.327C16.3628 26.4364 16.4279 26.577 16.4852 26.7489C16.5477 26.9208 16.5841 27.1239 16.5945 27.3583ZM24.6414 30.8348L24.6102 30.913C24.6102 30.9182 24.6024 30.939 24.5867 30.9755C24.5711 31.0119 24.5425 31.0588 24.5008 31.1161C24.4643 31.1682 24.4149 31.2281 24.3524 31.2958C24.2899 31.3583 24.2117 31.4156 24.118 31.4677C24.0971 31.6656 24.0555 31.8374 23.993 31.9833C23.9357 32.1291 23.8732 32.2515 23.8055 32.3505C23.743 32.4494 23.6831 32.5275 23.6258 32.5848C23.5737 32.6369 23.5451 32.6656 23.5399 32.6708L23.4617 32.7333L23.3602 32.702C23.0945 32.6239 22.8524 32.564 22.6336 32.5223C22.4201 32.4807 22.2143 32.4598 22.0164 32.4598C21.8341 32.4598 21.6466 32.4807 21.4539 32.5223C21.2664 32.5588 21.0555 32.6135 20.8211 32.6864H20.7039C20.4123 32.6343 20.1649 32.5848 19.9617 32.538C19.7586 32.4859 19.5581 32.4598 19.3602 32.4598C19.1935 32.4598 19.0216 32.4781 18.8445 32.5145C18.6675 32.551 18.4617 32.6135 18.2274 32.702L18.1492 32.7177L18.0789 32.6864C18.0685 32.6864 18.0216 32.663 17.9383 32.6161C17.855 32.5692 17.7612 32.4911 17.657 32.3817C17.5581 32.2671 17.4669 32.1135 17.3836 31.9208C17.3055 31.7281 17.2664 31.4833 17.2664 31.1864C17.2664 30.9364 17.3055 30.7229 17.3836 30.5458C17.4617 30.3635 17.5477 30.2124 17.6414 30.0927C17.7404 29.9729 17.8289 29.8843 17.907 29.827C17.9904 29.7645 18.0373 29.7307 18.0477 29.7255H18.1961C18.4305 29.814 18.6336 29.8765 18.8055 29.913C18.9826 29.9494 19.1623 29.9677 19.3445 29.9677C19.4956 29.9677 19.6753 29.9598 19.8836 29.9442C20.0919 29.9234 20.3133 29.8713 20.5477 29.788L20.6102 29.7567L20.6727 29.788C20.9331 29.8869 21.1675 29.9598 21.3758 30.0067C21.5841 30.0536 21.7977 30.077 22.0164 30.077C22.0581 29.8583 22.0893 29.6265 22.1102 29.3817C22.1362 29.1317 22.1492 28.8791 22.1492 28.6239C22.1492 28.551 22.1492 28.4781 22.1492 28.4052C22.1492 28.327 22.144 28.2515 22.1336 28.1786H22.0477C21.9123 28.1786 21.769 28.1916 21.618 28.2177C21.4669 28.2385 21.2846 28.2775 21.0711 28.3348H20.9617C20.7951 28.3036 20.6492 28.2723 20.5242 28.2411C20.3992 28.2098 20.2846 28.1812 20.1805 28.1552C20.0815 28.1239 19.9878 28.1005 19.8992 28.0848C19.8159 28.0692 19.7274 28.0614 19.6336 28.0614C19.5138 28.0614 19.381 28.077 19.2352 28.1083C19.0945 28.1395 18.9227 28.1838 18.7195 28.2411L18.6414 28.2723L18.5633 28.2411C18.5581 28.2359 18.5164 28.2124 18.4383 28.1708C18.3654 28.1239 18.282 28.0484 18.1883 27.9442C18.0998 27.84 18.0164 27.702 17.9383 27.5302C17.8654 27.3583 17.8289 27.1421 17.8289 26.8817C17.8289 26.84 17.8289 26.801 17.8289 26.7645C17.8289 26.7229 17.8341 26.6864 17.8445 26.6552C17.7143 26.551 17.6232 26.4468 17.5711 26.3427C17.519 26.2385 17.493 26.1786 17.493 26.163L17.4617 26.0927L17.493 26.0145C17.5815 25.7593 17.6492 25.4442 17.6961 25.0692C17.7482 24.6942 17.7742 24.3114 17.7742 23.9208C17.7742 23.6604 17.7612 23.4104 17.7352 23.1708C17.7143 22.9312 17.6753 22.7072 17.618 22.4989L17.5867 22.3973L17.6492 22.3192C17.6544 22.314 17.6805 22.2828 17.7274 22.2255C17.7794 22.163 17.8576 22.0979 17.9617 22.0302C18.0659 21.9572 18.1961 21.8921 18.3524 21.8348C18.5086 21.7723 18.6961 21.7411 18.9149 21.7411C19.0919 21.7411 19.2482 21.7645 19.3836 21.8114C19.519 21.8531 19.6388 21.9052 19.743 21.9677C19.8055 21.9677 19.8836 21.965 19.9774 21.9598C20.0711 21.9546 20.1727 21.9442 20.282 21.9286C20.3914 21.9078 20.5008 21.8791 20.6102 21.8427C20.7195 21.8062 20.8211 21.7567 20.9149 21.6942H21.0399C21.269 21.7515 21.4669 21.7958 21.6336 21.827C21.8003 21.8583 21.9539 21.8739 22.0945 21.8739C22.2925 21.8739 22.4878 21.8453 22.6805 21.788C22.8784 21.7307 23.1206 21.6473 23.407 21.538L23.5086 21.4911L23.6024 21.538C23.6076 21.5432 23.6414 21.5692 23.7039 21.6161C23.7664 21.663 23.8367 21.7359 23.9149 21.8348C23.993 21.9286 24.0685 22.0536 24.1414 22.2098C24.2143 22.3661 24.2638 22.5562 24.2899 22.7802C24.2899 22.8218 24.2925 22.8609 24.2977 22.8973C24.3029 22.9286 24.3055 22.9598 24.3055 22.9911C24.3055 23.1838 24.2794 23.3557 24.2274 23.5067C24.1805 23.6525 24.1284 23.7775 24.0711 23.8817C24.0138 23.9859 23.9565 24.0692 23.8992 24.1317C23.8471 24.189 23.8185 24.2203 23.8133 24.2255L23.7274 24.288L23.6336 24.2723C23.4096 24.2255 23.2169 24.189 23.0555 24.163C22.894 24.1369 22.7456 24.1239 22.6102 24.1239C22.4279 24.1239 22.2482 24.1499 22.0711 24.202C21.894 24.2489 21.6727 24.3244 21.407 24.4286L21.3133 24.4442C21.0789 24.3973 20.8706 24.3687 20.6883 24.3583C20.5112 24.3427 20.3576 24.3348 20.2274 24.3348C20.1961 24.3348 20.1623 24.3348 20.1258 24.3348C20.0945 24.3348 20.0633 24.34 20.032 24.3505C20.032 24.84 20.0763 25.2828 20.1649 25.6786C20.269 25.6786 20.3836 25.6708 20.5086 25.6552C20.6388 25.6395 20.7794 25.6109 20.9305 25.5692H21.0555C21.3367 25.6786 21.5737 25.7619 21.7664 25.8192C21.9643 25.8765 22.1544 25.9052 22.3367 25.9052C22.4878 25.9052 22.6466 25.8895 22.8133 25.8583C22.9852 25.827 23.1883 25.7775 23.4227 25.7098L23.5242 25.6942L23.6024 25.7567C23.6076 25.7619 23.631 25.7854 23.6727 25.827C23.7143 25.8635 23.7612 25.9208 23.8133 25.9989C23.8706 26.077 23.9253 26.176 23.9774 26.2958C24.0294 26.4104 24.0685 26.5458 24.0945 26.702C24.2404 26.7906 24.3524 26.8765 24.4305 26.9598C24.5086 27.0432 24.5529 27.09 24.5633 27.1005L24.6258 27.1864L24.5945 27.2802C24.5216 27.5302 24.4669 27.8036 24.4305 28.1005C24.3992 28.3973 24.3836 28.6942 24.3836 28.9911C24.3836 29.3192 24.4044 29.6369 24.4461 29.9442C24.4878 30.2515 24.5477 30.5249 24.6258 30.7645L24.6414 30.8348ZM35.4774 26.8661C35.4774 26.8765 35.48 26.9025 35.4852 26.9442C35.4904 26.9859 35.493 27.0432 35.493 27.1161C35.493 27.1942 35.4852 27.2828 35.4695 27.3817C35.4539 27.4807 35.4201 27.5874 35.368 27.702C35.3211 27.8166 35.2508 27.939 35.157 28.0692C35.0685 28.1942 34.9513 28.3192 34.8055 28.4442C34.618 28.5953 34.4409 28.7072 34.2742 28.7802C34.1128 28.8531 33.9695 28.8973 33.8445 28.913C33.6935 29.0796 33.5555 29.2567 33.4305 29.4442C33.3055 29.6265 33.1909 29.8218 33.0867 30.0302L33.0242 30.1083C32.8263 30.1864 32.618 30.3192 32.3992 30.5067C32.1857 30.689 31.9774 30.8973 31.7742 31.1317C31.5763 31.3609 31.394 31.6005 31.2274 31.8505C31.0659 32.1005 30.9409 32.3322 30.8524 32.5458L30.8211 32.6239L30.7352 32.6552C30.7248 32.6656 30.6831 32.6812 30.6102 32.702C30.5373 32.7229 30.4357 32.7333 30.3055 32.7333C30.1544 32.7333 29.9721 32.6994 29.7586 32.6317C29.5503 32.564 29.3263 32.4234 29.0867 32.2098C28.9357 32.0796 28.8159 31.9494 28.7274 31.8192C28.644 31.689 28.5789 31.5666 28.532 31.452C28.3706 31.3166 28.2039 31.1942 28.032 31.0848C27.8654 30.9755 27.7013 30.8635 27.5399 30.7489L27.4774 30.7333L27.4383 30.6708C27.1831 30.1864 26.8706 29.7697 26.5008 29.4208C26.1362 29.0718 25.7039 28.7854 25.2039 28.5614L25.118 28.5145L25.0867 28.413C25.0815 28.4025 25.0789 28.3869 25.0789 28.3661C25.0737 28.3453 25.0711 28.3036 25.0711 28.2411C25.0711 28.1734 25.0763 28.09 25.0867 27.9911C25.1024 27.8921 25.1362 27.7775 25.1883 27.6473C25.0425 27.4807 24.9539 27.3192 24.9227 27.163C24.8862 27.0067 24.868 26.8791 24.868 26.7802C24.868 26.7333 24.8706 26.6968 24.8758 26.6708C24.881 26.6395 24.8836 26.6187 24.8836 26.6083L24.8992 26.5302L24.9617 26.4989C25.1388 26.3635 25.3159 26.1968 25.493 25.9989C25.6753 25.7958 25.8445 25.5796 26.0008 25.3505C26.157 25.1213 26.2977 24.8817 26.4227 24.6317C26.5529 24.3817 26.657 24.1395 26.7352 23.9052L26.8055 23.788C27.2482 23.4598 27.6102 23.0848 27.8914 22.663C28.1727 22.2411 28.3862 21.7697 28.532 21.2489L28.5633 21.1552L28.657 21.1005C28.6675 21.1005 28.7091 21.09 28.782 21.0692C28.8602 21.0484 28.9617 21.038 29.0867 21.038C29.2742 21.038 29.4435 21.0588 29.5945 21.1005C29.7508 21.1421 29.8888 21.1968 30.0086 21.2645C30.1284 21.3322 30.2352 21.4104 30.3289 21.4989C30.4227 21.5874 30.506 21.6786 30.5789 21.7723C30.7195 21.7411 30.8471 21.7255 30.9617 21.7255C31.0399 21.7255 31.1024 21.7281 31.1492 21.7333C31.1961 21.7385 31.2248 21.7411 31.2352 21.7411L31.3289 21.7723L31.3758 21.8739C31.5737 22.3739 31.8211 22.814 32.118 23.1942C32.4201 23.5692 32.7768 23.8973 33.1883 24.1786L33.2664 24.2567C33.3758 24.4859 33.5034 24.7177 33.6492 24.952C33.8003 25.1864 33.9643 25.413 34.1414 25.6317C34.3185 25.8505 34.5086 26.0562 34.7117 26.2489C34.9201 26.4416 35.1414 26.6083 35.3758 26.7489L35.4383 26.7802L35.4774 26.8661ZM31.1024 26.1942L31.0399 26.163L31.0242 26.0927C30.8888 25.7072 30.7169 25.3557 30.5086 25.038C30.3003 24.7203 30.0503 24.4338 29.7586 24.1786C29.6649 24.3453 29.5789 24.5197 29.5008 24.702C29.4227 24.8843 29.355 25.0718 29.2977 25.2645L29.2508 25.3583C29.1102 25.4572 28.9695 25.5822 28.8289 25.7333C28.6935 25.8791 28.5633 26.0406 28.4383 26.2177C28.3133 26.3947 28.1935 26.5796 28.0789 26.7723C27.9695 26.9598 27.8732 27.1447 27.7899 27.327C28.2274 27.8114 28.73 28.1838 29.2977 28.4442L29.3758 28.5145C29.4748 28.6395 29.5737 28.7723 29.6727 28.913C29.7716 29.0536 29.8862 29.1916 30.0164 29.327C30.1466 29.176 30.269 29.0223 30.3836 28.8661C30.5034 28.7046 30.6154 28.5432 30.7195 28.3817C30.7352 28.3557 30.7456 28.3322 30.7508 28.3114C30.7612 28.2906 30.7716 28.2671 30.782 28.2411L30.8211 28.1786L30.8836 28.1473C31.3836 27.9025 31.8107 27.5874 32.1649 27.202C32.0034 26.9989 31.8315 26.8114 31.6492 26.6395C31.4721 26.4624 31.2899 26.314 31.1024 26.1942ZM45.8367 26.8661C45.8367 26.8765 45.8393 26.9025 45.8445 26.9442C45.8498 26.9859 45.8524 27.0432 45.8524 27.1161C45.8524 27.1942 45.8445 27.2828 45.8289 27.3817C45.8133 27.4807 45.7794 27.5874 45.7274 27.702C45.6805 27.8166 45.6102 27.939 45.5164 28.0692C45.4279 28.1942 45.3107 28.3192 45.1649 28.4442C44.9774 28.5953 44.8003 28.7072 44.6336 28.7802C44.4721 28.8531 44.3289 28.8973 44.2039 28.913C44.0529 29.0796 43.9149 29.2567 43.7899 29.4442C43.6649 29.6265 43.5503 29.8218 43.4461 30.0302L43.3836 30.1083C43.1857 30.1864 42.9774 30.3192 42.7586 30.5067C42.5451 30.689 42.3367 30.8973 42.1336 31.1317C41.9357 31.3609 41.7534 31.6005 41.5867 31.8505C41.4253 32.1005 41.3003 32.3322 41.2117 32.5458L41.1805 32.6239L41.0945 32.6552C41.0841 32.6656 41.0425 32.6812 40.9695 32.702C40.8966 32.7229 40.7951 32.7333 40.6649 32.7333C40.5138 32.7333 40.3315 32.6994 40.118 32.6317C39.9096 32.564 39.6857 32.4234 39.4461 32.2098C39.2951 32.0796 39.1753 31.9494 39.0867 31.8192C39.0034 31.689 38.9383 31.5666 38.8914 31.452C38.73 31.3166 38.5633 31.1942 38.3914 31.0848C38.2248 30.9755 38.0607 30.8635 37.8992 30.7489L37.8367 30.7333L37.7977 30.6708C37.5425 30.1864 37.23 29.7697 36.8602 29.4208C36.4956 29.0718 36.0633 28.7854 35.5633 28.5614L35.4774 28.5145L35.4461 28.413C35.4409 28.4025 35.4383 28.3869 35.4383 28.3661C35.4331 28.3453 35.4305 28.3036 35.4305 28.2411C35.4305 28.1734 35.4357 28.09 35.4461 27.9911C35.4617 27.8921 35.4956 27.7775 35.5477 27.6473C35.4018 27.4807 35.3133 27.3192 35.282 27.163C35.2456 27.0067 35.2274 26.8791 35.2274 26.7802C35.2274 26.7333 35.23 26.6968 35.2352 26.6708C35.2404 26.6395 35.243 26.6187 35.243 26.6083L35.2586 26.5302L35.3211 26.4989C35.4982 26.3635 35.6753 26.1968 35.8524 25.9989C36.0346 25.7958 36.2039 25.5796 36.3602 25.3505C36.5164 25.1213 36.657 24.8817 36.782 24.6317C36.9123 24.3817 37.0164 24.1395 37.0945 23.9052L37.1649 23.788C37.6076 23.4598 37.9695 23.0848 38.2508 22.663C38.532 22.2411 38.7456 21.7697 38.8914 21.2489L38.9227 21.1552L39.0164 21.1005C39.0268 21.1005 39.0685 21.09 39.1414 21.0692C39.2195 21.0484 39.3211 21.038 39.4461 21.038C39.6336 21.038 39.8029 21.0588 39.9539 21.1005C40.1102 21.1421 40.2482 21.1968 40.368 21.2645C40.4878 21.3322 40.5945 21.4104 40.6883 21.4989C40.782 21.5874 40.8654 21.6786 40.9383 21.7723C41.0789 21.7411 41.2065 21.7255 41.3211 21.7255C41.3992 21.7255 41.4617 21.7281 41.5086 21.7333C41.5555 21.7385 41.5841 21.7411 41.5945 21.7411L41.6883 21.7723L41.7352 21.8739C41.9331 22.3739 42.1805 22.814 42.4774 23.1942C42.7794 23.5692 43.1362 23.8973 43.5477 24.1786L43.6258 24.2567C43.7352 24.4859 43.8628 24.7177 44.0086 24.952C44.1596 25.1864 44.3237 25.413 44.5008 25.6317C44.6779 25.8505 44.868 26.0562 45.0711 26.2489C45.2794 26.4416 45.5008 26.6083 45.7352 26.7489L45.7977 26.7802L45.8367 26.8661ZM41.4617 26.1942L41.3992 26.163L41.3836 26.0927C41.2482 25.7072 41.0763 25.3557 40.868 25.038C40.6596 24.7203 40.4096 24.4338 40.118 24.1786C40.0242 24.3453 39.9383 24.5197 39.8602 24.702C39.782 24.8843 39.7143 25.0718 39.657 25.2645L39.6102 25.3583C39.4695 25.4572 39.3289 25.5822 39.1883 25.7333C39.0529 25.8791 38.9227 26.0406 38.7977 26.2177C38.6727 26.3947 38.5529 26.5796 38.4383 26.7723C38.3289 26.9598 38.2326 27.1447 38.1492 27.327C38.5867 27.8114 39.0893 28.1838 39.657 28.4442L39.7352 28.5145C39.8341 28.6395 39.9331 28.7723 40.032 28.913C40.131 29.0536 40.2456 29.1916 40.3758 29.327C40.506 29.176 40.6284 29.0223 40.743 28.8661C40.8628 28.7046 40.9748 28.5432 41.0789 28.3817C41.0945 28.3557 41.105 28.3322 41.1102 28.3114C41.1206 28.2906 41.131 28.2671 41.1414 28.2411L41.1805 28.1786L41.243 28.1473C41.743 27.9025 42.1701 27.5874 42.5242 27.202C42.3628 26.9989 42.1909 26.8114 42.0086 26.6395C41.8315 26.4624 41.6492 26.314 41.4617 26.1942Z" fill="#D9D9D9"/>
</svg>
