<svg width="47" height="35" viewBox="0 0 47 35" fill="none" xmlns="http://www.w3.org/2000/svg">
<path d="M23.4578 9.58121C23.0116 9.89441 22.6553 10.3333 22.5008 10.668C22.3463 11.0028 22.4072 13.7588 22.4072 13.7588H23.5426V11.7094C23.6358 10.9296 24.1609 10.6112 25.1056 10.0451C26.1752 9.48156 26.7717 8.91286 26.849 8.18872C26.9263 7.46459 26.9706 4.71722 26.849 3.79209C26.7274 2.86696 26.1573 2.00278 25.434 1.18235C24.3857 0.300431 23.7069 0.141291 22.3733 0.309116C20.4505 0.781828 19.7653 1.57855 19.1197 3.77343C18.3468 4.74175 18.1465 5.28445 19.1197 6.25279C19.5397 6.47023 19.7944 6.48994 20.2999 6.25279C21.1839 5.39937 21.1219 4.8289 20.3002 3.7032C22.0856 -0.220776 25.4277 1.85863 25.6587 3.70548C25.8898 5.55234 25.7301 8.07146 25.6587 8.35852C25.5874 8.64559 23.904 9.26801 23.4578 9.58121Z" fill="#E7E7E7"/>
<path d="M22.4051 13.8267L22.4072 13.7588M22.4072 13.7588C22.4072 13.7588 22.3463 11.0028 22.5008 10.668C22.6553 10.3333 23.0116 9.89441 23.4578 9.58121C23.904 9.26801 25.5874 8.64559 25.6587 8.35852C25.7301 8.07146 25.8898 5.55234 25.6587 3.70548C25.4277 1.85863 22.0856 -0.220776 20.3002 3.7032C21.1219 4.8289 21.1839 5.39937 20.2999 6.25279C19.7944 6.48994 19.5397 6.47023 19.1197 6.25279C18.1465 5.28445 18.3468 4.74175 19.1197 3.77343C19.7653 1.57855 20.4505 0.781828 22.3733 0.309116C23.7069 0.141291 24.3857 0.300431 25.434 1.18235C26.1573 2.00278 26.7274 2.86696 26.849 3.79209C26.9706 4.71722 26.9263 7.46459 26.849 8.18872C26.7717 8.91286 26.1752 9.48156 25.1056 10.0451C24.1609 10.6112 23.6358 10.9296 23.5426 11.7094V13.7588H22.4072Z" stroke="#E7E7E7" stroke-width="0.5"/>
<path d="M21.126 15.0835C22.2805 14.2261 23.8617 14.23 25.0127 15.0923L42.1182 27.9067C44.6243 29.7842 43.2866 33.772 40.1553 33.7583L5.99707 33.6089C2.87356 33.5951 1.5657 29.6121 4.07324 27.7495L21.126 15.0835Z" stroke="#C28433" stroke-width="2.5"/>
</svg>
