<svg width="54" height="54" viewBox="0 0 54 54" fill="none" xmlns="http://www.w3.org/2000/svg">
<path d="M22.2988 2.97751C21.5501 3.89045 21.1688 5.18396 21.0236 5.96373C20.8956 6.02024 20.8078 6.03916 20.7188 6.06597C20.5112 6.13873 20.0734 6.34731 19.7627 6.74356C19.7424 6.84816 19.7349 6.97395 19.8158 7.04519C20.1821 7.36774 21.1607 7.65753 21.4189 8.24329C21.5747 8.59676 21.6391 8.94181 21.7305 9.17942C21.9719 9.80704 22.5052 10.5076 22.4584 10.9596C22.4272 11.2609 22.4188 11.5673 22.2598 11.6662C21.8407 11.9266 20.9667 11.976 20.5112 12.3219C20.4281 12.385 20.3777 12.4631 20.3026 12.636C19.9498 13.4479 19.7366 14.0874 20.0138 14.6235C20.1802 14.9454 20.606 15.5093 21.413 15.6636C22.765 15.9221 23.8171 15.694 24.8243 15.5674C25.9774 15.4225 28.8014 15.0204 28.516 15.7048C28.4423 15.8815 28.143 15.9885 28.0786 16.1835C28.027 16.3393 28.0181 16.5224 28.1429 16.7259C28.3405 17.0481 28.4753 17.4209 28.7277 17.4422C29.2167 17.4834 29.7534 17.6376 30.8401 17.8066C31.1714 17.8581 32.2227 18.4027 33.8208 18.6818C34.5862 18.8154 35.1252 18.8965 35.882 18.7418C37.5644 18.3977 38.2412 18.2382 39.1463 17.627C39.9175 17.1062 40.9509 16.6092 40.8499 16.1079C40.8081 15.9003 40.6207 15.6505 39.594 14.6454C38.5961 13.6683 37.9199 13.0156 37.7786 12.7981C37.6437 12.5904 37.4665 12.2433 37.6137 11.9341C37.7074 11.7374 38.11 11.3415 38.5224 10.5034C39.3105 8.90151 38.883 7.47282 39.5619 7.11513C39.9156 6.92872 40.3188 6.79907 40.5295 6.47877C40.8099 6.05255 41.0329 5.56939 40.9851 5.09363C40.933 4.57435 40.7829 3.985 40.3144 3.25791C39.6178 2.1769 39.0449 1.14605 38.4524 0.838285C37.9541 0.57943 37.489 0.449452 37.1004 0.518229C36.7476 0.58068 36.0492 1.32701 34.9025 1.84248C34.1446 2.18315 33.5866 2.13637 33.0624 2.28806C32.9156 2.33053 32.7011 2.40192 32.6683 2.66651C32.5859 3.33223 32.9238 4.84773 32.189 5.58917C31.538 6.24614 30.5184 6.90247 29.9614 7.01303C29.7538 7.05424 29.5461 7.03751 29.3891 6.89687C29.1917 6.72014 28.9422 6.38354 28.5335 5.95763C28.0451 5.44866 27.0287 4.46243 25.6152 3.51021C24.6928 2.88883 24.0689 2.57693 23.5584 2.58907C23.1122 2.59969 22.6142 2.59293 22.2988 2.97751Z" fill="#375C3A"/>
<path d="M20.9702 6.30485C21.0526 5.62289 21.4261 4.04166 22.2988 2.97751C22.6142 2.59293 23.1122 2.59969 23.5584 2.58907C24.0689 2.57693 24.6928 2.88883 25.6152 3.51021C27.0287 4.46243 28.0452 5.44866 28.5335 5.95763C28.9422 6.38354 29.1917 6.72014 29.3891 6.89687C29.5461 7.03751 29.7538 7.05424 29.9614 7.01303C30.5184 6.90247 31.538 6.24614 32.189 5.58917C32.9238 4.84773 32.5859 3.33223 32.6683 2.66651C32.7011 2.40192 32.9156 2.33053 33.0624 2.28806C33.5866 2.13637 34.1446 2.18315 34.9025 1.84248C36.0492 1.32701 36.7476 0.58068 37.1004 0.518229C37.489 0.449452 37.9541 0.57943 38.4524 0.838285C39.0449 1.14605 39.6178 2.1769 40.3144 3.25791C40.7829 3.985 40.933 4.57435 40.9851 5.09363C41.0329 5.56939 40.8099 6.05255 40.5295 6.47877C40.3188 6.79907 39.9156 6.92872 39.5619 7.11513C38.883 7.47282 39.3105 8.90151 38.5224 10.5034C38.11 11.3415 37.7074 11.7374 37.6137 11.9341C37.4665 12.2433 37.6437 12.5904 37.7786 12.7981C37.9199 13.0156 38.5961 13.6683 39.594 14.6454C40.6207 15.6505 40.8081 15.9003 40.8499 16.1079C40.9509 16.6092 39.9175 17.1062 39.1463 17.627C38.2412 18.2382 37.5644 18.3977 35.882 18.7418C35.1252 18.8965 34.5862 18.8154 33.8208 18.6818C32.2227 18.4027 31.1714 17.8581 30.8401 17.8066C29.7534 17.6376 29.2167 17.4834 28.7277 17.4422C28.4753 17.4209 28.3405 17.0481 28.1429 16.7259C28.0181 16.5224 28.027 16.3393 28.0786 16.1835C28.143 15.9885 28.4423 15.8815 28.516 15.7048C28.8014 15.0204 25.9774 15.4225 24.8243 15.5674C23.8171 15.694 22.765 15.9221 21.413 15.6636C20.606 15.5093 20.1802 14.9454 20.0138 14.6235C19.7366 14.0874 19.9498 13.4479 20.3026 12.636C20.3777 12.4631 20.4281 12.385 20.5112 12.3219C20.9667 11.976 21.8407 11.9266 22.2598 11.6662C22.4188 11.5673 22.4272 11.2609 22.4584 10.9596C22.5052 10.5076 21.9719 9.80704 21.7305 9.17942C21.6391 8.94181 21.5747 8.59676 21.4189 8.24329C21.1607 7.65753 20.1821 7.36774 19.8158 7.04519C19.7349 6.97395 19.7424 6.84816 19.7627 6.74355C20.0734 6.34731 20.5112 6.13873 20.7188 6.06597C20.8234 6.03444 20.9265 6.01383 21.0951 5.93014" stroke="#393939" stroke-linecap="round"/>
<path d="M35.1464 14.8606C35.167 14.6133 35.1876 14.366 35.1982 13.9294C35.2088 13.4929 35.2088 12.8747 35.2088 12.2377" stroke="#393939" stroke-linecap="round"/>
<path d="M25.5291 7.30408C25.8188 7.49018 26.1948 7.90609 26.3815 8.40507C26.7568 9.11388 26.9229 9.52979 27.2452 10.1846C27.3189 10.3423 27.3601 10.4453 27.4026 10.5515" stroke="#393939" stroke-linecap="round"/>
<path d="M32.9606 11.5506C33.2304 11.239 33.6862 10.2892 33.8555 9.43984C33.9543 8.9437 34.0222 8.45188 34.1259 7.83706C34.1974 7.41291 34.292 7.07673 34.5624 6.38042C34.7282 5.95344 35.0202 5.59917 35.2806 5.29629C35.4361 5.14079 35.6035 4.99403 35.7593 4.86944C35.8326 4.80668 35.8945 4.74485 36.0206 4.68115" stroke="#393939" stroke-linecap="round"/>
<path d="M27.0278 12.4249C27.2545 12.5698 28.4979 12.7372 29.5749 13.2761C30.4593 13.7187 31.6254 14.547 32.0226 14.8074C32.1887 14.9629 32.3355 15.1921 32.4497 15.4519C32.5022 15.5674 32.5434 15.6498 32.7108 15.9221" stroke="#393939" stroke-linecap="round"/>
<path d="M33.7476 13.2218C32.5665 13.3769 31.4167 14.0668 30.7888 14.5412C30.6528 14.4944 30.5726 14.4476 30.4863 14.4058C30.2781 14.3158 29.8027 14.1667 29.3011 14.244C29.2162 14.307 29.1272 14.3946 29.1424 14.503C29.2113 14.9942 29.7738 15.8848 29.5852 16.4952C29.4714 16.8636 29.2928 17.1626 29.206 17.4009C28.9768 18.0306 28.9243 18.916 28.5891 19.2168C28.3657 19.4173 28.1565 19.6375 27.9685 19.6004C27.4733 19.5025 26.7669 18.9343 26.187 18.8742C26.0812 18.8633 25.9907 18.886 25.8183 18.9615C25.0092 19.316 24.4218 19.64 24.2807 20.2269C24.196 20.5794 24.151 21.2896 24.6709 21.9616C25.5419 23.0875 26.5038 23.647 27.3638 24.2505C28.3484 24.9413 30.7911 26.5983 30.1183 26.9055C29.9445 26.9848 29.6431 26.8566 29.4644 26.9557C29.3216 27.035 29.1935 27.1637 29.1551 27.4001C29.0942 27.7744 28.9514 28.1424 29.1319 28.3327C29.4815 28.7014 29.7931 29.1863 30.5189 30.0626C30.7401 30.3297 31.19 31.4585 32.2371 32.7697C32.7386 33.3977 33.1004 33.8303 33.7861 34.2397C35.3105 35.1498 35.9376 35.5004 37.0396 35.6759C37.9786 35.8254 39.1039 36.1739 39.3578 35.7345C39.4629 35.5524 39.4838 35.2387 39.3575 33.7875C39.2348 32.3769 39.1456 31.428 39.1806 31.1698C39.214 30.9234 39.3071 30.5449 39.6252 30.4188C39.8276 30.3386 40.3998 30.3252 41.2722 29.9926C42.9395 29.3568 43.5554 28.0079 44.3152 28.2137C44.7112 28.321 45.1077 28.5043 45.4821 28.4139C45.9802 28.2937 46.4717 28.0917 46.7497 27.7079C47.0531 27.289 47.3274 26.7508 47.4474 25.8906C47.6257 24.6118 47.8663 23.4556 47.6133 22.8188C47.4005 22.2833 47.128 21.8657 46.783 21.6476C46.4697 21.4496 45.4376 21.5167 44.2127 21.1035C43.4032 20.8304 43.0041 20.4099 42.4997 20.1591C42.3585 20.0889 42.1459 19.9931 41.9456 20.1655C41.4415 20.5993 40.6992 21.9503 39.6423 21.9887C38.7059 22.0226 37.4857 21.8012 36.9833 21.4975C36.796 21.3842 36.647 21.2282 36.619 21.0159C36.5839 20.7491 36.6143 20.3283 36.5811 19.7316C36.5415 19.0186 36.4106 17.5884 35.9512 15.9086C35.6514 14.8125 35.3769 14.1509 34.9754 13.8068C34.6245 13.506 34.2451 13.1565 33.7476 13.2218Z" fill="#375C3A"/>
<path d="M30.522 14.7558C31.0367 14.31 32.3708 13.4026 33.7476 13.2218C34.2451 13.1565 34.6245 13.506 34.9754 13.8068C35.3769 14.1509 35.6514 14.8125 35.9512 15.9086C36.4106 17.5884 36.5415 19.0186 36.5811 19.7316C36.6143 20.3283 36.5839 20.7491 36.619 21.0159C36.647 21.2282 36.796 21.3842 36.9833 21.4975C37.4857 21.8012 38.7059 22.0226 39.6423 21.9887C40.6992 21.9503 41.4415 20.5993 41.9456 20.1655C42.1459 19.9931 42.3585 20.0889 42.4997 20.1591C43.0041 20.4099 43.4032 20.8304 44.2127 21.1035C45.4376 21.5167 46.4697 21.4496 46.783 21.6476C47.128 21.8657 47.4005 22.2833 47.6133 22.8188C47.8663 23.4556 47.6257 24.6118 47.4474 25.8906C47.3274 26.7508 47.0531 27.289 46.7497 27.7079C46.4717 28.0917 45.9802 28.2937 45.4821 28.4139C45.1077 28.5043 44.7112 28.321 44.3152 28.2137C43.5554 28.0079 42.9395 29.3568 41.2722 29.9926C40.3998 30.3252 39.8276 30.3386 39.6252 30.4188C39.3071 30.5449 39.214 30.9234 39.1806 31.1698C39.1456 31.428 39.2348 32.3769 39.3575 33.7875C39.4838 35.2387 39.4629 35.5524 39.3578 35.7345C39.1039 36.1739 37.9786 35.8254 37.0396 35.6759C35.9376 35.5004 35.3105 35.1498 33.7861 34.2397C33.1004 33.8303 32.7386 33.3977 32.2371 32.7697C31.19 31.4585 30.7401 30.3297 30.5189 30.0626C29.7931 29.1863 29.4815 28.7014 29.1319 28.3327C28.9514 28.1424 29.0942 27.7744 29.1551 27.4001C29.1935 27.1637 29.3216 27.035 29.4644 26.9557C29.6431 26.8566 29.9445 26.9848 30.1183 26.9055C30.7911 26.5983 28.3484 24.9413 27.3638 24.2505C26.5038 23.647 25.5419 23.0875 24.6709 21.9616C24.151 21.2896 24.196 20.5794 24.2807 20.2269C24.4218 19.64 25.0092 19.316 25.8183 18.9615C25.9907 18.886 26.0812 18.8633 26.187 18.8742C26.7669 18.9343 27.4733 19.5025 27.9685 19.6004C28.1565 19.6375 28.3657 19.4173 28.5891 19.2168C28.9243 18.916 28.9768 18.0306 29.206 17.4009C29.2928 17.1626 29.4714 16.8636 29.5852 16.4952C29.7738 15.8848 29.2113 14.9942 29.1424 14.503C29.1272 14.3946 29.2162 14.307 29.3011 14.244C29.8027 14.1667 30.2781 14.3158 30.4863 14.4058C30.5878 14.4549 30.6808 14.511 30.8662 14.5659" stroke="#393939" stroke-linecap="round"/>
<path d="M35.7871 30.8695C35.9668 30.7016 36.1465 30.5336 36.4436 30.2192C36.7407 29.9048 37.1497 29.449 37.5712 28.9794" stroke="#393939" stroke-linecap="round"/>
<path d="M33.3745 18.646C33.4747 18.9836 33.4893 19.5503 33.303 20.0473C33.1233 20.8295 32.9762 21.2511 32.7913 21.9567C32.7437 22.1239 32.7073 22.2284 32.6698 22.336" stroke="#393939" stroke-linecap="round"/>
<path d="M36.2925 26.9173C36.7066 26.8742 37.6865 26.4893 38.3789 25.9802C38.7833 25.6828 39.1611 25.3672 39.6478 24.9856C39.9835 24.7224 40.2789 24.54 40.948 24.2137C41.3584 24.0136 41.8178 23.9544 42.2189 23.9112C42.4416 23.9042 42.6677 23.9118 42.8703 23.9277C42.9683 23.9322 43.0569 23.9294 43.1963 23.9697" stroke="#393939" stroke-linecap="round"/>
<path d="M31.1414 23.458C31.2203 23.7216 32.0679 24.7051 32.5413 25.8474C32.9301 26.7855 33.2809 28.2028 33.4147 28.6695C33.4398 28.899 33.4013 29.1695 33.3175 29.4401C33.2815 29.5616 33.2587 29.6509 33.2075 29.9674" stroke="#393939" stroke-linecap="round"/>
<path d="M12.2831 4.26157C11.5343 5.1745 11.1531 6.46802 11.0078 7.24779C10.8798 7.3043 10.792 7.32321 10.7031 7.35003C10.4954 7.42278 10.0577 7.63137 9.74697 8.02761C9.72668 8.13222 9.71916 8.25801 9.80006 8.32925C10.1663 8.6518 11.1449 8.94159 11.4031 9.52735C11.559 9.88082 11.6234 10.2259 11.7148 10.4635C11.9561 11.0911 12.4895 11.7916 12.4426 12.2436C12.4114 12.5449 12.4031 12.8514 12.244 12.9502C11.825 13.2106 10.9509 13.26 10.4954 13.606C10.4124 13.669 10.362 13.7472 10.2869 13.9201C9.93401 14.7319 9.7209 15.3715 9.99802 15.9076C10.1645 16.2295 10.5902 16.7933 11.3972 16.9477C12.7493 17.2062 13.8013 16.978 14.8085 16.8515C15.9617 16.7066 18.7856 16.3045 18.5003 16.9889C18.4266 17.1656 18.1273 17.2726 18.0628 17.4676C18.0113 17.6234 18.0023 17.8064 18.1271 18.0099C18.3248 18.3322 18.4596 18.705 18.712 18.7262C19.201 18.7674 19.7376 18.9216 20.8244 19.0906C21.1556 19.1421 22.2069 19.6868 23.8051 19.9659C24.5704 20.0995 25.1095 20.1806 25.8662 20.0258C27.5487 19.6817 28.2254 19.5223 29.1305 18.9111C29.9018 18.3903 30.9352 17.8933 30.8341 17.392C30.7923 17.1843 30.6049 16.9345 29.5783 15.9294C28.5803 14.9524 27.9042 14.2997 27.7629 14.0821C27.628 13.8745 27.4508 13.5273 27.598 13.2181C27.6917 13.0214 28.0943 12.6255 28.5066 11.7874C29.2948 10.1856 28.8673 8.75688 29.5461 8.39919C29.8999 8.21278 30.3031 8.08313 30.5138 7.76283C30.7942 7.3366 31.0171 6.85344 30.9694 6.37768C30.9172 5.85841 30.7672 5.26906 30.2986 4.54197C29.602 3.46096 29.0292 2.4301 28.4367 2.12234C27.9383 1.86349 27.4732 1.73351 27.0847 1.80229C26.7318 1.86474 26.0334 2.61107 24.8867 3.12654C24.1289 3.4672 23.5709 3.42043 23.0466 3.57212C22.8999 3.61459 22.6853 3.68598 22.6526 3.95057C22.5701 4.61628 22.908 6.13179 22.1733 6.87322C21.5222 7.5302 20.5026 8.18653 19.9457 8.29708C19.738 8.3383 19.5304 8.32157 19.3733 8.18093C19.176 8.0042 18.9264 7.66759 18.5178 7.24168C18.0294 6.73271 17.013 5.74649 15.5995 4.79427C14.6771 4.17289 14.0531 3.86098 13.5427 3.87313C13.0965 3.88374 12.5985 3.87699 12.2831 4.26157Z" fill="#375C3A"/>
<path d="M10.9544 7.58891C11.0369 6.90695 11.4103 5.32571 12.2831 4.26157C12.5985 3.87699 13.0965 3.88374 13.5427 3.87313C14.0531 3.86098 14.6771 4.17289 15.5995 4.79427C17.013 5.74649 18.0294 6.73271 18.5178 7.24168C18.9264 7.66759 19.176 8.0042 19.3733 8.18093C19.5304 8.32157 19.738 8.3383 19.9457 8.29708C20.5026 8.18653 21.5222 7.5302 22.1733 6.87322C22.908 6.13179 22.5701 4.61628 22.6526 3.95057C22.6853 3.68598 22.8999 3.61459 23.0466 3.57212C23.5709 3.42043 24.1289 3.4672 24.8867 3.12654C26.0334 2.61107 26.7318 1.86474 27.0847 1.80229C27.4732 1.73351 27.9383 1.86349 28.4367 2.12234C29.0292 2.4301 29.602 3.46096 30.2986 4.54197C30.7672 5.26906 30.9172 5.85841 30.9694 6.37768C31.0171 6.85344 30.7942 7.3366 30.5138 7.76283C30.3031 8.08313 29.8999 8.21278 29.5461 8.39919C28.8673 8.75688 29.2948 10.1856 28.5066 11.7874C28.0943 12.6255 27.6917 13.0214 27.598 13.2181C27.4508 13.5273 27.628 13.8745 27.7629 14.0821C27.9042 14.2997 28.5803 14.9524 29.5783 15.9294C30.6049 16.9345 30.7923 17.1843 30.8341 17.392C30.9352 17.8933 29.9018 18.3903 29.1305 18.9111C28.2254 19.5223 27.5487 19.6817 25.8662 20.0258C25.1095 20.1806 24.5704 20.0995 23.8051 19.9659C22.2069 19.6868 21.1556 19.1421 20.8244 19.0906C19.7376 18.9216 19.201 18.7674 18.712 18.7262C18.4596 18.705 18.3248 18.3322 18.1271 18.0099C18.0023 17.8064 18.0113 17.6234 18.0628 17.4676C18.1273 17.2726 18.4266 17.1656 18.5003 16.9889C18.7856 16.3045 15.9617 16.7066 14.8085 16.8515C13.8013 16.978 12.7493 17.2062 11.3972 16.9477C10.5902 16.7933 10.1645 16.2295 9.99802 15.9076C9.7209 15.3715 9.93401 14.7319 10.2869 13.9201C10.362 13.7472 10.4124 13.669 10.4954 13.606C10.9509 13.26 11.825 13.2106 12.244 12.9502C12.4031 12.8514 12.4114 12.5449 12.4426 12.2436C12.4895 11.7916 11.9561 11.0911 11.7148 10.4635C11.6234 10.2259 11.559 9.88082 11.4031 9.52735C11.1449 8.94159 10.1663 8.6518 9.80006 8.32925C9.71916 8.25801 9.72668 8.13222 9.74697 8.02761C10.0577 7.63137 10.4954 7.42278 10.7031 7.35003C10.8077 7.31849 10.9107 7.29789 11.0793 7.2142" stroke="#393939" stroke-linecap="round"/>
<path d="M25.1306 16.1446C25.1512 15.8973 25.1718 15.65 25.1824 15.2135C25.1931 14.777 25.1931 14.1587 25.1931 13.5217" stroke="#393939" stroke-linecap="round"/>
<path d="M15.5133 8.58813C15.8031 8.77423 16.179 9.19015 16.3657 9.68913C16.7411 10.3979 16.9072 10.8138 17.2294 11.4686C17.3031 11.6263 17.3443 11.7294 17.3868 11.8355" stroke="#393939" stroke-linecap="round"/>
<path d="M22.9448 12.8347C23.2146 12.5231 23.6705 11.5732 23.8397 10.7239C23.9386 10.2278 24.0065 9.73594 24.1101 9.12112C24.1817 8.69697 24.2763 8.36079 24.5467 7.66448C24.7125 7.23749 25.0044 6.88322 25.2648 6.58034C25.4203 6.42484 25.5877 6.27809 25.7435 6.1535C25.8169 6.09073 25.8787 6.02891 26.0049 5.96521" stroke="#393939" stroke-linecap="round"/>
<path d="M17.0121 13.709C17.2388 13.8539 18.4822 14.0212 19.5591 14.5602C20.4435 15.0028 21.6097 15.831 22.0068 16.0915C22.1729 16.247 22.3197 16.4761 22.434 16.7359C22.4864 16.8515 22.5277 16.9339 22.695 17.2062" stroke="#393939" stroke-linecap="round"/>
<path d="M3.5546 37.7255C3.93863 37.4601 4.29289 37.1665 4.49808 36.9563C4.61362 36.9408 4.74437 36.9042 4.86478 36.8523C5.04169 36.8814 5.2722 36.9806 5.496 37.1031C5.69221 37.2106 5.92238 37.3052 6.039 37.3742C6.14432 37.4365 6.34667 37.5518 6.52458 37.6534C6.65993 37.7307 6.78516 37.8248 6.946 37.9251C7.07576 38.0059 7.183 38.1087 7.34701 38.2356C7.55514 38.3965 7.95119 38.6661 8.39784 38.8694C8.62487 38.9727 8.74954 39.045 8.8901 39.1073C9.14922 39.2221 9.35001 39.3387 9.5262 39.4288C9.59854 39.4658 10.0245 39.7861 10.6511 40.1996C11.0071 40.4347 11.1551 40.4966 11.3003 40.6165C11.3811 40.6832 11.7453 40.9049 12.4489 41.2564C12.8279 41.4458 13.2532 41.6468 13.5725 41.8151C13.8917 41.9835 14.1079 42.1031 14.2427 42.2176C14.568 42.4939 14.7321 42.6977 14.8648 42.8541C14.9646 42.9717 15.2081 43.1594 15.3712 43.5223C15.585 43.9979 15.7593 44.2217 15.6924 44.4908C15.5909 44.8988 15.3696 45.1614 15.1948 45.684C15.0975 45.9749 14.9945 46.2324 14.8648 46.6371C14.7843 46.8886 14.6833 47.0721 14.6018 47.2607C14.5514 47.3775 14.4562 47.4827 14.1843 47.9316C13.9931 48.2471 13.7879 48.5161 13.6589 48.7542C13.4796 49.0851 13.2946 49.499 13.073 49.7988C12.9851 49.9178 12.896 50.0618 12.7724 50.1255C12.6322 50.1977 12.4562 50.3357 12.3026 50.4065C12.1589 50.4727 12.0376 50.5275 11.8078 50.5703C11.5203 50.6237 11.1749 50.7294 10.9935 50.7202C10.7923 50.7101 10.5047 50.6477 10.3934 50.6018C10.289 50.5588 10.1515 50.495 9.94342 50.3808C9.70846 50.2518 9.39536 50.1371 9.12895 50.0067C8.86381 49.8769 8.55035 49.6848 8.24544 49.5306C7.96374 49.3882 7.76629 49.3273 7.24227 48.9374C6.94769 48.7182 6.6901 48.562 6.48353 48.4246C6.13066 48.1899 5.96 48.0904 5.76538 47.9659C5.4025 47.7337 5.22488 47.6009 4.92816 47.3958C4.59894 47.1683 4.2354 46.8776 4.05778 46.7539C3.93767 46.6702 3.53281 46.3592 3.32687 46.1147C3.22561 45.9945 3.0954 45.8519 2.93855 45.6802L2.92839 45.669C2.6962 45.4148 2.54326 45.2097 2.31677 45.0436C2.14437 44.9172 1.97485 44.7468 1.7653 44.5694C1.61617 44.4432 1.50362 44.3725 1.38101 44.3004C1.20345 44.1961 1.04009 44.0115 0.983645 43.8785C0.951296 43.8024 0.946605 43.5338 1.0421 43.2005C1.11067 42.9613 1.14596 42.8171 1.19191 42.7055C1.25269 42.5579 1.29087 42.453 1.3428 42.3035C1.39492 42.1534 1.49274 41.9121 1.59134 41.559C1.64967 41.3501 1.69399 41.2073 1.76935 40.9891C1.82089 40.8399 1.84701 40.7303 1.89362 40.6291C1.96556 40.4729 2.06735 40.1757 2.11785 39.9878C2.16571 39.8098 2.20952 39.6631 2.38885 39.299C2.50261 39.0681 2.56203 38.9279 2.71659 38.7297C2.81523 38.6031 2.98633 38.3503 3.11945 38.1834C3.22971 38.0451 3.29145 37.9073 3.5546 37.7255Z" fill="#A31528"/>
<path d="M4.69553 36.7783C4.67763 36.7749 4.64544 36.7966 4.55151 36.8998C4.35872 37.1114 3.97445 37.4353 3.5546 37.7255C3.29145 37.9073 3.22971 38.0451 3.11945 38.1834C2.98633 38.3503 2.81523 38.6031 2.71659 38.7297C2.56203 38.9279 2.50261 39.0681 2.38885 39.299C2.20952 39.6631 2.16571 39.8098 2.11785 39.9878C2.06735 40.1757 1.96556 40.4729 1.89362 40.6291C1.84701 40.7303 1.82089 40.8399 1.76935 40.9891C1.69399 41.2073 1.64967 41.3501 1.59134 41.559C1.49274 41.9121 1.39492 42.1534 1.3428 42.3035C1.29087 42.453 1.25269 42.5579 1.19191 42.7055C1.14596 42.8171 1.11067 42.9613 1.0421 43.2005C0.946605 43.5338 0.951296 43.8024 0.983645 43.8785C1.04009 44.0115 1.20345 44.1961 1.38101 44.3004C1.50362 44.3725 1.61617 44.4432 1.76529 44.5694C1.97485 44.7468 2.14437 44.9172 2.31677 45.0436C2.54326 45.2097 2.6962 45.4148 2.92839 45.669C3.08978 45.8458 3.22343 45.9919 3.32687 46.1147C3.53281 46.3592 3.93767 46.6702 4.05778 46.7539C4.2354 46.8776 4.59894 47.1683 4.92816 47.3958C5.22488 47.6009 5.4025 47.7337 5.76538 47.9659C5.96 48.0904 6.13066 48.1899 6.48353 48.4246C6.6901 48.562 6.94769 48.7182 7.24227 48.9374C7.76629 49.3273 7.96374 49.3882 8.24544 49.5306C8.55035 49.6848 8.86381 49.8769 9.12895 50.0067C9.39536 50.1371 9.70846 50.2518 9.94342 50.3808C10.1515 50.495 10.289 50.5588 10.3934 50.6018C10.5047 50.6477 10.7923 50.7101 10.9935 50.7202C11.1749 50.7294 11.5203 50.6237 11.8078 50.5703C12.0376 50.5275 12.1589 50.4727 12.3026 50.4065C12.4562 50.3357 12.6322 50.1977 12.7724 50.1255C12.896 50.0618 12.9851 49.9178 13.073 49.7988C13.2946 49.499 13.4796 49.0851 13.6589 48.7542C13.7879 48.5161 13.9931 48.2471 14.1843 47.9316C14.4562 47.4827 14.5514 47.3775 14.6018 47.2607C14.6833 47.0721 14.7843 46.8886 14.8648 46.6371C14.9945 46.2324 15.0975 45.9749 15.1948 45.684C15.3696 45.1614 15.5909 44.8988 15.6924 44.4908C15.7593 44.2217 15.585 43.9979 15.3712 43.5223C15.2081 43.1594 14.9646 42.9717 14.8648 42.8541C14.7321 42.6977 14.568 42.4939 14.2427 42.2176C14.1079 42.1031 13.8917 41.9835 13.5725 41.8151C13.2532 41.6468 12.8279 41.4458 12.4489 41.2564C11.7453 40.9049 11.3811 40.6832 11.3003 40.6165C11.1551 40.4966 11.0071 40.4347 10.6511 40.1996C10.0245 39.7861 9.59854 39.4658 9.5262 39.4288C9.35001 39.3387 9.14922 39.2221 8.8901 39.1073C8.74954 39.045 8.62487 38.9727 8.39784 38.8694C7.95119 38.6661 7.55514 38.3965 7.34701 38.2356C7.183 38.1087 7.07576 38.0059 6.946 37.9251C6.78516 37.8248 6.65993 37.7307 6.52458 37.6534C6.34667 37.5518 6.14432 37.4365 6.039 37.3742C5.92238 37.3052 5.69221 37.2106 5.496 37.1031C5.2722 36.9806 5.04169 36.8814 4.86478 36.8523C4.70654 36.9205 4.53043 36.9622 4.39447 36.9646C4.33348 36.9626 4.28874 36.9541 4.24265 36.9454" stroke="#393939" stroke-width="1.5" stroke-linecap="round"/>
<path d="M15.7647 43.528C15.5736 43.3649 15.3652 43.2197 15.2955 43.1217C15.1286 42.8872 14.681 42.7374 14.2406 42.5114C13.7248 42.2467 13.5586 42.1691 13.4539 42.0784C13.349 41.9875 13.2273 41.8837 13.092 41.7665C12.9838 41.6728 12.8762 41.5939 12.6997 41.4287C12.5463 41.2851 12.4379 41.1762 12.2824 41.0606C12.1148 40.9359 11.9904 40.8074 11.8847 40.7215C11.7825 40.6384 11.6324 40.5571 11.4055 40.4181C10.8977 40.1072 10.7683 40.0285 10.3503 39.8583L10.3202 39.846C10.1234 39.766 9.90721 39.6781 9.6406 39.5314C9.36727 39.381 9.0483 39.0446 8.88288 38.896C8.69181 38.7244 8.46742 38.5185 8.24654 38.375C7.99913 38.2144 7.55419 37.9507 7.1392 37.7951C6.76319 37.6541 6.63223 37.6029 6.41498 37.5464C6.24237 37.5016 6.09702 37.4304 5.91422 37.3254C5.48507 37.0788 5.37818 36.7778 5.28262 36.6933C5.17048 36.5943 5.08398 36.5088 5.07145 36.4407C5.04279 36.2849 5.23816 36.1731 5.33401 36.0694C5.47242 35.9195 5.71822 35.7265 5.84981 35.5939C5.96791 35.4749 6.06788 35.3259 6.1421 35.203C6.25906 35.0093 6.27337 34.7768 6.36959 34.3494C6.42042 34.1236 6.49707 33.916 6.56137 33.6042C6.59647 33.434 6.55295 33.2473 6.54068 33.0974C6.5282 32.9449 6.48574 32.7983 6.4215 32.5226C6.3809 32.3484 6.38201 32.2206 6.37058 32.0662C6.35842 31.9021 6.35519 31.7189 6.34361 31.5388C6.33104 31.3435 6.32405 31.1853 6.29879 30.8918C6.28316 30.7102 6.25319 30.5432 6.25901 30.3765C6.26454 30.2183 6.23098 29.911 6.21728 29.5531C6.19659 29.0131 6.18272 28.7151 6.18983 28.5174C6.19762 28.3011 6.202 28.0791 6.21893 27.8536C6.23067 27.6973 6.23339 27.5367 6.24794 27.352C6.26676 27.113 6.26373 26.8936 6.30261 26.6069C6.31488 26.5163 6.37019 26.1153 6.48337 25.5435C6.5777 25.0669 6.71772 24.5451 6.78546 24.3752C6.90391 24.0781 6.93806 23.7567 7.00635 23.5292C7.06531 23.3328 7.13136 23.1627 7.20696 23.0043C7.32639 22.7541 7.38573 22.6223 7.45855 22.4786C7.52215 22.3531 7.61042 22.2388 7.74746 21.9962C7.84651 21.8208 7.90151 21.6652 7.96676 21.5349C8.03602 21.3967 8.10983 21.2073 8.17411 21.0823C8.25147 20.9318 8.33932 20.7438 8.61218 20.2641C8.84744 19.8505 9.10691 19.7424 9.22715 19.6433C9.33047 19.5581 9.39291 19.4112 9.49127 19.2926C9.62445 19.132 9.74812 18.9812 9.8715 18.8373C10.0817 18.5922 10.3517 18.4156 10.4946 18.3311C10.6563 18.2355 10.8105 18.1877 10.9946 18.1264L10.9958 18.126C11.2135 18.0535 11.3738 18.0001 11.462 17.9105C11.5689 17.8018 11.7487 17.787 12.1989 17.68C12.4104 17.6297 12.5775 17.6395 12.7518 17.6318C12.9595 17.6227 13.2278 17.5799 13.3926 17.5957C13.6263 17.6181 13.953 17.7165 14.0811 17.8169C14.1884 17.9011 14.296 17.9944 14.3915 18.134C14.5505 18.3666 14.7343 18.5745 14.7959 18.5965C14.9717 18.6593 15.0564 18.3725 15.1569 18.2444C15.2388 18.14 15.2856 18.0203 15.3517 17.8856C15.4136 17.7595 15.5039 17.6155 15.5934 17.4649C15.7751 17.1593 16.0369 16.783 16.1176 16.6767C16.2533 16.4978 16.4739 16.5611 16.6352 16.5406C16.7686 16.5237 16.8955 16.4783 17.0206 16.4613C17.0829 16.4529 17.1475 16.4347 17.2047 16.4C17.3195 16.3305 17.3651 16.1417 17.4601 15.9619C17.5731 15.7481 17.6819 15.5931 17.8108 15.5003C18.0133 15.3546 18.1591 15.5911 18.53 15.6765C18.8718 15.7552 19.5329 15.8714 19.9192 15.9545C20.5329 16.0865 20.6938 16.1823 20.9345 16.2783C21.1732 16.3735 21.4718 16.5217 21.9898 16.8323C22.2865 17.0102 22.8552 17.3902 23.1898 17.6026C23.3241 17.6879 23.4793 17.8649 23.6349 18.0112C23.7603 18.1291 23.8881 18.2264 24.0414 18.3822C24.1681 18.5109 24.3401 18.6266 24.4457 18.7124C24.5479 18.7955 24.7138 18.8999 24.8468 19.0316C25.0443 19.2271 25.4717 19.4486 25.7231 19.5981C25.885 19.6944 26.0587 19.8335 26.246 19.9707C26.4077 20.0891 26.6867 20.3677 27.0364 20.6618C27.3665 20.9393 27.466 21.0838 27.6148 21.2086C27.7427 21.3158 27.8374 21.4785 28.1934 21.8699C28.4978 22.2047 28.6469 22.2408 28.747 22.3559C29.0466 22.7004 29.5572 23.2748 29.6838 23.4609C29.9497 23.8516 30.2454 24.2467 30.2993 24.4193C30.3453 24.5665 30.3933 24.7006 30.4293 24.885C30.487 25.1803 30.5474 25.44 30.5874 25.6048C30.6098 25.697 30.5728 25.7899 30.5378 26.055C30.454 26.6915 30.3484 27.1372 30.3639 27.3213C30.4342 28.1555 30.3486 28.4759 30.2962 28.7544C30.2474 29.014 30.081 29.1957 30.0047 29.3844C29.9311 29.5662 29.8285 29.7261 29.754 29.9051C29.6945 30.0481 29.6183 30.1939 29.569 30.3468C29.4962 30.5724 29.4036 30.7917 29.3428 30.9532C29.2612 31.1698 29.2059 31.3027 29.1075 31.5271C28.9733 31.8329 28.815 32.1014 28.5544 32.5432L28.5414 32.5652C28.4201 32.7708 28.343 32.9142 28.1767 33.1515C28.0765 33.2945 27.9774 33.4536 27.8684 33.6006C27.6965 33.8324 27.6175 34.0148 27.5026 34.1402C27.3821 34.2719 27.288 34.4698 27.163 34.6488C27.0652 34.7889 26.963 34.9555 26.576 35.5301C26.3874 35.8102 26.2707 36.0417 26.1597 36.1989C26.0742 36.3199 25.9153 36.4212 25.8113 36.5388C25.6728 36.6955 25.391 36.8892 25.211 37.0591C25.082 37.1807 24.9857 37.3104 24.8798 37.4427C24.7041 37.6619 24.5373 37.9145 24.3255 38.1489C24.0986 38.4 23.8263 38.5109 23.6382 38.6179C23.4936 38.7002 23.3594 38.7781 23.1988 38.8493C23.0022 38.9366 22.8604 39.1097 22.7539 39.2164C22.5524 39.4185 22.267 39.7271 22.1391 39.8659C21.9928 40.0247 21.8648 40.1386 21.7142 40.2622C21.5667 40.3834 21.4116 40.5494 21.2822 40.6423C21.1621 40.7285 21.0373 40.8645 20.8591 41.0032C20.7344 41.1002 20.5876 41.2055 20.4663 41.3094C20.3189 41.4357 20.1878 41.495 20.0279 41.5915C19.7042 41.7868 19.4815 41.9085 19.3057 42.0029C19.1308 42.0968 18.9752 42.1688 18.8091 42.2688C18.6485 42.3656 18.5248 42.4585 18.3556 42.5484C18.1845 42.6393 17.9538 42.7455 17.6903 42.9293C17.4947 43.0659 17.3462 43.2196 17.2054 43.3197L17.1955 43.3267C17.0901 43.4016 16.9797 43.4801 16.8675 43.6309C16.7478 43.7918 16.5353 43.9174 16.1515 43.9673C16.1512 43.9673 16.1509 43.9674 16.1506 43.9674C16.0314 43.9828 15.9671 43.9128 15.9131 43.8773C15.807 43.8076 15.7872 43.6711 15.7647 43.528Z" fill="#BF172D"/>
<path d="M16.2072 44.0899C16.1989 44.0278 16.1198 43.9115 16.0177 43.7807C15.8149 43.5209 15.3998 43.2684 15.2955 43.1217C15.1286 42.8872 14.681 42.7374 14.2406 42.5114C13.7248 42.2467 13.5586 42.1691 13.4539 42.0784C13.349 41.9875 13.2273 41.8837 13.092 41.7665C12.9838 41.6728 12.8762 41.5939 12.6997 41.4287C12.5463 41.2851 12.4379 41.1762 12.2824 41.0606C12.1148 40.9359 11.9904 40.8074 11.8847 40.7215C11.7825 40.6384 11.6324 40.5571 11.4055 40.4181C10.8977 40.1072 10.7683 40.0285 10.3503 39.8583C10.1455 39.7749 9.9209 39.6856 9.6406 39.5314C9.36727 39.381 9.0483 39.0446 8.88288 38.896C8.69181 38.7244 8.46742 38.5185 8.24654 38.375C7.99913 38.2144 7.55419 37.9507 7.1392 37.7951C6.76319 37.6541 6.63223 37.6029 6.41498 37.5464C6.24237 37.5016 6.09702 37.4304 5.91422 37.3254C5.48507 37.0788 5.37818 36.7778 5.28262 36.6933C5.17048 36.5943 5.08398 36.5088 5.07145 36.4407C5.04279 36.2849 5.23816 36.1731 5.33401 36.0694C5.47242 35.9195 5.71822 35.7265 5.84981 35.5939C5.96791 35.4749 6.06788 35.3259 6.1421 35.203C6.25906 35.0093 6.27337 34.7768 6.36959 34.3494C6.42042 34.1236 6.49707 33.916 6.56137 33.6042C6.59647 33.434 6.55295 33.2473 6.54068 33.0974C6.5282 32.9449 6.48574 32.7983 6.4215 32.5226C6.3809 32.3484 6.38201 32.2206 6.37058 32.0662C6.35842 31.9021 6.35519 31.7189 6.34361 31.5388C6.33104 31.3435 6.32405 31.1853 6.29879 30.8918C6.28316 30.7102 6.25319 30.5432 6.25901 30.3765C6.26454 30.2183 6.23098 29.911 6.21728 29.5531C6.19659 29.0131 6.18272 28.7151 6.18983 28.5174C6.19762 28.3011 6.202 28.0791 6.21893 27.8536C6.23067 27.6973 6.23339 27.5367 6.24794 27.352C6.26676 27.113 6.26373 26.8936 6.30261 26.6069C6.31488 26.5163 6.37019 26.1153 6.48337 25.5435C6.5777 25.0669 6.71772 24.5451 6.78546 24.3752C6.90391 24.0781 6.93806 23.7567 7.00635 23.5292C7.06531 23.3328 7.13136 23.1627 7.20696 23.0043C7.32639 22.7541 7.38573 22.6223 7.45855 22.4786C7.52215 22.3531 7.61042 22.2388 7.74746 21.9962C7.84651 21.8208 7.90151 21.6652 7.96676 21.5349C8.03602 21.3967 8.10983 21.2073 8.17411 21.0823C8.25147 20.9318 8.33932 20.7438 8.61218 20.2641C8.84744 19.8505 9.10691 19.7424 9.22715 19.6433C9.33047 19.5581 9.39291 19.4112 9.49127 19.2926C9.62445 19.132 9.74812 18.9812 9.8715 18.8373C10.0817 18.5922 10.3517 18.4156 10.4946 18.3311C10.6563 18.2355 10.8105 18.1877 10.9946 18.1264C11.2129 18.0537 11.3736 18.0003 11.462 17.9105C11.5689 17.8018 11.7487 17.787 12.1989 17.68C12.4104 17.6297 12.5775 17.6395 12.7518 17.6318C12.9595 17.6227 13.2278 17.5799 13.3926 17.5957C13.6263 17.6181 13.953 17.7165 14.0811 17.8169C14.1884 17.9011 14.296 17.9944 14.3915 18.134C14.5505 18.3666 14.7343 18.5745 14.7959 18.5965C14.9717 18.6593 15.0564 18.3725 15.1569 18.2444C15.2388 18.14 15.2856 18.0203 15.3517 17.8856C15.4136 17.7595 15.5039 17.6155 15.5934 17.4649C15.7751 17.1593 16.0369 16.783 16.1176 16.6767C16.2533 16.4978 16.4739 16.5611 16.6352 16.5406C16.7686 16.5237 16.8955 16.4783 17.0206 16.4613C17.0829 16.4529 17.1475 16.4347 17.2047 16.4C17.3195 16.3305 17.3651 16.1417 17.4601 15.9619C17.5731 15.7481 17.6819 15.5931 17.8108 15.5003C18.0133 15.3546 18.1591 15.5911 18.53 15.6765C18.8718 15.7552 19.5329 15.8714 19.9192 15.9545C20.5329 16.0865 20.6938 16.1823 20.9345 16.2783C21.1732 16.3735 21.4718 16.5217 21.9898 16.8323C22.2865 17.0102 22.8552 17.3902 23.1898 17.6026C23.3241 17.6879 23.4793 17.8649 23.6349 18.0112C23.7603 18.1291 23.8881 18.2264 24.0414 18.3822C24.1681 18.5109 24.3401 18.6266 24.4457 18.7124C24.5479 18.7955 24.7138 18.8999 24.8468 19.0316C25.0443 19.2271 25.4717 19.4486 25.7231 19.5981C25.885 19.6944 26.0587 19.8335 26.246 19.9707C26.4077 20.0892 26.6867 20.3677 27.0364 20.6618C27.3665 20.9393 27.466 21.0838 27.6148 21.2086C27.7427 21.3158 27.8374 21.4785 28.1934 21.8699C28.4978 22.2047 28.6469 22.2408 28.747 22.3559C29.0466 22.7004 29.5572 23.2748 29.6838 23.4609C29.9497 23.8516 30.2454 24.2467 30.2993 24.4193C30.3453 24.5665 30.3933 24.7006 30.4293 24.885C30.487 25.1803 30.5474 25.44 30.5874 25.6048C30.6098 25.697 30.5728 25.7899 30.5378 26.055C30.454 26.6915 30.3484 27.1372 30.3639 27.3213C30.4342 28.1555 30.3486 28.4759 30.2962 28.7544C30.2474 29.014 30.081 29.1957 30.0047 29.3844C29.9311 29.5662 29.8285 29.7261 29.754 29.9051C29.6945 30.0481 29.6183 30.1939 29.569 30.3468C29.4962 30.5724 29.4036 30.7917 29.3428 30.9532C29.2612 31.1698 29.2059 31.3027 29.1075 31.5271C28.9711 31.8379 28.8097 32.1102 28.5414 32.5652C28.4201 32.7708 28.343 32.9142 28.1767 33.1515C28.0765 33.2945 27.9774 33.4536 27.8684 33.6006C27.6965 33.8324 27.6175 34.0148 27.5026 34.1402C27.3821 34.2719 27.288 34.4698 27.163 34.6488C27.0652 34.7889 26.963 34.9555 26.576 35.5301C26.3874 35.8102 26.2707 36.0417 26.1597 36.1989C26.0742 36.3199 25.9153 36.4212 25.8113 36.5388C25.6728 36.6955 25.391 36.8892 25.211 37.0591C25.082 37.1807 24.9857 37.3104 24.8798 37.4427C24.7041 37.6619 24.5373 37.9145 24.3255 38.1489C24.0986 38.4 23.8263 38.5109 23.6382 38.6179C23.4936 38.7002 23.3594 38.7781 23.1988 38.8493C23.0022 38.9366 22.8604 39.1097 22.7539 39.2164C22.5524 39.4185 22.267 39.7272 22.1391 39.8659C21.9928 40.0247 21.8648 40.1386 21.7142 40.2622C21.5667 40.3834 21.4116 40.5494 21.2822 40.6423C21.1621 40.7285 21.0373 40.8645 20.8591 41.0032C20.7344 41.1002 20.5876 41.2055 20.4663 41.3094C20.3189 41.4357 20.1878 41.495 20.0279 41.5915C19.7042 41.7868 19.4815 41.9085 19.3057 42.0029C19.1308 42.0968 18.9752 42.1688 18.8091 42.2688C18.6485 42.3656 18.5248 42.4585 18.3556 42.5484C18.1845 42.6393 17.9538 42.7455 17.6903 42.9293C17.4947 43.0659 17.3462 43.2196 17.2054 43.3197C17.097 43.3968 16.9832 43.4754 16.8675 43.6309C16.7477 43.7919 16.535 43.9176 16.1506 43.9674C16.0314 43.9828 15.9671 43.9128 15.9131 43.8773C15.7972 43.8011 15.7843 43.6454 15.7583 43.4883C15.6503 43.3355 15.5229 43.2609 15.401 43.1822C15.3512 43.1472 15.3258 43.1223 15.2758 43.0617" stroke="#393939" stroke-width="1.5" stroke-linecap="round"/>
<path d="M14.7694 19.6302C14.6301 19.6655 14.522 19.7689 14.4154 19.864C14.3 19.9668 14.2881 20.1144 14.233 20.2415C14.1825 20.358 14.1335 20.5104 14.0552 20.6199C13.9563 20.7582 13.8027 21.0927 13.6868 21.3958C13.6003 21.6218 13.5724 21.7424 13.465 21.9605C13.2645 22.3674 13.4132 22.5362 13.4494 22.6495C13.4843 22.7592 13.5259 22.8765 13.542 23.0036C13.5662 23.1943 13.4029 23.2961 13.3176 23.3954C13.2426 23.4827 13.1602 23.5957 13.0453 23.7116C12.9524 23.8052 12.8645 23.8944 12.7936 23.9874C12.7143 24.0914 12.6064 24.1821 12.4243 24.3955C12.3251 24.5116 12.2641 24.6314 12.2104 24.7277C12.1527 24.8312 12.0984 24.9456 12.0194 25.0592C11.9532 25.1543 11.907 25.255 11.8442 25.376C11.7786 25.5026 11.7107 25.59 11.652 25.6897C11.5833 25.8062 11.5015 25.9486 11.4246 26.072C11.3508 26.1903 11.2851 26.342 11.194 26.4713C11.1179 26.5795 11.0486 26.7491 10.9292 26.9829C10.6599 27.5098 10.5555 27.6218 10.4945 27.7566C10.43 27.8992 10.3752 28.013 10.3048 28.2207C10.1676 28.6256 10.1695 28.7715 9.9815 29.1823C9.90839 29.3421 9.85717 29.4391 9.72252 29.6612C9.62296 29.8255 9.49595 30.0869 9.38805 30.2807C9.31491 30.4121 9.25126 30.5823 9.20569 30.729C9.15615 30.8886 9.0901 31.0127 9.02766 31.2486C8.96413 31.4887 8.89981 31.5971 8.85532 31.7613C8.83788 31.8257 8.7463 32.2204 8.64134 32.7984C8.5823 33.1236 8.57958 33.335 8.54245 33.6023C8.5291 33.6983 8.5298 33.7865 8.51707 33.877C8.50777 33.943 8.44129 34.3949 8.31249 35.0526C8.24796 35.3822 8.13618 35.5892 7.97085 35.807C7.85023 35.9658 7.75175 36.0757 7.64355 36.2016C7.5337 36.3362 7.46326 36.4289 7.39157 36.5262C7.36882 36.553 7.33701 36.582 7.29452 36.6633" stroke="#A31528" stroke-linecap="round"/>
<path d="M49.1171 37.3917L49.1328 37.4515C49.1849 37.6506 49.2547 37.85 49.342 38.0495C49.4303 38.2445 49.5322 38.4306 49.6478 38.6079C49.726 38.7279 49.8084 38.8393 49.8949 38.9422C49.9797 39.0424 50.0681 39.1304 50.1604 39.2063L50.1977 39.2636C50.2725 39.4558 50.3473 39.6479 50.422 39.8401C50.4968 40.0323 50.5929 40.2184 50.7102 40.3983C50.7778 40.502 50.8513 40.5998 50.9307 40.6918C51.0101 40.7838 51.0964 40.8655 51.1896 40.9368L51.2244 40.9724L51.2294 41.0158C51.2302 41.023 51.2281 41.0555 51.223 41.1132C51.2206 41.1692 51.2045 41.2399 51.1747 41.3254C51.1432 41.4081 51.0949 41.4979 51.0298 41.5948C50.9656 41.6871 50.8722 41.7733 50.7495 41.8533C50.6268 41.9333 50.5094 41.9826 50.3972 42.0014C50.2851 42.0201 50.1861 42.0263 50.1004 42.02C50.0129 42.011 49.9431 41.9963 49.891 41.9759C49.837 41.9527 49.8069 41.9393 49.8006 41.9357L49.7576 41.9054L49.7526 41.862C49.7214 41.7425 49.6796 41.6279 49.6275 41.5181C49.5753 41.4083 49.5137 41.2989 49.4426 41.1898C49.3413 41.0344 49.2291 40.8802 49.106 40.7273C48.9812 40.5716 48.8508 40.4312 48.7149 40.3061L48.6696 40.2366C48.5976 39.9415 48.4746 39.6604 48.3003 39.3932C48.1848 39.2159 48.0573 39.0503 47.9181 38.8963C47.7788 38.7423 47.6353 38.6027 47.4876 38.4775L47.4393 38.439L47.4453 38.3768C47.4463 38.3723 47.4547 38.3435 47.4706 38.2904C47.4874 38.2328 47.5184 38.164 47.5634 38.0841C47.6112 38.0024 47.6744 37.9146 47.753 37.8206C47.8316 37.7266 47.935 37.6378 48.0632 37.5543C48.1859 37.4743 48.3056 37.4195 48.4224 37.39C48.5419 37.3587 48.6477 37.3422 48.7398 37.3404C48.8301 37.336 48.9046 37.3399 48.9632 37.3522C49.0217 37.3645 49.0532 37.3712 49.0577 37.3721L49.1171 37.3917ZM51.7583 42.0058L51.7819 42.0778C51.807 42.1819 51.8368 42.2752 51.8711 42.3577C51.9037 42.4375 51.9414 42.5101 51.984 42.5756C52.0178 42.6274 52.0516 42.6733 52.0855 42.7134C52.1204 42.749 52.1589 42.7841 52.2009 42.8189L52.2493 42.8573L52.2432 42.9195C52.2221 43.0421 52.1731 43.1576 52.0961 43.2661C52.0192 43.3745 51.9194 43.4688 51.7967 43.5488C51.6767 43.627 51.5515 43.6794 51.4213 43.7061C51.2937 43.731 51.1709 43.7275 51.053 43.6955L50.9854 43.6813L50.9698 43.6216C50.9559 43.5645 50.9366 43.5111 50.9118 43.4612C50.8871 43.4112 50.8596 43.3631 50.8293 43.3168C50.7387 43.1777 50.6189 43.0537 50.4702 42.9447L50.4138 42.894L50.4281 42.8265C50.4582 42.7058 50.514 42.5917 50.5954 42.4842C50.6778 42.3722 50.7831 42.2744 50.9113 42.1908C51.034 42.1108 51.1623 42.0543 51.2963 42.0214C51.433 41.9867 51.5631 41.9776 51.6866 41.9942L51.7583 42.0058Z" fill="#A31528"/>
<path d="M49.8672 43.5152L49.8765 43.5669C49.8782 43.5697 49.8816 43.6059 49.8866 43.6756C49.8944 43.7436 49.8822 43.8318 49.8499 43.94C49.8186 44.0439 49.7572 44.1607 49.6655 44.2906C49.5748 44.416 49.4342 44.5381 49.2435 44.6568C49.1191 44.7342 49.0055 44.7857 48.9026 44.8114C48.798 44.8343 48.7016 44.8426 48.6132 44.8362C48.4981 44.9347 48.3896 45.0406 48.2876 45.1539C48.1866 45.2628 48.0939 45.3818 48.0095 45.511L47.9949 45.5431L47.9649 45.5503C47.8958 45.5933 47.8278 45.6318 47.7608 45.6658C47.6965 45.6982 47.6312 45.735 47.5649 45.7762C47.3411 45.9156 47.1249 46.0827 46.9165 46.2776C46.7108 46.4708 46.5441 46.6742 46.4164 46.8879L46.3852 46.9303L46.3469 46.9426C46.3569 46.9402 46.331 46.9448 46.2693 46.9565C46.2075 46.9681 46.1271 46.9683 46.0281 46.957C45.9308 46.9486 45.8228 46.9199 45.7042 46.871C45.5867 46.8177 45.4771 46.7248 45.3756 46.5925C45.2752 46.5974 45.1854 46.5919 45.1065 46.5759C45.0285 46.5554 44.9614 46.5339 44.9052 46.5113C44.8518 46.4871 44.811 46.4646 44.7827 46.4438C44.7527 46.4203 44.7369 46.4072 44.7352 46.4044L44.7011 46.3681L44.6944 46.3205C44.6885 46.1938 44.679 46.077 44.6661 45.97C44.6532 45.863 44.6351 45.7631 44.6118 45.6702C44.5868 45.5746 44.5549 45.4833 44.5161 45.3963C44.4783 45.3048 44.4293 45.2106 44.3691 45.1139C44.2986 45.0006 44.2112 44.8786 44.1069 44.748L44.0816 44.6889C44.0451 44.4701 43.997 44.2758 43.9373 44.1059C43.8803 43.9343 43.8054 43.7739 43.7125 43.6246C43.6592 43.539 43.5995 43.4553 43.5334 43.3738C43.4656 43.2895 43.3933 43.2041 43.3165 43.1177L43.2824 43.0814L43.2835 43.0462C43.2697 42.8823 43.2516 42.7363 43.2295 42.6082C43.2056 42.4774 43.172 42.3526 43.1287 42.2338C43.0529 42.2044 42.9714 42.1535 42.8842 42.0812C42.7981 42.0044 42.7137 41.8997 42.6312 41.7671C42.5211 41.5902 42.4538 41.4327 42.4292 41.2947C42.4056 41.1521 42.4017 41.0318 42.4174 40.9339C42.4359 40.8342 42.4618 40.7587 42.495 40.7073C42.5282 40.656 42.5476 40.6286 42.5531 40.6251L42.5842 40.5828L42.6319 40.5761C42.8203 40.5585 42.9981 40.5207 43.1652 40.4627C43.3306 40.402 43.4948 40.3209 43.6579 40.2194C43.7242 40.1781 43.8016 40.1299 43.89 40.0749C43.9767 40.0171 44.0483 39.9534 44.1047 39.8838L44.1368 39.8523L44.1803 39.8482C44.3725 39.8244 44.5434 39.7909 44.6929 39.7478C44.8424 39.7046 44.9824 39.6462 45.113 39.5726C45.1631 39.4992 45.2233 39.4234 45.2935 39.3452C45.3637 39.267 45.4541 39.1935 45.5646 39.1247C45.6752 39.0559 45.7819 39.0086 45.8848 38.983C45.9859 38.9545 46.0758 38.9388 46.1545 38.9358C46.236 38.9312 46.3005 38.9332 46.3481 38.9419C46.3984 38.9489 46.4272 38.9521 46.4345 38.9514L46.5017 38.967L46.5161 39.0271C46.5614 39.1676 46.6102 39.2983 46.6624 39.4192C46.7156 39.5356 46.7741 39.6449 46.8377 39.7471C46.9237 39.8853 47.021 40.0108 47.1295 40.1235C47.239 40.2317 47.3644 40.3377 47.5056 40.4414L47.5377 40.456L47.5501 40.4943C47.5988 40.6097 47.6478 40.7191 47.6969 40.8227C47.7444 40.9236 47.7973 41.021 47.8558 41.115C47.9676 41.2946 48.0931 41.4561 48.2322 41.5996C48.3724 41.7386 48.5328 41.8669 48.7133 41.9846L48.7454 41.9991L48.7546 42.0509C48.7999 42.1914 48.8469 42.3193 48.8957 42.4347C48.9428 42.5473 48.9964 42.6519 49.0566 42.7486C49.1478 42.8951 49.2552 43.0276 49.3788 43.1462C49.5008 43.2621 49.6512 43.3774 49.83 43.4923L49.8672 43.5152ZM44.9873 42.2446L44.9945 42.2746C45.0313 42.5124 45.0799 42.7199 45.1403 42.897C45.199 43.0714 45.2748 43.2332 45.3677 43.3824C45.4227 43.4709 45.4833 43.5559 45.5494 43.6374C45.6155 43.719 45.6897 43.8012 45.772 43.8842L45.8009 43.9122L45.8076 43.9598C45.8272 44.17 45.8536 44.351 45.8867 44.5029C45.921 44.6503 45.9744 44.7916 46.0469 44.9266C46.1081 44.877 46.1739 44.8226 46.2444 44.7634C46.3149 44.7042 46.3818 44.6453 46.4451 44.5868C46.5094 44.5238 46.5664 44.4614 46.6162 44.3998C46.6688 44.3364 46.7077 44.2757 46.733 44.2178L46.7559 44.1806L46.7942 44.1682C46.9047 44.1301 47.0081 44.0868 47.1045 44.0384C47.2036 43.9882 47.2974 43.9356 47.3858 43.8805C47.5074 43.8048 47.6238 43.7209 47.7351 43.6286C47.6714 43.5571 47.6019 43.4853 47.5264 43.4134C47.452 43.337 47.3695 43.2599 47.2789 43.1821L47.2397 43.1375C47.1576 42.9317 47.0615 42.7404 46.9515 42.5635C46.8396 42.3839 46.7137 42.2246 46.5735 42.0856C46.4344 41.9421 46.2755 41.8071 46.097 41.6805L46.0598 41.6576L46.0423 41.611C46.0056 41.4843 45.9651 41.3638 45.9208 41.2495C45.8766 41.1352 45.8253 41.0252 45.7672 40.9195C45.7251 40.9381 45.6838 40.958 45.6434 40.9793C45.6058 40.9989 45.569 41.0199 45.5331 41.0423C45.4557 41.0904 45.3817 41.1441 45.3112 41.2033C45.2407 41.2625 45.1681 41.3307 45.0935 41.4079L45.0261 41.4383C44.9374 41.4743 44.8547 41.5047 44.778 41.5294C44.6997 41.5514 44.6208 41.5755 44.5414 41.6019C44.5616 41.6468 44.5838 41.6886 44.6079 41.7273C44.632 41.766 44.656 41.8047 44.6801 41.8434C44.718 41.9042 44.7594 41.9647 44.8045 42.0248C44.8524 42.0832 44.9056 42.144 44.9641 42.2073L44.9873 42.2446Z" fill="#A31528"/>
<path d="M42.6032 43.6304L42.6166 43.6955L42.5746 43.7408C42.257 44.0485 42.0176 44.3839 41.8566 44.7469C42.0725 44.7956 42.2876 44.8188 42.5016 44.8165C42.7157 44.8142 42.9353 44.7848 43.1604 44.7282L43.2212 44.7172L43.2774 44.7587C43.2805 44.7644 43.2973 44.7849 43.3278 44.8202C43.3583 44.8555 43.3915 44.9059 43.4275 44.9716C43.4588 45.0287 43.4827 45.0824 43.4991 45.1328C43.5185 45.1816 43.5327 45.2313 43.5419 45.2819C43.639 45.3438 43.7241 45.4178 43.7973 45.5039C43.8689 45.5871 43.9227 45.6616 43.9587 45.7272C44.0213 45.8414 44.0607 45.9404 44.077 46.0243C44.0933 46.1082 44.1001 46.1546 44.0975 46.1634L44.0934 46.2269L44.0381 46.2684C43.4934 46.6561 43.119 47.1379 42.915 47.7138L42.8777 47.7676C42.7506 47.8744 42.6351 47.9786 42.5311 48.0801C42.4285 48.1772 42.3348 48.2806 42.25 48.3901C42.1682 48.4981 42.0946 48.6145 42.0294 48.7393C41.9642 48.8642 41.9076 49.0047 41.8596 49.161L41.8014 49.2375C41.7956 49.2406 41.7712 49.2503 41.7282 49.2665C41.6866 49.2855 41.6282 49.3008 41.5529 49.3124C41.4804 49.3224 41.393 49.3221 41.2906 49.3114C41.1911 49.2992 41.0813 49.2647 40.9611 49.2081C40.8443 49.2387 40.7399 49.2514 40.6479 49.2461C40.5572 49.2365 40.4787 49.2219 40.4124 49.2026C40.3474 49.1788 40.2977 49.1559 40.2634 49.1339C40.2304 49.1075 40.2123 49.0914 40.2091 49.0857L40.1662 49.048L40.1645 49.0044C40.1426 48.8085 40.1027 48.6207 40.0449 48.4407C39.9855 48.258 39.9073 48.0781 39.8103 47.9011C39.7446 47.7812 39.6717 47.6653 39.5917 47.5532C39.513 47.4367 39.4228 47.3229 39.321 47.2116L39.2905 47.156C39.248 46.9973 39.2 46.8454 39.1465 46.7003C39.0942 46.5508 39.0305 46.4075 38.9554 46.2705C38.8709 46.1164 38.7759 45.9736 38.6704 45.8421C38.5649 45.7106 38.4509 45.5838 38.3282 45.4617L38.3009 45.4321L38.2992 45.3885C38.2499 45.0072 38.1399 44.661 37.9693 44.3499C37.9005 44.2243 37.8224 44.1056 37.7351 43.9938C37.6507 43.8804 37.5533 43.7705 37.443 43.6639L37.3977 43.622L37.4084 43.5604C37.4097 43.5559 37.4149 43.5383 37.4239 43.5073C37.4314 43.4735 37.4473 43.4314 37.4716 43.381C37.4943 43.3277 37.5293 43.2695 37.5764 43.2066C37.622 43.1407 37.6829 43.0758 37.7592 43.0117C37.7662 42.8891 37.7913 42.7825 37.8345 42.692C37.8761 42.5987 37.9213 42.5219 37.97 42.4618C38.0216 42.4001 38.0658 42.3555 38.1026 42.3279C38.1407 42.2958 38.1584 42.2806 38.1555 42.2822L38.2026 42.2563L38.2509 42.2632C38.3877 42.296 38.5181 42.3172 38.6423 42.3271C38.7665 42.337 38.8897 42.3381 39.0118 42.3306C39.1351 42.3187 39.2611 42.2979 39.3896 42.2682C39.5166 42.2358 39.6528 42.1964 39.7982 42.1501C39.8156 42.148 39.8314 42.143 39.8457 42.1352C39.86 42.1274 39.8742 42.1195 39.8885 42.1117L39.9228 42.0929L39.9754 42.0975C40.1428 42.132 40.2974 42.1567 40.4393 42.1717C40.5824 42.1823 40.723 42.1814 40.8609 42.1689C40.9973 42.1535 41.1339 42.1251 41.2707 42.0835C41.4075 42.0419 41.5525 41.9847 41.7056 41.9119L41.7613 41.8813L41.8237 41.9139C41.8252 41.9168 41.8358 41.9259 41.8553 41.9412C41.8777 41.9549 41.9047 41.9772 41.9365 42.008C41.9683 42.0389 42.0025 42.0776 42.0392 42.1243C42.0788 42.1694 42.1158 42.2234 42.1503 42.2862C42.1815 42.3433 42.2087 42.4063 42.2317 42.4754C42.2576 42.5429 42.278 42.6208 42.293 42.7091C42.3143 42.8496 42.3168 42.9726 42.3004 43.0781C42.3444 43.1245 42.3826 43.1704 42.4149 43.2158C42.4485 43.2568 42.4762 43.2973 42.4981 43.3372C42.5419 43.4172 42.57 43.4853 42.5823 43.5416C42.5931 43.5951 42.6001 43.6247 42.6032 43.6304ZM40.3006 43.8793L40.2352 43.8817C40.0894 43.88 39.9546 43.8778 39.8307 43.8752C39.7067 43.8726 39.5896 43.8756 39.4792 43.8841C39.5371 43.9897 39.6035 44.0906 39.6786 44.1869C39.752 44.2802 39.8318 44.3683 39.918 44.451L39.9532 44.5152C39.9671 44.5744 39.9816 44.6314 39.9968 44.6862C40.012 44.741 40.0286 44.795 40.0467 44.8482L40.1008 44.6626L40.1077 44.6142L40.1416 44.5845C40.2852 44.4538 40.414 44.3164 40.5281 44.1722C40.6405 44.0252 40.7386 43.8656 40.8224 43.6934C40.6581 43.739 40.4841 43.8009 40.3006 43.8793ZM40.9641 46.3999C41.0101 46.6531 41.0848 46.8943 41.1882 47.1235C41.2156 47.0788 41.2416 47.0348 41.2662 46.9916C41.2937 46.9469 41.3188 46.8979 41.3415 46.8446L41.3776 46.758L41.3868 46.7139L41.425 46.6819C41.5132 46.6261 41.599 46.566 41.6826 46.5017C41.7674 46.4329 41.8484 46.3607 41.9257 46.2849C41.6794 46.2826 41.4325 46.3028 41.185 46.3457L41.1195 46.3482L41.0092 46.3196C40.998 46.3331 40.9905 46.3465 40.9867 46.3598C40.9812 46.3702 40.9737 46.3836 40.9641 46.3999Z" fill="#A31528"/>
<path d="M36.741 49.7722L36.7125 49.8656C36.7145 49.8614 36.7013 49.8921 36.6732 49.9577C36.6481 50.0222 36.5991 50.1022 36.5264 50.1978C36.4568 50.2923 36.361 50.391 36.239 50.494C36.117 50.597 35.9627 50.6824 35.776 50.75C35.6352 50.8009 35.517 50.8282 35.4213 50.8317C35.3276 50.831 35.275 50.8292 35.2636 50.8264L35.1894 50.8222L35.172 50.7454C35.0744 50.476 34.9521 50.2243 34.805 49.9902C34.658 49.7561 34.4725 49.5307 34.2486 49.3141L34.2212 49.2669C34.1255 49.0315 34.0008 48.8066 33.8471 48.5922C33.6952 48.3737 33.5127 48.1611 33.2994 47.9545C33.3151 48.0457 33.3348 48.1338 33.3587 48.2186C33.3844 48.2993 33.4128 48.3825 33.4438 48.4682C33.4726 48.5478 33.5024 48.6253 33.5332 48.7007C33.567 48.775 33.606 48.8492 33.6501 48.9232L33.6726 48.9566L33.6675 49C33.589 49.5096 33.6339 49.9971 33.8024 50.4623C33.8334 50.548 33.868 50.6342 33.9063 50.7207C33.9446 50.8072 33.989 50.8916 34.0395 50.9737L34.0653 51.0163L34.051 51.063C34.0502 51.0702 34.0421 51.0956 34.0267 51.1393C34.0114 51.1829 33.9808 51.2373 33.9351 51.3023C33.8914 51.3631 33.8282 51.4276 33.7455 51.4956C33.6617 51.5605 33.5524 51.6174 33.4178 51.6662C33.3015 51.7083 33.1941 51.7368 33.0956 51.7517C32.9971 51.7665 32.9056 51.772 32.8211 51.768C32.7396 51.7629 32.6647 51.7519 32.5963 51.7351C32.5298 51.7142 32.471 51.6905 32.4199 51.664C32.2968 51.6012 32.1947 51.5153 32.1136 51.4062L32.0895 51.3682L32.0946 51.3248C32.206 50.772 32.1575 50.208 31.9492 49.6326C31.9326 49.5866 31.9159 49.5407 31.8993 49.4948C31.8816 49.4458 31.8614 49.3995 31.8386 49.3558L31.8278 49.2974C31.8427 49.0324 31.8356 48.7787 31.8068 48.5365C31.7779 48.2942 31.7225 48.0598 31.6404 47.8333C31.6127 47.7568 31.5804 47.6819 31.5436 47.6087C31.5056 47.5325 31.4681 47.4578 31.4312 47.3846L31.4087 47.3512L31.4138 47.3078C31.5146 46.7831 31.4786 46.2821 31.3057 45.8046C31.2603 45.6791 31.2024 45.5477 31.1319 45.4105L31.0994 45.3496L31.1321 45.2962C31.134 45.2921 31.1449 45.2743 31.1647 45.2429C31.1864 45.2073 31.2204 45.1673 31.2666 45.1229C31.3128 45.0784 31.3719 45.0311 31.4437 44.9809C31.5186 44.9295 31.6096 44.8844 31.7167 44.8457C31.8973 44.7803 32.0613 44.7503 32.2087 44.7558C32.3561 44.7613 32.4827 44.7812 32.5886 44.8156C32.6945 44.8499 32.7758 44.888 32.8325 44.9298C32.8923 44.9705 32.9242 44.9918 32.9284 44.9937L32.9851 45.0355L32.9791 45.1052L32.9573 45.217C33.024 45.2101 33.0785 45.2077 33.1208 45.2097C33.165 45.2075 33.1902 45.2053 33.1963 45.2031L33.2664 45.2245L33.2897 45.2888C33.4027 45.601 33.5473 45.8809 33.7236 46.1287C33.8999 46.3765 34.1162 46.601 34.3726 46.8025L34.4109 46.8509C34.4841 47.0529 34.5728 47.2406 34.6772 47.414C34.6677 47.2444 34.6474 47.0786 34.6165 46.9167C34.5856 46.7548 34.5419 46.5958 34.4854 46.4397C34.4721 46.403 34.4588 46.3662 34.4455 46.3295C34.431 46.2897 34.413 46.2495 34.3914 46.2089L34.3689 46.1755L34.3832 46.1288C34.4609 45.8271 34.4935 45.5349 34.4811 45.252C34.4676 44.9661 34.4088 44.6793 34.3046 44.3916L34.2398 44.2125L34.209 44.1562L34.2416 44.1028C34.2435 44.0986 34.254 44.0845 34.2729 44.0603C34.2938 44.032 34.3249 43.9982 34.3661 43.959C34.4073 43.9199 34.4603 43.8799 34.5252 43.8391C34.5889 43.7953 34.6652 43.7573 34.754 43.7251C34.9529 43.6531 35.1323 43.6227 35.2922 43.6341C35.4521 43.6454 35.5888 43.6738 35.7022 43.7193C35.8176 43.7607 35.9052 43.8068 35.9652 43.8578C36.0272 43.9046 36.0603 43.929 36.0644 43.9309L36.1136 43.9806L36.0968 44.049L36.0742 44.1299C36.1442 44.1322 36.1985 44.1386 36.2368 44.1489C36.2771 44.1551 36.3004 44.1571 36.3065 44.1549L36.3782 44.1808L36.3923 44.2484C36.4108 44.3283 36.4293 44.4081 36.4479 44.4879C36.4683 44.5636 36.4924 44.6397 36.5201 44.7162C36.5999 44.9366 36.7031 45.1451 36.8297 45.3416C36.9562 45.5381 37.1035 45.7202 37.2715 45.8878L37.3056 45.9534C37.3197 46.021 37.3374 46.089 37.3588 46.1574C37.382 46.2217 37.4059 46.2875 37.4302 46.3549C37.602 46.8293 37.8585 47.2315 38.1995 47.5615L38.2245 47.5732L38.2395 47.6146C38.2495 47.6421 38.2574 47.6687 38.2632 47.6943C38.269 47.7199 38.2769 47.7464 38.2868 47.774C38.4686 48.2759 38.7681 48.711 39.1853 49.0793L39.2486 49.1394L39.2089 49.2161C39.2108 49.212 39.1955 49.2366 39.1629 49.2899C39.1334 49.3422 39.084 49.4068 39.015 49.4837C38.9489 49.5595 38.8604 49.6401 38.7493 49.7253C38.6371 49.8075 38.5014 49.8774 38.3423 49.935C38.2474 49.9693 38.1584 49.9912 38.0752 50.0005C37.9931 50.0129 37.9212 50.0199 37.8595 50.0215C37.7997 50.0189 37.7512 50.014 37.7139 50.0067C37.6767 49.9994 37.656 49.9948 37.6518 49.9929L37.5834 49.9761L37.566 49.8993C37.5525 49.8142 37.5328 49.7313 37.5071 49.6506C37.4833 49.5657 37.457 49.4835 37.4282 49.4039C37.2996 49.0489 37.1003 48.7039 36.8301 48.369L36.8118 48.3185C36.8024 48.2734 36.79 48.2294 36.7745 48.1866C36.7578 48.1407 36.7418 48.0963 36.7263 48.0534C36.6088 47.729 36.4422 47.4171 36.2265 47.1179C36.24 47.203 36.2587 47.288 36.2825 47.3728C36.3082 47.4535 36.3355 47.5337 36.3643 47.6132C36.3832 47.6653 36.403 47.7152 36.4238 47.7631C36.4435 47.8079 36.4658 47.8552 36.4908 47.905L36.499 47.9851C36.3636 48.5673 36.3945 49.1308 36.5918 49.6756C36.6035 49.6887 36.614 49.6987 36.6235 49.7057C36.636 49.7116 36.649 49.7189 36.6626 49.7279L36.741 49.7722Z" fill="#A31528"/>
<path d="M31.3594 51.0101L31.3489 51.0616C31.3494 51.0648 31.3392 51.0997 31.3183 51.1664C31.3005 51.2325 31.2566 51.3099 31.1867 51.3987C31.1194 51.4837 31.0193 51.5697 30.8862 51.6567C30.7557 51.74 30.58 51.8016 30.359 51.8417C30.2149 51.8679 30.0902 51.874 29.9851 51.86C29.8795 51.8428 29.7867 51.8149 29.707 51.7765C29.5637 51.8256 29.4238 51.8841 29.2872 51.9519C29.1533 52.0159 29.0232 52.0924 28.8971 52.1815L28.8718 52.2059L28.8412 52.2016C28.7612 52.2161 28.6837 52.2269 28.6089 52.2338C28.5373 52.2402 28.463 52.2504 28.3861 52.2643C28.1267 52.3114 27.8642 52.3872 27.5986 52.4916C27.3363 52.5955 27.1064 52.7232 26.9089 52.8748L26.8644 52.9028L26.8242 52.9002C26.8344 52.9016 26.8086 52.8964 26.7469 52.8844C26.6852 52.8725 26.6103 52.843 26.5224 52.7961C26.4351 52.7524 26.3453 52.686 26.253 52.5969C26.1634 52.504 26.0957 52.3773 26.0501 52.2169C25.9549 52.1845 25.8735 52.1464 25.806 52.1024C25.7411 52.0546 25.6866 52.0099 25.6427 51.9682C25.6019 51.926 25.5722 51.89 25.5536 51.8603C25.5344 51.8274 25.5245 51.8094 25.5239 51.8062L25.5056 51.7599L25.517 51.7131C25.5581 51.5932 25.5923 51.4811 25.6197 51.3769C25.6471 51.2727 25.6671 51.1731 25.6796 51.0782C25.6916 50.9801 25.6956 50.8834 25.6915 50.7882C25.6901 50.6892 25.6792 50.5837 25.6589 50.4716C25.635 50.3402 25.5987 50.1947 25.5498 50.0348L25.5481 49.9706C25.5947 49.7537 25.6216 49.5553 25.6286 49.3754C25.6389 49.1948 25.6283 49.0181 25.5969 48.8452C25.5789 48.7459 25.5542 48.6461 25.5228 48.546C25.4908 48.4426 25.455 48.3366 25.4154 48.228L25.3971 48.1817L25.4111 48.1494C25.4586 47.9919 25.4956 47.8495 25.5221 47.7223C25.5481 47.5919 25.5628 47.4635 25.5664 47.3371C25.5067 47.2818 25.4497 47.2045 25.3952 47.1052C25.3434 47.0021 25.3036 46.8737 25.2757 46.7199C25.2385 46.5149 25.2339 46.3437 25.2619 46.2063C25.2925 46.0651 25.3331 45.9519 25.3838 45.8666C25.4377 45.7807 25.4896 45.72 25.5394 45.6845C25.5892 45.649 25.6173 45.6307 25.6237 45.6295L25.6682 45.6016L25.715 45.6129C25.8966 45.666 26.0758 45.6963 26.2525 45.7039C26.4287 45.7084 26.6112 45.6934 26.8002 45.6591C26.8771 45.6452 26.9668 45.6289 27.0693 45.6103C27.1712 45.5885 27.2611 45.5556 27.3392 45.5117L27.3807 45.4942L27.4226 45.5065C27.6101 45.5551 27.7813 45.5869 27.9362 45.6018C28.0911 45.6167 28.2428 45.614 28.3913 45.5937C28.4649 45.5439 28.5488 45.4956 28.6429 45.4488C28.7369 45.4019 28.848 45.3669 28.9761 45.3436C29.1042 45.3204 29.2208 45.3157 29.3259 45.3297C29.4305 45.3405 29.5198 45.3591 29.5941 45.3853C29.6715 45.4109 29.7308 45.4366 29.7718 45.4622C29.8161 45.4873 29.8417 45.5008 29.8487 45.5028L29.9054 45.5422L29.8967 45.6033C29.887 45.7506 29.8842 45.8901 29.8882 46.0217C29.8949 46.1495 29.909 46.2727 29.9305 46.3912C29.9596 46.5513 30.0038 46.7038 30.0631 46.8485C30.1251 46.9894 30.2026 47.1342 30.2958 47.2827L30.3202 47.308L30.3176 47.3482C30.3204 47.4734 30.3256 47.5932 30.3332 47.7076C30.3401 47.8188 30.3535 47.9289 30.3733 48.0378C30.411 48.246 30.4682 48.4424 30.5447 48.627C30.6239 48.8078 30.7257 48.9862 30.8503 49.1621L30.8747 49.1874L30.8642 49.239C30.8546 49.3863 30.8512 49.5225 30.854 49.6477C30.8563 49.7697 30.8677 49.8868 30.888 49.9989C30.9188 50.1686 30.9699 50.3314 31.0411 50.4872C31.1118 50.6398 31.2092 50.8024 31.3332 50.9751L31.3594 51.0101ZM27.2904 48.0316L27.286 48.0622C27.2326 48.2968 27.2014 48.5076 27.1923 48.6945C27.1827 48.8783 27.1935 49.0566 27.2249 49.2295C27.2435 49.332 27.2685 49.4334 27.3 49.5335C27.3314 49.6337 27.3701 49.7375 27.416 49.845L27.4326 49.8816L27.4212 49.9284C27.3621 50.131 27.3199 50.309 27.2949 50.4625C27.2724 50.6121 27.27 50.7631 27.2877 50.9153C27.3629 50.8918 27.4441 50.8655 27.5315 50.8364C27.6188 50.8073 27.7027 50.7772 27.783 50.7461C27.866 50.7111 27.942 50.6742 28.011 50.6352C28.0833 50.5956 28.1418 50.5536 28.1867 50.509L28.2216 50.4828L28.2618 50.4855C28.3785 50.4907 28.4906 50.4886 28.5981 50.479C28.7087 50.4689 28.8153 50.4545 28.9178 50.4359C29.0587 50.4103 29.1979 50.3751 29.3353 50.3303C29.3024 50.2403 29.2642 50.148 29.2205 50.0534C29.1795 49.955 29.1312 49.8529 29.0756 49.7472L29.0556 49.6913C29.0551 49.4697 29.0362 49.2565 28.999 49.0515C28.9612 48.8433 28.9027 48.6488 28.8236 48.4679C28.7471 48.2833 28.6492 48.0993 28.5299 47.9158L28.5037 47.8809L28.5045 47.8311C28.5171 47.6998 28.5238 47.5728 28.5248 47.4503C28.5257 47.3277 28.5186 47.2066 28.5035 47.0869C28.4575 47.0886 28.4118 47.092 28.3663 47.0969C28.3241 47.1013 28.2822 47.1072 28.2405 47.1148C28.1509 47.131 28.0623 47.1537 27.975 47.1828C27.8876 47.2119 27.795 47.2486 27.6972 47.2928L27.6234 47.2963C27.5276 47.2971 27.4395 47.2949 27.3592 47.2896C27.2782 47.2812 27.196 47.2746 27.1124 47.2699C27.1147 47.3191 27.12 47.3661 27.1281 47.411C27.1362 47.4558 27.1444 47.5006 27.1525 47.5455C27.1653 47.6159 27.1816 47.6874 27.2014 47.7599C27.2243 47.8319 27.2514 47.908 27.2825 47.9884L27.2904 48.0316Z" fill="#A31528"/>
<path d="M21.7666 48.7211L21.7625 48.7517C21.7112 48.9868 21.6819 49.1979 21.6745 49.3849C21.6665 49.5687 21.679 49.7469 21.7119 49.9196C21.7314 50.0219 21.7574 50.123 21.7897 50.2229C21.822 50.3228 21.8616 50.4262 21.9086 50.5332L21.9255 50.5698L21.9145 50.6166C21.8566 50.8166 21.8157 50.9934 21.792 51.147C21.7709 51.2969 21.7702 51.4494 21.7899 51.6047C21.852 51.5829 21.9074 51.5608 21.9562 51.5382C22.0049 51.5157 22.0517 51.4918 22.0966 51.4667C22.1441 51.4377 22.1916 51.4088 22.2391 51.3798C22.2898 51.3503 22.3466 51.3179 22.4095 51.2827C22.4242 51.2733 22.4377 51.2657 22.4499 51.2601C22.4615 51.2513 22.4743 51.2405 22.4885 51.2279L22.5232 51.2014L22.5682 51.2027C22.6818 51.2076 22.7875 51.2056 22.8852 51.1969C22.9862 51.1876 23.0798 51.1747 23.1661 51.1582C23.3484 51.1234 23.5216 51.0672 23.6857 50.9895C23.8498 50.9118 24.0264 50.8035 24.2153 50.6647L24.2674 50.625L24.3208 50.6446C24.3246 50.6472 24.3501 50.6589 24.3971 50.6798C24.4442 50.7006 24.4994 50.7381 24.5627 50.7923C24.6287 50.8427 24.6967 50.9126 24.7668 51.0019C24.8362 51.0881 24.8959 51.201 24.9457 51.3406C24.9588 51.3745 24.9684 51.4075 24.9745 51.4395C24.9806 51.4715 24.9867 51.5034 24.9928 51.5354C25.0142 51.6473 25.0206 51.7505 25.0121 51.8449C25.0036 51.9393 24.9895 52.0215 24.9697 52.0916C24.9493 52.1584 24.9281 52.2122 24.9061 52.2529C24.8872 52.2929 24.8765 52.3149 24.8739 52.3187L24.836 52.3806L24.7748 52.3724C24.6726 52.3753 24.5758 52.3805 24.4845 52.388C24.3931 52.3955 24.3059 52.4072 24.2227 52.423C24.0341 52.459 23.8625 52.515 23.7079 52.5908C23.5566 52.6661 23.3952 52.7665 23.2236 52.892L23.1889 52.9186L23.1583 52.9144C23.0847 52.9285 23.0122 52.939 22.9406 52.946C22.869 52.9531 22.7997 52.963 22.7325 52.9758C22.4927 53.0216 22.2645 53.0933 22.0478 53.191C21.8312 53.2886 21.6248 53.4142 21.4287 53.5676L21.3844 53.5959L21.3442 53.5936C21.3544 53.595 21.3286 53.59 21.2668 53.5786C21.205 53.5672 21.1299 53.5384 21.0416 53.4923C20.9538 53.4494 20.8634 53.3838 20.7704 53.2955C20.6799 53.2034 20.6111 53.0774 20.564 52.9173C20.4685 52.8859 20.3868 52.8484 20.3189 52.805C20.2535 52.7579 20.1987 52.7136 20.1544 52.6724C20.1133 52.6305 20.0833 52.5948 20.0644 52.5653C20.0449 52.5326 20.0348 52.5146 20.0342 52.5114L20.0154 52.4653L20.0264 52.4184C20.0664 52.2981 20.0996 52.1858 20.1261 52.0813C20.1526 51.9768 20.1716 51.8771 20.1833 51.7821C20.1944 51.6838 20.1975 51.5871 20.1926 51.492C20.1903 51.393 20.1785 51.2875 20.1571 51.1756C20.1321 51.0445 20.0944 50.8993 20.0441 50.7399L20.0418 50.6757C20.0865 50.4584 20.1116 50.2597 20.117 50.0797C20.1256 49.8991 20.1135 49.7225 20.0805 49.5498C20.0616 49.4507 20.036 49.3512 20.0037 49.2513C19.9707 49.1483 19.934 49.0426 19.8935 48.9343L19.8747 48.8882L19.8884 48.8558C19.9345 48.6979 19.9703 48.5552 19.9956 48.4277C20.0204 48.297 20.034 48.1685 20.0364 48.0421C19.9762 47.9873 19.9185 47.9105 19.8632 47.8117C19.8105 47.7091 19.7695 47.5811 19.7402 47.4276C19.7011 47.2229 19.695 47.0518 19.7217 46.9141C19.7511 46.7727 19.7907 46.6591 19.8406 46.5733C19.8938 46.487 19.945 46.4258 19.9945 46.3898C20.044 46.3539 20.0719 46.3353 20.0783 46.3341L20.1226 46.3058L20.1695 46.3167C20.3516 46.3681 20.5311 46.3968 20.7078 46.4029C20.884 46.4057 21.0664 46.3891 21.2551 46.3531C21.3318 46.3385 21.4214 46.3214 21.5237 46.3019C21.6254 46.2792 21.7151 46.2455 21.7927 46.2008L21.8341 46.183L21.8761 46.1949C22.0806 46.242 22.2639 46.2733 22.4259 46.2888C22.5905 46.3005 22.7543 46.2907 22.9174 46.2596C23.0165 46.2407 23.1144 46.2154 23.2111 46.1837C23.3104 46.1482 23.4132 46.1054 23.5197 46.0552L23.5754 46.0347L23.6211 46.0657C23.6249 46.0683 23.6458 46.0825 23.6839 46.1084C23.722 46.1343 23.7631 46.1761 23.8073 46.234C23.8547 46.2912 23.9022 46.3667 23.9499 46.4603C23.997 46.5507 24.0333 46.6631 24.059 46.7974L24.0736 46.8741C24.0915 47.0198 24.0884 47.1513 24.0644 47.2686C24.0429 47.382 24.0149 47.4785 23.9804 47.558C23.9452 47.6343 23.9102 47.694 23.8754 47.7371C23.8437 47.7796 23.8266 47.8028 23.824 47.8066L23.769 47.8568L23.7078 47.8486C23.5039 47.8047 23.3231 47.7779 23.1655 47.7682C23.0111 47.7579 22.8588 47.7671 22.7085 47.7957C22.6189 47.8128 22.5306 47.8363 22.4435 47.8662C22.3564 47.896 22.2642 47.9335 22.1667 47.9786L22.093 47.9828C21.9972 47.9845 21.9091 47.9831 21.8287 47.9785C21.7477 47.9708 21.6654 47.9649 21.5818 47.961C21.5845 48.0102 21.5902 48.0572 21.5987 48.1019C21.6073 48.1467 21.6158 48.1915 21.6244 48.2362C21.6378 48.3066 21.6547 48.3779 21.6751 48.4502C21.6988 48.5219 21.7265 48.5978 21.7583 48.6779L21.7666 48.7211Z" fill="#A31528"/>
<path d="M26.5215 3.85317L28.3299 7.28914L30.8994 4.43834L29.7963 8.14457L33.615 7.99134L30.2465 9.79678L33.0776 12.4309L29.417 11.2779L29.6019 15.1563L27.7935 11.7203L25.2241 14.5711L26.3272 10.8649L22.5085 11.0182L25.8769 9.21271L23.0459 6.57862L26.7065 7.73157L26.5215 3.85317Z" fill="url(#paint0_radial_144_194)"/>
<path d="M36.9042 19.0496L38.7126 22.4855L41.2821 19.6347L40.179 23.341L43.9977 23.1877L40.6292 24.9932L43.4602 27.6273L39.7997 26.4743L39.9846 30.3527L38.1762 26.9168L35.6068 29.7676L36.7099 26.0613L32.8912 26.2146L36.2596 24.4091L33.4286 21.775L37.0892 22.928L36.9042 19.0496Z" fill="url(#paint1_radial_144_194)"/>
<defs>
<radialGradient id="paint0_radial_144_194" cx="0" cy="0" r="1" gradientUnits="userSpaceOnUse" gradientTransform="translate(28.0617 9.50474) rotate(74.7556) scale(5.85769 5.75578)">
<stop offset="0.0528846" stop-color="#F2B713"/>
<stop offset="0.75" stop-color="#DC4920"/>
</radialGradient>
<radialGradient id="paint1_radial_144_194" cx="0" cy="0" r="1" gradientUnits="userSpaceOnUse" gradientTransform="translate(38.4444 24.7012) rotate(74.7556) scale(5.85769 5.75578)">
<stop offset="0.0528846" stop-color="#F2B713"/>
<stop offset="0.75" stop-color="#DC4920"/>
</radialGradient>
</defs>
</svg>
