<svg width="49" height="43" viewBox="0 0 49 43" fill="none" xmlns="http://www.w3.org/2000/svg">
<path d="M10.7175 11.4976C10.4806 11.3633 10.2223 11.1758 10.0905 11.0595C10.0914 11.0326 10.0931 11.0067 10.0966 10.9825C10.1435 10.8152 10.17 10.44 10.2171 10.1734C10.2639 10.0934 10.3363 10.0332 10.4113 9.97303C10.6129 9.81134 10.9391 9.54781 11.2876 9.12988C11.4547 8.92948 11.6112 8.78816 11.7688 8.56838C11.9225 8.35414 12.0339 8.17005 12.1699 7.90638C12.27 7.71219 12.3254 7.49014 12.4573 7.1505C12.5508 6.90977 12.6149 6.68887 12.7047 6.51558C12.8052 6.32159 12.8629 6.12312 12.9789 5.9272C13.086 5.74625 13.2783 5.38391 13.474 5.11113C13.6614 4.84994 13.8466 4.59741 14.0088 4.28182C14.1428 4.02103 14.2965 3.77603 14.4636 3.55322C14.6243 3.33897 14.8079 3.14936 14.9721 2.97126C15.2125 2.71067 15.3243 2.53117 15.4999 2.3564C15.7092 2.14817 16.0409 1.90339 16.2562 1.8284C16.5637 1.72128 16.7755 1.63226 17.1012 1.63482C17.9945 1.64184 18.2898 1.6622 18.5562 1.70182C18.7841 1.73572 19.021 1.83322 19.245 1.86231C19.5062 1.89621 19.8424 2.00195 20.074 2.15018C20.2413 2.2573 20.4821 2.36384 20.7699 2.54497C21.0573 2.72592 21.222 2.90893 21.3645 3.11349C21.6752 3.55964 22.0601 4.23327 22.2002 4.39717C22.3958 4.62606 22.7236 4.83247 22.8558 5.01263C23.0225 5.23992 23.1046 5.41352 23.2369 5.62829C23.451 5.97574 23.6944 6.16492 23.6439 6.44396C23.5834 6.77897 23.582 7.09503 23.4833 7.24578C23.3691 7.42011 23.1588 7.61791 23.0485 7.80748C22.9551 7.96817 22.8569 8.15048 22.808 8.3762C22.7545 8.62375 22.7631 8.88914 22.6072 9.18525C22.4728 9.44062 22.3683 9.78043 22.1388 10.0679C21.9785 10.2687 21.8879 10.4943 21.6774 10.683C21.4834 10.8569 21.3253 11.0975 21.156 11.2511C21.0156 11.3785 20.9032 11.5546 20.7412 11.7464C20.5205 12.0076 20.2786 12.23 20.038 12.5837C19.6114 13.2112 19.582 13.5256 19.4376 13.8058C19.3305 14.0136 19.1416 14.211 18.9159 14.5615C18.7953 14.7487 18.7204 15.2116 18.4811 15.1557C18.3945 15.1354 18.2806 15.0933 18.1668 15.0283C17.9792 14.9212 17.803 14.8175 17.6251 14.7543C17.4175 14.6805 17.2241 14.5872 17.0703 14.5001C16.8687 14.386 16.5298 14.2959 16.0733 14.0718C15.649 13.8636 15.0873 13.6346 14.7226 13.5037C14.4622 13.4102 13.8294 13.1698 13.3855 12.9017C13.1647 12.7683 13.0312 12.6098 12.6361 12.4403C12.213 12.2587 11.7191 12.0207 11.3724 11.872C11.092 11.7516 10.9113 11.6076 10.7175 11.4976Z" fill="#74C279"/>
<path d="M10.0095 10.9765C10.0625 11.0563 10.4083 11.3223 10.7175 11.4976C10.9113 11.6076 11.092 11.7516 11.3724 11.872C11.7191 12.0207 12.213 12.2587 12.6361 12.4403C13.0312 12.6098 13.1647 12.7683 13.3855 12.9017C13.8294 13.1698 14.4622 13.4102 14.7226 13.5037C15.0873 13.6346 15.649 13.8636 16.0733 14.0718C16.5298 14.2959 16.8687 14.386 17.0703 14.5001C17.2241 14.5872 17.4175 14.6805 17.6251 14.7543C17.803 14.8175 17.9792 14.9212 18.1668 15.0283C18.2806 15.0933 18.3945 15.1354 18.4811 15.1557C18.7204 15.2116 18.7953 14.7487 18.9159 14.5615C19.1416 14.211 19.3305 14.0136 19.4376 13.8058C19.582 13.5256 19.6114 13.2112 20.038 12.5837C20.2786 12.23 20.5205 12.0076 20.7412 11.7464C20.9032 11.5546 21.0156 11.3785 21.156 11.2511C21.3253 11.0975 21.4834 10.8569 21.6774 10.683C21.8879 10.4943 21.9785 10.2687 22.1388 10.0679C22.3683 9.78043 22.4728 9.44062 22.6072 9.18525C22.7631 8.88914 22.7545 8.62375 22.808 8.3762C22.8569 8.15048 22.9551 7.96817 23.0485 7.80748C23.1588 7.61791 23.3691 7.42011 23.4833 7.24578C23.582 7.09503 23.5834 6.77897 23.6439 6.44396C23.6944 6.16492 23.451 5.97574 23.2369 5.62829C23.1046 5.41352 23.0225 5.23992 22.8558 5.01263C22.7236 4.83247 22.3958 4.62606 22.2002 4.39717C22.0601 4.23327 21.6752 3.55964 21.3645 3.11349C21.222 2.90893 21.0573 2.72592 20.7699 2.54497C20.4821 2.36384 20.2413 2.2573 20.074 2.15018C19.8424 2.00195 19.5062 1.89621 19.245 1.86231C19.021 1.83322 18.7841 1.73572 18.5562 1.70182C18.2898 1.6622 17.9945 1.64184 17.1012 1.63482C16.7755 1.63226 16.5637 1.72128 16.2562 1.8284C16.0409 1.90339 15.7092 2.14817 15.4999 2.3564C15.3243 2.53117 15.2125 2.71067 14.9721 2.97126C14.8079 3.14936 14.6243 3.33897 14.4636 3.55322C14.2965 3.77603 14.1428 4.02103 14.0088 4.28182C13.8466 4.59741 13.6614 4.84994 13.474 5.11113C13.2783 5.38391 13.086 5.74625 12.9789 5.9272C12.8629 6.12312 12.8052 6.32159 12.7047 6.51558C12.6149 6.68887 12.5508 6.90977 12.4573 7.1505C12.3254 7.49014 12.27 7.71219 12.1699 7.90638C12.0339 8.17005 11.9225 8.35414 11.7688 8.56838C11.6112 8.78816 11.4547 8.92948 11.2876 9.12988C10.9391 9.54781 10.6129 9.81134 10.4113 9.97303C10.3363 10.0332 10.2639 10.0934 10.2171 10.1734C10.17 10.44 10.1435 10.8152 10.0966 10.9825C10.0898 11.0294 10.0898 11.0824 10.0898 11.1369" stroke="#74C279" stroke-width="0.8" stroke-linecap="round"/>
<path d="M20.9085 1.061C20.7721 0.974411 20.953 0.83674 20.8987 0.791469C20.9081 0.768698 20.5275 0.692968 20.9583 0.683968C21.389 0.674969 22.1991 0.682895 22.6225 0.670332C23.082 0.656697 23.2214 0.664776 23.3871 0.643061C23.4911 0.629425 23.9545 0.649088 24.5931 0.615789C24.8547 0.602153 24.9377 0.600313 25.0277 0.588518C25.2005 0.565882 25.3487 0.568525 25.5093 0.533974C25.5727 0.520339 26.0179 0.539868 26.643 0.506703C26.9001 0.493067 27.0136 0.508152 27.1321 0.479431C27.2639 0.447524 27.3905 0.412238 27.8986 0.406753C28.3154 0.402253 29.0986 0.39411 29.5038 0.406889C29.9362 0.420525 30.1316 0.405598 30.387 0.43416C30.5089 0.447796 30.7439 0.411152 31.0508 0.461432C31.2455 0.49334 31.3749 0.521619 31.5136 0.566019C31.6273 0.602426 31.7411 0.624069 31.8681 0.675105C31.9818 0.720785 32.0893 0.779647 32.2045 0.811463C32.3364 0.84787 32.5922 0.89358 32.7227 1.03904C32.8453 1.17567 32.8916 1.32247 33.0049 1.44416C33.2543 1.71183 33.3622 1.80358 33.4867 1.93042C33.7272 2.17545 33.8252 2.27981 33.8906 2.39812C33.9634 2.52998 33.9908 2.66961 34.0587 2.77993C34.1456 2.92106 34.3403 3.12734 34.4588 3.27068C34.5454 3.3754 34.6331 3.48581 34.7087 3.61621C34.7908 3.75775 34.8876 3.91519 34.9997 4.05255C35.1001 4.17555 35.2401 4.29363 35.3087 4.41158C35.3722 4.52081 35.4254 4.69479 35.5041 4.82066C35.5724 4.92988 35.6499 5.05468 35.7131 5.19796C35.7633 5.31168 35.7213 5.56606 35.836 5.56572C35.8814 5.56558 35.9633 5.52015 36.0998 5.44722C36.2362 5.37441 36.3399 5.3094 36.4542 5.26096C36.5727 5.21078 36.6848 5.13177 36.8088 5.07456C36.9273 5.01988 37.1887 4.94368 37.4272 4.82448C37.5818 4.74716 37.7408 4.65251 37.8405 4.54262C37.927 4.44717 38.0052 4.31757 38.1223 4.25641C38.227 4.20173 38.3265 4.124 38.4497 4.08828C38.5908 4.04737 38.868 3.85658 38.8539 3.99324C38.8445 4.08446 38.8082 4.19328 38.7718 4.3025C38.7354 4.41172 38.6764 4.51771 38.608 4.62976C38.5074 4.79461 38.3965 5.15454 38.2033 5.39813C38.0989 5.52986 38.0288 5.67201 37.9216 5.79794C37.8169 5.92093 37.7159 6.06263 37.6763 6.20278C37.6172 6.41182 37.5643 6.61886 37.4854 6.80712C37.4263 6.94798 37.4032 7.08174 37.3035 7.2616C37.2354 7.38432 37.1605 7.4817 37.0621 7.68077C36.8716 8.06611 36.8161 8.17433 36.7354 8.35246C36.6715 8.49373 36.5496 8.64792 36.4534 8.80245C36.3627 8.94808 36.2738 9.14415 36.2674 9.3581C36.2538 9.81703 36.2023 9.99335 36.1504 10.1709L36.1489 10.1758C36.0535 10.5026 36.0017 10.6419 35.9124 10.7664C35.7164 11.0393 35.5517 11.2265 35.4126 11.4797C35.3352 11.6207 35.2748 11.7695 35.2218 11.916C35.1443 12.1307 35.1098 12.3989 35.0082 12.6023C34.9446 12.7296 34.9471 12.8881 34.8079 12.9565C34.7712 12.9745 34.726 12.9758 34.6898 12.9698C34.553 12.9472 34.3695 12.9456 34.1989 12.9153C34.0714 12.8926 33.9291 12.8492 33.7571 12.8426C33.3989 12.8288 33.2729 12.7981 33.0802 12.7881C32.8169 12.7743 32.6545 12.7462 32.4622 12.7335C32.2535 12.7197 31.8891 12.6987 31.6216 12.679C31.4348 12.6652 31.1448 12.6377 30.9259 12.6244C30.699 12.6107 30.501 12.577 30.235 12.5471C29.9894 12.5196 29.7559 12.4516 29.3392 12.3833C29.0621 12.3379 28.8974 12.3102 28.7218 12.2653C28.5434 12.2196 28.2933 12.1459 28.1582 12.1335C28.0078 12.1198 27.8458 12.0789 27.6945 12.0471C27.6083 12.0289 27.0971 12.0763 26.3923 12.0153C25.9161 11.9741 25.6786 11.9425 25.4717 11.9062C25.2899 11.8743 24.6542 12.0441 24.5953 11.7834C24.5912 11.7652 24.6192 11.7576 24.6456 11.7378C24.7549 11.6561 24.8751 11.6201 24.9729 11.5469C25.0821 11.4652 25.206 11.3848 25.3274 11.338C25.4459 11.2923 25.6338 11.2532 25.7912 11.1789C25.9368 11.1102 26.0773 10.9968 26.1774 10.906L26.1803 10.9034C26.2746 10.8178 26.3611 10.7393 26.4728 10.688C26.5821 10.6378 26.7012 10.6044 26.8001 10.5425C26.9093 10.4742 27.1041 10.4451 27.1635 10.2782C27.1815 10.2277 27.1978 10.1513 27.1769 10.1058C27.1079 9.95549 26.9961 9.81249 26.9404 9.70145C26.881 9.58296 26.7857 9.46049 26.6354 9.29211C26.483 9.12135 26.4179 8.99201 26.3651 8.88701L26.3632 8.88331C26.3083 8.77408 26.2568 8.65497 26.1949 8.55605C26.1266 8.44682 26.0603 8.29762 25.9766 8.16961C25.8905 8.03775 25.8521 7.90213 25.7812 7.78781C25.6996 7.65595 25.6517 7.51455 25.6041 7.35596C25.5632 7.2196 25.5362 7.09853 25.4358 6.91048C25.363 6.77399 25.3312 6.63476 25.172 6.37391C25.0723 6.21055 24.9587 6.13175 24.6169 5.38613C24.4903 5.11015 24.4415 4.97051 24.3949 4.90152C24.2902 4.74662 24.1766 4.61316 24.1314 4.49258C24.0905 4.38336 24.0552 4.26683 23.9813 4.11051C23.8996 3.93774 23.7936 3.70199 23.5721 3.45149C23.472 3.33831 23.3241 3.23231 23.1539 3.10173C23.0357 3.01105 22.953 2.92833 22.8175 2.82901C22.6811 2.72906 22.562 2.63019 22.445 2.50176C22.3539 2.40181 22.2138 2.3068 22.1039 2.19263C21.9814 2.06527 21.8637 1.94748 21.754 1.8381C21.6077 1.6922 21.2035 1.24834 20.9085 1.061Z" fill="#74C279" stroke="#74C279" stroke-width="0.8" stroke-linecap="round"/>
<path d="M38.9629 12.0569C39.1978 11.9193 39.4896 11.7897 39.6562 11.734C39.6791 11.7482 39.7006 11.7626 39.7198 11.7778C39.8411 11.9023 40.1524 12.1132 40.3595 12.2876C40.4054 12.3682 40.4212 12.461 40.4356 12.5561C40.4745 12.8116 40.5391 13.2259 40.7261 13.7369C40.8158 13.9819 40.8596 14.1882 40.9708 14.4348C41.0792 14.6751 41.1827 14.8638 41.3427 15.1136C41.4606 15.2975 41.6249 15.4568 41.8527 15.7411C42.0142 15.9427 42.1732 16.1088 42.2782 16.2734C42.3957 16.4576 42.5385 16.607 42.6499 16.8056C42.7528 16.9889 42.97 17.3369 43.108 17.643C43.2401 17.936 43.3658 18.2229 43.5576 18.5214C43.7161 18.7681 43.8511 19.0238 43.9602 19.2801C44.0651 19.5265 44.1371 19.7804 44.2089 20.0118C44.314 20.3504 44.4133 20.5371 44.4765 20.7767C44.5518 21.0621 44.5974 21.4719 44.5544 21.6957C44.4929 22.0156 44.4639 22.2434 44.2984 22.524C43.8447 23.2935 43.679 23.5388 43.5112 23.7495C43.3677 23.9297 43.1646 24.0858 43.0271 24.2652C42.8669 24.4742 42.6069 24.7121 42.3626 24.8382C42.1861 24.9293 41.9732 25.0843 41.6722 25.2425C41.3716 25.4006 41.1307 25.4514 40.8822 25.4721C40.3404 25.5175 39.5646 25.513 39.3526 25.552C39.0565 25.6066 38.7135 25.7868 38.4914 25.8109C38.2112 25.8412 38.0198 25.8253 37.7676 25.8322C37.3597 25.8433 37.074 25.9591 36.8578 25.7756C36.5983 25.5553 36.3255 25.3957 36.2445 25.2347C36.1508 25.0486 36.0851 24.7675 35.9763 24.577C35.8841 24.4156 35.7755 24.2392 35.6047 24.0839C35.4173 23.9134 35.1833 23.7879 35.0052 23.5046C34.8516 23.2603 34.6099 22.9996 34.4761 22.6569C34.3827 22.4176 34.2329 22.2261 34.1751 21.9494C34.1218 21.6944 33.9929 21.437 33.9448 21.2135C33.9049 21.0282 33.8089 20.8426 33.7241 20.6063C33.6087 20.2844 33.5375 19.9636 33.3519 19.5782C33.0227 18.8945 32.7653 18.7115 32.5953 18.4462C32.4691 18.2493 32.393 17.9869 32.2028 17.6159C32.1013 17.4178 31.7382 17.121 31.9065 16.9419C31.9675 16.8771 32.0609 16.7997 32.1743 16.7338C32.361 16.6251 32.539 16.5246 32.6829 16.4024C32.8508 16.2597 33.0284 16.1391 33.1809 16.0496C33.3807 15.9323 33.6285 15.6842 34.0512 15.4015C34.444 15.1387 34.9236 14.7673 35.2197 14.5174C35.4311 14.3389 35.9563 13.9118 36.4107 13.6621C36.6369 13.5378 36.8409 13.5017 37.1856 13.2448C37.5548 12.9696 38.0082 12.6615 38.3107 12.4361C38.5554 12.2537 38.7706 12.1696 38.9629 12.0569Z" fill="#74C279"/>
<path d="M39.7687 11.7055C39.673 11.7113 39.2695 11.8773 38.9629 12.0569C38.7706 12.1696 38.5554 12.2537 38.3107 12.4361C38.0082 12.6615 37.5548 12.9696 37.1856 13.2448C36.8409 13.5017 36.6369 13.5378 36.4107 13.6621C35.9563 13.9118 35.4311 14.3389 35.2197 14.5174C34.9236 14.7673 34.444 15.1387 34.0512 15.4015C33.6285 15.6842 33.3807 15.9323 33.1809 16.0496C33.0284 16.1391 32.8508 16.2597 32.6829 16.4024C32.539 16.5246 32.361 16.6251 32.1743 16.7338C32.0609 16.7997 31.9675 16.8771 31.9065 16.9419C31.7382 17.121 32.1013 17.4178 32.2028 17.6159C32.393 17.9869 32.4691 18.2493 32.5953 18.4462C32.7653 18.7115 33.0227 18.8945 33.3519 19.5782C33.5375 19.9636 33.6087 20.2844 33.7241 20.6063C33.8089 20.8426 33.9049 21.0282 33.9448 21.2135C33.9929 21.437 34.1218 21.6944 34.1751 21.9494C34.2329 22.2261 34.3827 22.4176 34.4761 22.6569C34.6099 22.9996 34.8516 23.2603 35.0052 23.5046C35.1833 23.7879 35.4173 23.9134 35.6047 24.0839C35.7755 24.2392 35.8841 24.4156 35.9763 24.577C36.0851 24.7675 36.1508 25.0486 36.2445 25.2347C36.3255 25.3957 36.5983 25.5553 36.8578 25.7756C37.074 25.9591 37.3597 25.8433 37.7676 25.8322C38.0198 25.8253 38.2112 25.8412 38.4914 25.8109C38.7135 25.7868 39.0565 25.6066 39.3526 25.552C39.5646 25.513 40.3404 25.5175 40.8822 25.4721C41.1307 25.4514 41.3716 25.4006 41.6722 25.2425C41.9732 25.0843 42.1861 24.9293 42.3626 24.8382C42.6069 24.7121 42.8669 24.4742 43.0271 24.2652C43.1646 24.0858 43.3677 23.9297 43.5112 23.7495C43.679 23.5388 43.8447 23.2935 44.2984 22.524C44.4639 22.2434 44.4929 22.0156 44.5544 21.6957C44.5974 21.4719 44.5518 21.0621 44.4765 20.7767C44.4133 20.5371 44.314 20.3504 44.2089 20.0118C44.1371 19.7804 44.0651 19.5265 43.9602 19.2801C43.8511 19.0238 43.7161 18.7681 43.5576 18.5214C43.3658 18.2229 43.2401 17.936 43.108 17.643C42.97 17.3369 42.7528 16.9889 42.6499 16.8056C42.5385 16.607 42.3957 16.4576 42.2782 16.2734C42.1732 16.1088 42.0142 15.9427 41.8527 15.7411C41.6249 15.4568 41.4606 15.2975 41.3427 15.1136C41.1827 14.8638 41.0792 14.6751 40.9708 14.4348C40.8596 14.1882 40.8158 13.9819 40.7261 13.7369C40.5391 13.2259 40.4745 12.8116 40.4356 12.5561C40.4212 12.461 40.4054 12.3682 40.3595 12.2876C40.1524 12.1132 39.8411 11.9023 39.7198 11.7778C39.6826 11.7484 39.6368 11.7218 39.5896 11.6945" stroke="#74C279" stroke-width="0.8" stroke-linecap="round"/>
<path d="M42.8858 26.1054C43.0291 26.0308 43.0576 26.2563 43.124 26.232C43.139 26.2516 43.3952 25.9602 43.1872 26.3374C42.9791 26.7147 42.5662 27.4118 42.3649 27.7844C42.1464 28.1889 42.0696 28.3055 42.0053 28.4597C41.965 28.5566 41.7157 28.9477 41.4245 29.5171C41.3052 29.7502 41.2652 29.823 41.2303 29.9068C41.1633 30.0676 41.0867 30.1946 41.0361 30.3509C41.0161 30.4126 40.7762 30.788 40.4916 31.3456C40.3745 31.5749 40.3046 31.6655 40.27 31.7825C40.2316 31.9125 40.1987 32.0397 39.9488 32.4822C39.7438 32.8452 39.3583 33.527 39.1442 33.8712C38.9157 34.2385 38.8307 34.4152 38.678 34.6218C38.6051 34.7205 38.519 34.9422 38.3217 35.1826C38.1965 35.3351 38.1072 35.4329 37.9993 35.5306C37.9108 35.6108 37.835 35.6984 37.7272 35.7828C37.6307 35.8583 37.5259 35.9218 37.4406 36.0055C37.343 36.1014 37.1753 36.2998 36.984 36.3399C36.8043 36.3775 36.6541 36.3439 36.492 36.3811C36.1353 36.4627 36.0019 36.5101 35.8297 36.5543C35.4972 36.6396 35.3577 36.6721 35.2226 36.6694C35.072 36.6663 34.9374 36.6201 34.8079 36.6235C34.6423 36.628 34.3662 36.6931 34.1828 36.7238C34.0487 36.7462 33.9092 36.7668 33.7585 36.7669C33.5949 36.767 33.4101 36.7719 33.2351 36.8C33.0783 36.8252 32.906 36.8872 32.7695 36.8875C32.6432 36.8877 32.466 36.8465 32.3176 36.8516C32.1889 36.8559 32.042 36.8605 31.8863 36.8434C31.7628 36.8298 31.5637 36.6659 31.5065 36.7654C31.4839 36.8047 31.4822 36.8984 31.4768 37.0531C31.4715 37.2076 31.4758 37.3298 31.4604 37.4531C31.4445 37.5808 31.4567 37.7174 31.444 37.8533C31.432 37.9833 31.3669 38.2477 31.3505 38.5138C31.34 38.6863 31.3422 38.8713 31.3873 39.0127C31.4265 39.1354 31.4995 39.268 31.4937 39.4C31.4886 39.518 31.506 39.643 31.4751 39.7676C31.4398 39.9102 31.466 40.2457 31.3548 40.165C31.2806 40.1111 31.2046 40.0252 31.1284 39.9389C31.0521 39.8527 30.9899 39.7486 30.9272 39.6332C30.835 39.4635 30.5791 39.1872 30.4651 38.8979C30.4035 38.7415 30.3156 38.6097 30.2604 38.4538C30.2064 38.3015 30.1344 38.1431 30.033 38.0386C29.8817 37.8827 29.729 37.7332 29.6057 37.5705C29.5134 37.4488 29.4092 37.3618 29.3036 37.1853C29.2315 37.065 29.1847 36.9513 29.0618 36.7664C28.8238 36.4085 28.758 36.3061 28.6443 36.1471C28.5541 36.0209 28.4817 35.8382 28.3962 35.6775C28.3156 35.5261 28.1905 35.3508 28.0086 35.2381C27.6183 34.9963 27.4915 34.8634 27.3639 34.7295L27.3603 34.7258C27.1254 34.4794 27.0308 34.3648 26.9678 34.2251C26.8299 33.9187 26.7505 33.6824 26.601 33.4351C26.5179 33.2974 26.4193 33.1706 26.3191 33.0514C26.1722 32.8767 25.9574 32.7124 25.8323 32.5225C25.754 32.4038 25.6156 32.3264 25.6262 32.1717C25.629 32.1309 25.6505 32.0912 25.6738 32.0628C25.762 31.9558 25.8553 31.7978 25.967 31.6654C26.0505 31.5664 26.1594 31.465 26.2513 31.3195C26.4428 31.0164 26.5325 30.9227 26.6378 30.7611C26.7817 30.5401 26.8874 30.4136 26.9947 30.2536C27.1112 30.0799 27.3121 29.7751 27.4632 29.5535C27.5687 29.3988 27.7378 29.1616 27.859 28.9788C27.9847 28.7894 28.113 28.635 28.2722 28.4197C28.4191 28.221 28.5949 28.053 28.8628 27.7266C29.041 27.5096 29.1476 27.3809 29.2745 27.2515C29.4034 27.1201 29.5925 26.9405 29.6709 26.8298C29.7582 26.7066 29.8747 26.5868 29.9781 26.4719C30.037 26.4064 30.2523 25.9403 30.6582 25.3609C30.9325 24.9695 31.0789 24.7798 31.214 24.619C31.3327 24.4777 31.5044 23.8424 31.7595 23.9222C31.7772 23.9277 31.7698 23.9558 31.7737 23.9885C31.7896 24.124 31.7606 24.2461 31.7749 24.3674C31.7908 24.5029 31.7983 24.6504 31.778 24.7789C31.7581 24.9043 31.6979 25.0866 31.6833 25.26C31.6697 25.4204 31.6974 25.5988 31.7258 25.7309L31.7267 25.7347C31.7534 25.8592 31.778 25.9734 31.7664 26.0958C31.7551 26.2155 31.7244 26.3353 31.7283 26.452C31.7327 26.5807 31.6602 26.7638 31.7749 26.8989C31.8096 26.9398 31.8675 26.9921 31.9174 26.9969C32.0821 27.0125 32.2618 26.9874 32.3858 26.9949C32.5181 27.0028 32.6719 26.9817 32.8929 26.9361C33.1171 26.8897 33.2616 26.8983 33.3789 26.9052L33.3831 26.9054C33.5051 26.9126 33.634 26.9278 33.7506 26.9238C33.8793 26.9194 34.0417 26.9368 34.1944 26.9286C34.3517 26.9201 34.4883 26.9548 34.6227 26.9508C34.7778 26.9462 34.9241 26.9757 35.0852 27.014C35.2237 27.0469 35.342 27.0842 35.555 27.0916C35.7096 27.097 35.8461 27.1392 36.1516 27.1322C36.3429 27.1278 36.468 27.069 37.2846 27.1469C37.5868 27.1757 37.7321 27.2034 37.8152 27.1976C38.0017 27.1847 38.1741 27.1533 38.3011 27.1746C38.4161 27.194 38.5346 27.2218 38.7069 27.2362C38.8974 27.2521 39.1545 27.2785 39.4823 27.2124C39.6304 27.1825 39.7962 27.1076 39.9946 27.0257C40.1323 26.9689 40.2453 26.9388 40.3991 26.8713C40.554 26.8034 40.6992 26.7499 40.869 26.713C41.0012 26.6842 41.1536 26.6106 41.3075 26.5728C41.4791 26.5305 41.64 26.4878 41.7896 26.4477C41.9892 26.3942 42.5759 26.2668 42.8858 26.1054Z" fill="#74C279" stroke="#74C279" stroke-width="0.8" stroke-linecap="round"/>
<path d="M22.8384 36.8174C22.8287 37.0895 22.7817 37.4053 22.7394 37.5759C22.7152 37.5875 22.6915 37.598 22.6683 37.6061C22.4982 37.6417 22.1533 37.7915 21.895 37.8728C21.8025 37.8683 21.7156 37.8319 21.6276 37.7932C21.3911 37.689 21.0067 37.5215 20.475 37.4055C20.2201 37.3498 20.0225 37.2763 19.7547 37.238C19.4937 37.2007 19.279 37.1869 18.9824 37.1881C18.7639 37.189 18.5413 37.2424 18.1792 37.2823C17.9225 37.3106 17.6969 37.3558 17.5018 37.3562C17.2833 37.3567 17.0806 37.3971 16.8533 37.3848C16.6433 37.3733 16.2331 37.3701 15.9008 37.3226C15.5826 37.2771 15.273 37.2294 14.9182 37.2313C14.625 37.2329 14.3367 37.2098 14.0619 37.1645C13.7977 37.121 13.5447 37.0457 13.3109 36.9823C12.9687 36.8895 12.7579 36.8732 12.5217 36.7982C12.2404 36.7088 11.87 36.5276 11.7041 36.3713C11.467 36.148 11.2903 36.0014 11.1421 35.7113C10.7357 34.9158 10.6174 34.6444 10.5295 34.3899C10.4543 34.1721 10.4313 33.9169 10.3536 33.7048C10.263 33.4575 10.2015 33.1104 10.226 32.8366C10.2438 32.6388 10.227 32.3759 10.2547 32.037C10.2824 31.6985 10.3687 31.4679 10.4843 31.2471C10.7365 30.7654 11.1561 30.1128 11.2368 29.9129C11.3495 29.6337 11.3811 29.2476 11.4799 29.0472C11.6045 28.7943 11.7205 28.6413 11.8499 28.4247C12.0591 28.0744 12.1145 27.7711 12.3853 27.687C12.7104 27.5859 12.9914 27.4412 13.1707 27.4591C13.378 27.4798 13.6506 27.5749 13.8696 27.5852C14.0553 27.5939 14.2624 27.5968 14.4852 27.5358C14.7295 27.469 14.9609 27.3388 15.2955 27.3402C15.5841 27.3415 15.9337 27.2772 16.2947 27.348C16.5468 27.3974 16.7888 27.3736 17.0533 27.4731C17.2972 27.5648 17.5836 27.5939 17.7981 27.6731C17.9759 27.7388 18.184 27.7571 18.429 27.8122C18.7626 27.8873 19.0715 27.9991 19.4964 28.0491C20.25 28.1377 20.5424 28.0184 20.8577 28.0171C21.0915 28.0161 21.3538 28.0925 21.7689 28.1308C21.9906 28.1513 22.4358 28.0038 22.4967 28.2419C22.5188 28.3281 22.534 28.4486 22.5289 28.5796C22.5206 28.7954 22.51 28.9996 22.5361 29.1865C22.5665 29.4048 22.5731 29.6194 22.567 29.7961C22.5588 30.0276 22.6355 30.3698 22.6476 30.8782C22.6589 31.3507 22.7153 31.9546 22.7676 32.3386C22.805 32.6127 22.884 33.285 22.8513 33.8025C22.835 34.06 22.7561 34.2516 22.7883 34.6803C22.8227 35.1394 22.8397 35.6874 22.8679 36.0636C22.8907 36.3679 22.8464 36.5947 22.8384 36.8174Z" fill="#74C279"/>
<path d="M22.7032 37.6861C22.7495 37.6022 22.8257 37.1726 22.8384 36.8174C22.8464 36.5947 22.8907 36.3679 22.8679 36.0636C22.8397 35.6874 22.8227 35.1394 22.7883 34.6803C22.7561 34.2516 22.835 34.06 22.8513 33.8025C22.884 33.285 22.805 32.6127 22.7676 32.3386C22.7153 31.9546 22.6589 31.3507 22.6476 30.8782C22.6355 30.3698 22.5588 30.0276 22.567 29.7961C22.5731 29.6194 22.5665 29.4048 22.5361 29.1865C22.51 28.9996 22.5206 28.7954 22.5289 28.5796C22.534 28.4486 22.5188 28.3281 22.4967 28.2419C22.4358 28.0038 21.9906 28.1513 21.7689 28.1308C21.3538 28.0925 21.0915 28.0161 20.8576 28.0171C20.5424 28.0184 20.25 28.1377 19.4964 28.0491C19.0715 27.9991 18.7626 27.8873 18.429 27.8122C18.184 27.7571 17.9759 27.7388 17.7981 27.6731C17.5836 27.5939 17.2972 27.5648 17.0533 27.4731C16.7888 27.3736 16.5468 27.3974 16.2947 27.348C15.9337 27.2772 15.5841 27.3415 15.2955 27.3402C14.9609 27.3388 14.7295 27.469 14.4852 27.5358C14.2624 27.5968 14.0553 27.5939 13.8696 27.5852C13.6506 27.5749 13.378 27.4798 13.1707 27.4591C12.9914 27.4412 12.7104 27.5859 12.3853 27.687C12.1145 27.7711 12.0591 28.0744 11.8499 28.4247C11.7205 28.6413 11.6045 28.7943 11.4799 29.0472C11.3811 29.2476 11.3495 29.6337 11.2368 29.9129C11.1561 30.1128 10.7365 30.7654 10.4843 31.2471C10.3687 31.4679 10.2824 31.6985 10.2547 32.037C10.227 32.3759 10.2438 32.6388 10.226 32.8366C10.2015 33.1104 10.263 33.4575 10.3536 33.7048C10.4313 33.9169 10.4543 34.1721 10.5295 34.3899C10.6174 34.6444 10.7357 34.9158 11.1421 35.7113C11.2903 36.0014 11.467 36.148 11.7041 36.3713C11.87 36.5276 12.2404 36.7088 12.5217 36.7982C12.7579 36.8732 12.9687 36.8895 13.3109 36.9823C13.5447 37.0457 13.7977 37.121 14.0619 37.1645C14.3367 37.2098 14.625 37.2329 14.9182 37.2313C15.273 37.2294 15.5826 37.2771 15.9008 37.3226C16.2331 37.3701 16.6433 37.3733 16.8533 37.3848C17.0806 37.3971 17.2833 37.3567 17.5018 37.3562C17.6969 37.3558 17.9225 37.3106 18.1792 37.2823C18.5413 37.2424 18.7639 37.189 18.9824 37.1881C19.279 37.1869 19.4937 37.2007 19.7547 37.238C20.0225 37.2763 20.2201 37.3498 20.475 37.4055C21.0067 37.5215 21.3911 37.689 21.6276 37.7932C21.7156 37.8319 21.8025 37.8683 21.895 37.8728C22.1533 37.7915 22.4982 37.6417 22.6683 37.6061C22.7131 37.5904 22.7601 37.566 22.8085 37.5408" stroke="#74C279" stroke-width="0.8" stroke-linecap="round"/>
<path d="M8.87554 32.5991C8.86173 32.7601 8.65609 32.6633 8.64101 32.7323C8.61646 32.7345 8.72511 33.107 8.51816 32.7291C8.3112 32.3513 7.94403 31.6291 7.73733 31.2594C7.51297 30.8581 7.45577 30.7308 7.35998 30.5939C7.29983 30.5079 7.10323 30.0878 6.77869 29.5368C6.64579 29.3111 6.60581 29.2383 6.55376 29.1639C6.45389 29.0211 6.38778 28.8885 6.28292 28.762C6.24154 28.712 6.05326 28.3082 5.73508 27.7691C5.60426 27.5474 5.5652 27.4397 5.48496 27.3479C5.39582 27.2458 5.30604 27.1498 5.06646 26.7016C4.86992 26.334 4.50096 25.6432 4.32512 25.2779C4.13748 24.8881 4.03396 24.7216 3.94135 24.4819C3.89713 24.3675 3.75606 24.176 3.65892 23.8806C3.59728 23.6932 3.56259 23.5653 3.53791 23.4218C3.51767 23.3042 3.48432 23.1933 3.4709 23.057C3.45889 22.935 3.46146 22.8126 3.43645 22.6957C3.40784 22.5619 3.33023 22.3139 3.39896 22.131C3.46352 21.9591 3.57233 21.8503 3.62789 21.6935C3.75009 21.3487 3.78165 21.2106 3.83663 21.0416C3.94285 20.7151 3.99014 20.5799 4.06489 20.4674C4.1482 20.3419 4.25938 20.253 4.32586 20.1419C4.41091 19.9996 4.50393 19.7317 4.57632 19.5604C4.62921 19.4352 4.68661 19.3064 4.76733 19.1791C4.85495 19.0409 4.94987 18.8823 5.01992 18.7194C5.08265 18.5736 5.12271 18.3949 5.19563 18.2795C5.26315 18.1727 5.39292 18.0452 5.46819 17.9173C5.53351 17.8062 5.6084 17.6799 5.70628 17.5576C5.78396 17.4606 6.02899 17.3803 5.9757 17.2788C5.9546 17.2385 5.87649 17.1869 5.74873 17.0995C5.62116 17.0122 5.51563 16.9503 5.41982 16.8712C5.32058 16.7893 5.19875 16.7264 5.09074 16.6429C4.98751 16.563 4.79914 16.3663 4.5833 16.2099C4.4433 16.1085 4.28592 16.0112 4.14241 15.9735C4.01775 15.9408 3.86672 15.9314 3.75836 15.8558C3.6615 15.7881 3.54663 15.7358 3.45802 15.643C3.35655 15.5368 3.05931 15.3791 3.18703 15.3285C3.27229 15.2947 3.38555 15.2766 3.49924 15.2584C3.61293 15.2403 3.73418 15.2436 3.86514 15.2525C4.05784 15.2656 4.4283 15.1977 4.73358 15.2565C4.89865 15.2883 5.05709 15.2848 5.2183 15.3217C5.37576 15.3578 5.54809 15.3819 5.69068 15.3523C5.90335 15.3081 6.11144 15.2594 6.31486 15.2425C6.46706 15.2298 6.59639 15.1885 6.80197 15.1939C6.94225 15.1975 7.06322 15.219 7.28523 15.2143C7.71499 15.2053 7.83664 15.2046 8.03189 15.1938C8.18672 15.1853 8.37974 15.2221 8.56124 15.2361C8.73229 15.2492 8.94728 15.2375 9.13998 15.1444C9.55331 14.9445 9.7335 14.9087 9.91491 14.8727L9.91999 14.8717C10.2538 14.8055 10.4014 14.787 10.5531 14.8088C10.8856 14.8565 11.1277 14.9161 11.4165 14.9225C11.5774 14.9261 11.7373 14.9109 11.8917 14.8902C12.1178 14.8599 12.3716 14.7665 12.599 14.7627C12.7412 14.7603 12.8808 14.6849 13.0056 14.7768C13.0385 14.801 13.0606 14.8404 13.072 14.8753C13.1151 15.0071 13.1985 15.1706 13.2504 15.3359C13.2892 15.4594 13.3164 15.6057 13.39 15.7613C13.5433 16.0854 13.5742 16.2113 13.6543 16.3869C13.7637 16.6268 13.8138 16.7838 13.8914 16.9602C13.9756 17.1517 14.1252 17.4846 14.2313 17.7309C14.3054 17.903 14.4149 18.1728 14.5043 18.3732C14.5969 18.5808 14.6584 18.7719 14.7549 19.0217C14.8439 19.2522 14.8914 19.4906 15.0234 19.8918C15.1111 20.1585 15.1626 20.3174 15.2038 20.4939C15.2457 20.6732 15.2959 20.9291 15.3473 21.0546C15.4046 21.1944 15.4432 21.357 15.4849 21.5059C15.5086 21.5907 15.7867 22.0222 16.0582 22.6755C16.2416 23.1169 16.3233 23.3421 16.3866 23.5424C16.4423 23.7183 16.8866 24.2038 16.6825 24.3764C16.6683 24.3884 16.6486 24.3671 16.6189 24.3528C16.496 24.2937 16.4084 24.2037 16.2984 24.1507C16.1755 24.0916 16.0469 24.0188 15.9493 23.9328C15.8541 23.8488 15.7325 23.7002 15.594 23.595C15.4658 23.4975 15.3003 23.4253 15.1736 23.3785L15.1699 23.3771C15.0505 23.333 14.9409 23.2925 14.8437 23.2171C14.7488 23.1434 14.6641 23.0532 14.5635 22.9941C14.4525 22.9288 14.3367 22.7694 14.1613 22.7938C14.1081 22.8013 14.0329 22.8221 14.0021 22.8617C13.9007 22.9923 13.8255 23.1574 13.7528 23.2581C13.6751 23.3656 13.6105 23.5067 13.5306 23.7178C13.4496 23.9318 13.3649 24.0493 13.2962 24.1446L13.2937 24.148C13.2223 24.2472 13.1404 24.3478 13.0812 24.4484C13.0159 24.5594 12.9142 24.6872 12.8393 24.8205C12.7622 24.9578 12.6596 25.0546 12.5909 25.1702C12.5117 25.3035 12.4084 25.4113 12.2897 25.5267C12.1877 25.626 12.0928 25.7059 11.9724 25.8818C11.8849 26.0094 11.7762 26.102 11.6183 26.3636C11.5195 26.5275 11.5021 26.6646 10.9987 27.3122C10.8123 27.5519 10.711 27.6597 10.6714 27.733C10.5824 27.8974 10.5165 28.0598 10.4304 28.1555C10.3524 28.2423 10.2654 28.3274 10.1609 28.4652C10.0454 28.6174 9.88523 28.8203 9.76538 29.1325C9.71123 29.2736 9.68552 29.4537 9.64834 29.665C9.62253 29.8117 9.58735 29.9233 9.56185 30.0893C9.53619 30.2564 9.50352 30.4077 9.44367 30.5709C9.3971 30.6978 9.37753 30.8659 9.32703 31.0161C9.27069 31.1837 9.22055 31.3424 9.17421 31.4902C9.11238 31.6874 8.90543 32.2509 8.87554 32.5991Z" fill="#74C279" stroke="#74C279" stroke-width="0.8" stroke-linecap="round"/>
</svg>
