<svg width="64" height="58" viewBox="0 0 64 58" fill="none" xmlns="http://www.w3.org/2000/svg">
<path d="M28.6131 26.252C28.6131 25.412 28.7451 24.668 29.0091 24.02C29.2971 23.372 29.6451 22.796 30.0531 22.292C30.4851 21.788 30.9411 21.32 31.4211 20.888C31.9011 20.456 32.3451 20.048 32.7531 19.664C33.1851 19.256 33.5331 18.836 33.7971 18.404C34.0851 17.972 34.2291 17.492 34.2291 16.964C34.2291 16.1 33.8691 15.404 33.1491 14.876C32.4531 14.348 31.5171 14.084 30.3411 14.084C29.2131 14.084 28.2051 14.324 27.3171 14.804C26.4291 15.26 25.6971 15.908 25.1211 16.748L20.7651 14.192C21.7251 12.728 23.0571 11.564 24.7611 10.7C26.4651 9.812 28.5291 9.368 30.9531 9.368C32.7531 9.368 34.3371 9.632 35.7051 10.16C37.0731 10.664 38.1411 11.408 38.9091 12.392C39.7011 13.376 40.0971 14.588 40.0971 16.028C40.0971 16.964 39.9531 17.792 39.6651 18.512C39.3771 19.232 39.0051 19.856 38.5491 20.384C38.0931 20.912 37.6011 21.404 37.0731 21.86C36.5691 22.316 36.0891 22.76 35.6331 23.192C35.1771 23.624 34.7931 24.08 34.4811 24.56C34.1931 25.04 34.0491 25.604 34.0491 26.252H28.6131ZM31.3491 35.288C30.3411 35.288 29.5131 34.964 28.8651 34.316C28.2171 33.668 27.8931 32.9 27.8931 32.012C27.8931 31.1 28.2171 30.344 28.8651 29.744C29.5131 29.12 30.3411 28.808 31.3491 28.808C32.3811 28.808 33.2091 29.12 33.8331 29.744C34.4811 30.344 34.8051 31.1 34.8051 32.012C34.8051 32.9 34.4811 33.668 33.8331 34.316C33.2091 34.964 32.3811 35.288 31.3491 35.288Z" fill="black"/>
<path d="M45.3112 35.3904C45.677 34.6343 46.1198 34.022 46.6397 33.5537C47.1812 33.0958 47.7453 32.7289 48.3321 32.4529C48.9405 32.1873 49.5548 31.9646 50.175 31.7848C50.7952 31.605 51.3726 31.4311 51.9071 31.2631C52.4737 31.0839 52.9699 30.8574 53.3956 30.5835C53.843 30.3201 54.1817 29.9507 54.4117 29.4754C54.788 28.6977 54.767 27.9143 54.3488 27.1255C53.9523 26.3471 53.2247 25.7018 52.1661 25.1896C51.1507 24.6983 50.1387 24.4754 49.1303 24.5207C48.1324 24.5445 47.1912 24.809 46.3069 25.3143L43.4989 21.1163C45.0007 20.2165 46.7066 19.7488 48.6168 19.7132C50.5375 19.656 52.5888 20.1552 54.7709 21.2109C56.3912 21.9948 57.7021 22.9223 58.7036 23.9934C59.7155 25.0429 60.3529 26.1778 60.6157 27.398C60.9001 28.6287 60.7287 29.8922 60.1016 31.1885C59.6939 32.031 59.2037 32.7137 58.6309 33.2364C58.058 33.7591 57.4514 34.1588 56.811 34.4355C56.1705 34.7122 55.5134 34.9408 54.8395 35.1213C54.1872 35.3123 53.5617 35.5029 52.9631 35.6932C52.3645 35.8835 51.8202 36.1267 51.3303 36.4229C50.862 36.7296 50.4868 37.1746 50.2045 37.7579L45.3112 35.3904ZM43.8387 44.716C42.9313 44.277 42.3271 43.6248 42.026 42.7592C41.7249 41.8937 41.7677 41.0612 42.1545 40.2619C42.5516 39.4409 43.1726 38.9015 44.0172 38.6436C44.8723 38.3641 45.7535 38.4439 46.6609 38.8829C47.5899 39.3323 48.1993 39.9738 48.4893 40.8073C48.8113 41.6296 48.7737 42.4512 48.3765 43.2722C47.9898 44.0715 47.3636 44.6218 46.4981 44.9229C45.6542 45.2344 44.7677 45.1655 43.8387 44.716Z" fill="black"/>
<path d="M13.4201 37.8023C13.0716 37.038 12.8831 36.3063 12.8545 35.6072C12.8477 34.8981 12.9254 34.2296 13.0875 33.6018C13.2715 32.964 13.4923 32.349 13.7498 31.7568C14.0074 31.1646 14.2421 30.6092 14.4541 30.0905C14.6779 29.54 14.8203 29.0135 14.8813 28.5109C14.9641 27.9984 14.896 27.5019 14.677 27.0215C14.3186 26.2353 13.7023 25.7514 12.8281 25.5696C11.9758 25.378 11.0146 25.526 9.94458 26.0139C8.91822 26.4818 8.10061 27.1184 7.49174 27.9235C6.87293 28.7068 6.4757 29.6001 6.30007 30.6033L1.27624 30.0847C1.54241 28.3543 2.27151 26.7427 3.46355 25.2496C4.64563 23.7347 6.33946 22.4745 8.54504 21.4689C10.1828 20.7222 11.7336 20.3053 13.1974 20.2183C14.6512 20.1093 15.9316 20.3432 17.0386 20.92C18.1675 21.4868 19.0306 22.4253 19.628 23.7355C20.0162 24.5872 20.2287 25.4003 20.2653 26.1749C20.302 26.9495 20.2224 27.6716 20.0265 28.3412C19.8306 29.0108 19.587 29.6626 19.2958 30.2965C19.0264 30.9205 18.7738 31.5236 18.5381 32.1059C18.3024 32.6881 18.1422 33.2623 18.0574 33.8285C17.9945 34.3847 18.0974 34.9576 18.3663 35.5472L13.4201 37.8023ZM19.658 44.8891C18.7409 45.3073 17.8531 45.356 16.9946 45.0352C16.1362 44.7144 15.5228 44.15 15.1544 43.342C14.7761 42.5122 14.7573 41.6899 15.098 40.8751C15.4287 40.0385 16.0527 39.4112 16.9699 38.993C17.9089 38.5649 18.7917 38.5053 19.6183 38.8142C20.4569 39.0913 21.0653 39.6448 21.4436 40.4746C21.812 41.2826 21.8358 42.1158 21.515 42.9742C21.216 43.8227 20.5971 44.461 19.658 44.8891Z" fill="black"/>
</svg>
