<svg width="43" height="36" viewBox="0 0 43 36" fill="none" xmlns="http://www.w3.org/2000/svg">
<path d="M4.62647 4.50987C3.41464 5.98747 2.79759 8.08103 2.56245 9.34309C2.35534 9.43456 2.2132 9.46517 2.06924 9.50857C1.73317 9.62633 1.02463 9.96392 0.521774 10.6052C0.488924 10.7745 0.476762 10.9781 0.607687 11.0934C1.2005 11.6155 2.78439 12.0845 3.20231 13.0326C3.45449 13.6047 3.55878 14.1631 3.70668 14.5477C4.09733 15.5635 4.96052 16.6973 4.88471 17.4289C4.83418 17.9166 4.82068 18.4126 4.56329 18.5725C3.88508 18.994 2.47041 19.074 1.73317 19.6338C1.59874 19.7359 1.51719 19.8624 1.39558 20.1423C0.824498 21.4562 0.479567 22.4914 0.9281 23.359C1.19747 23.88 1.88657 24.7927 3.19271 25.0424C5.38099 25.4609 7.08379 25.0916 8.71397 24.8868C10.5803 24.6523 15.1509 24.0014 14.6891 25.1091C14.5698 25.3952 14.0854 25.5683 13.981 25.8839C13.8976 26.136 13.8831 26.4323 14.0851 26.7617C14.405 27.2833 14.6232 27.8866 15.0317 27.921C15.8231 27.9878 16.6917 28.2373 18.4506 28.5108C18.9868 28.5942 20.6883 29.4757 23.275 29.9274C24.5136 30.1437 25.3861 30.275 26.611 30.0244C29.3339 29.4675 30.4293 29.2095 31.8942 28.2202C33.1425 27.3773 34.815 26.5729 34.6515 25.7616C34.5838 25.4255 34.2806 25.0212 32.6189 23.3944C31.0037 21.813 29.9094 20.7566 29.6806 20.4045C29.4623 20.0685 29.1755 19.5066 29.4138 19.0062C29.5654 18.6878 30.2171 18.047 30.8844 16.6905C32.16 14.0979 31.4682 11.7856 32.5669 11.2066C33.1394 10.9049 33.792 10.6951 34.133 10.1767C34.5869 9.48684 34.9477 8.70484 34.8704 7.93482C34.786 7.09438 34.5432 6.14051 33.7848 4.9637C32.6573 3.21408 31.7302 1.54563 30.7712 1.04752C29.9647 0.628558 29.2119 0.418188 28.583 0.529504C28.0119 0.630581 26.8815 1.83852 25.0256 2.67282C23.799 3.22419 22.8958 3.14848 22.0474 3.39399C21.8099 3.46272 21.4626 3.57827 21.4096 4.00651C21.2762 5.08398 21.823 7.53684 20.6338 8.73686C19.5801 9.80018 17.9299 10.8625 17.0285 11.0414C16.6924 11.1081 16.3563 11.081 16.1021 10.8534C15.7827 10.5674 15.3788 10.0226 14.7174 9.33321C13.927 8.50944 12.2818 6.91322 9.99409 5.37205C8.5012 4.36634 7.49135 3.86152 6.66516 3.88118C5.94297 3.89836 5.13695 3.88742 4.62647 4.50987Z" fill="#375C3A"/>
<path d="M2.47607 9.8952C2.6095 8.79144 3.21393 6.2322 4.62647 4.50987C5.13695 3.88742 5.94297 3.89836 6.66516 3.88118C7.49135 3.86152 8.5012 4.36634 9.99409 5.37205C12.2818 6.91322 13.927 8.50944 14.7174 9.33321C15.3788 10.0226 15.7827 10.5674 16.1021 10.8534C16.3563 11.081 16.6924 11.1081 17.0285 11.0414C17.9299 10.8625 19.5801 9.80018 20.6338 8.73686C21.823 7.53684 21.2762 5.08398 21.4096 4.00651C21.4626 3.57827 21.8099 3.46272 22.0474 3.39399C22.8958 3.14848 23.799 3.22419 25.0256 2.67282C26.8815 1.83852 28.0119 0.630581 28.5829 0.529504C29.2119 0.418188 29.9647 0.628558 30.7712 1.04752C31.7302 1.54563 32.6573 3.21408 33.7848 4.9637C34.5432 6.14051 34.786 7.09438 34.8704 7.93482C34.9477 8.70484 34.5869 9.48684 34.133 10.1767C33.792 10.6951 33.1394 10.9049 32.5669 11.2066C31.4682 11.7856 32.16 14.0979 30.8844 16.6905C30.2171 18.047 29.5654 18.6878 29.4138 19.0062C29.1755 19.5066 29.4623 20.0685 29.6806 20.4045C29.9094 20.7566 31.0037 21.813 32.6189 23.3944C34.2806 25.0212 34.5838 25.4255 34.6515 25.7616C34.815 26.5729 33.1425 27.3773 31.8942 28.2202C30.4293 29.2095 29.3339 29.4675 26.611 30.0244C25.3861 30.275 24.5136 30.1437 23.275 29.9274C20.6883 29.4757 18.9868 28.5942 18.4506 28.5108C16.6917 28.2373 15.8231 27.9878 15.0317 27.921C14.6232 27.8866 14.405 27.2833 14.0851 26.7617C13.8831 26.4323 13.8976 26.136 13.981 25.8839C14.0854 25.5683 14.5698 25.3952 14.6891 25.1091C15.1509 24.0014 10.5803 24.6523 8.71397 24.8868C7.08379 25.0916 5.38099 25.4609 3.19271 25.0424C1.88657 24.7927 1.19747 23.88 0.9281 23.359C0.479567 22.4914 0.824498 21.4562 1.39558 20.1423C1.51719 19.8624 1.59874 19.7359 1.73317 19.6338C2.47041 19.074 3.88508 18.994 4.56329 18.5725C4.82068 18.4126 4.83418 17.9166 4.88471 17.4289C4.96052 16.6973 4.09733 15.5635 3.70668 14.5477C3.55878 14.1631 3.45449 13.6047 3.20231 13.0326C2.78439 12.0845 1.2005 11.6155 0.607687 11.0934C0.476762 10.9781 0.488924 10.7745 0.521774 10.6052C1.02463 9.96392 1.73317 9.62633 2.06924 9.50857C2.23855 9.45753 2.40532 9.42418 2.67823 9.28874" stroke="#393939" stroke-linecap="round"/>
<path d="M9.85461 11.5125C10.3236 11.8137 10.9321 12.4868 11.2343 13.2944C11.8418 14.4416 12.1106 15.1148 12.6322 16.1746C12.7514 16.4298 12.8182 16.5966 12.8869 16.7684" stroke="#393939" stroke-linecap="round"/>
<path d="M21.8826 18.3855C22.3193 17.8812 23.0571 16.3438 23.331 14.9692C23.4911 14.1662 23.6009 13.3702 23.7687 12.3751C23.8844 11.6886 24.0376 11.1445 24.4752 10.0175C24.7436 9.32641 25.2161 8.75303 25.6376 8.26281C25.8893 8.01113 26.1602 7.77361 26.4123 7.57196C26.5311 7.47037 26.6312 7.37031 26.8353 7.26721" stroke="#393939" stroke-linecap="round"/>
<path d="M12.2805 19.8007C12.6474 20.0352 14.6598 20.306 16.4028 21.1783C17.8343 21.8947 19.7217 23.2352 20.3645 23.6567C20.6334 23.9084 20.8709 24.2793 21.0559 24.6998C21.1408 24.8868 21.2075 25.0202 21.4784 25.4609" stroke="#393939" stroke-linecap="round"/>
<path d="M25.4203 23.7426C25.4536 23.3424 25.487 22.9421 25.5042 22.2356C25.5214 21.5291 25.5214 20.5284 25.5214 19.4974" stroke="#393939" stroke-linecap="round"/>
<path d="M24.8954 26.3031C24.8954 26.5427 24.8641 26.7536 24.8016 26.9359C24.7443 27.113 24.6792 27.264 24.6063 27.389C24.5334 27.5088 24.4657 27.6 24.4032 27.6625C24.3407 27.725 24.3068 27.7588 24.3016 27.764L24.2235 27.8265L24.1141 27.7953C23.8485 27.712 23.6272 27.6547 23.4501 27.6234C23.273 27.587 23.1089 27.5687 22.9579 27.5687C22.9162 27.5687 22.8798 27.5687 22.8485 27.5687C22.8173 27.5687 22.786 27.5739 22.7548 27.5844V27.8265C22.7548 28.0505 22.7626 28.264 22.7782 28.4672C22.799 28.6703 22.8329 28.8604 22.8798 29.0375L22.8954 29.1547L22.8485 29.2328C22.8433 29.238 22.8147 29.2692 22.7626 29.3265C22.7157 29.3838 22.6402 29.4463 22.536 29.514C22.4318 29.5817 22.3016 29.6442 22.1454 29.7015C21.9891 29.7536 21.8016 29.7797 21.5829 29.7797C21.3641 29.7797 21.174 29.7458 21.0126 29.6781C20.8563 29.6104 20.7235 29.5375 20.6141 29.4594C20.51 29.3812 20.4292 29.3083 20.3719 29.2406C20.3199 29.1729 20.2912 29.139 20.286 29.139L20.2235 29.0375L20.2548 28.9437C20.3121 28.751 20.3589 28.5401 20.3954 28.3109C20.4371 28.0765 20.4709 27.8396 20.4969 27.6C20.299 27.6104 20.0985 27.639 19.8954 27.6859C19.6923 27.7328 19.4657 27.8005 19.2157 27.889H19.0751C19.0647 27.8838 19.0152 27.8578 18.9266 27.8109C18.8433 27.7588 18.7496 27.6729 18.6454 27.5531C18.5464 27.4333 18.4553 27.2719 18.3719 27.0687C18.2938 26.8656 18.2548 26.6104 18.2548 26.3031C18.2548 26.0219 18.2938 25.7875 18.3719 25.6C18.4501 25.4125 18.536 25.264 18.6298 25.1547C18.7287 25.0401 18.8173 24.962 18.8954 24.9203C18.9787 24.8734 19.0256 24.85 19.036 24.85L19.1063 24.8187L19.1844 24.8344C19.4084 24.9229 19.6193 24.9854 19.8173 25.0219C20.0204 25.0531 20.2209 25.0687 20.4188 25.0687H20.5126C20.4969 24.8448 20.4735 24.6286 20.4423 24.4203C20.411 24.212 20.3693 24.0245 20.3173 23.8578V23.7094C20.3225 23.7041 20.3485 23.6625 20.3954 23.5844C20.4423 23.501 20.5178 23.4125 20.6219 23.3187C20.7313 23.225 20.8746 23.139 21.0516 23.0609C21.2339 22.9828 21.4579 22.9437 21.7235 22.9437C21.9943 22.9437 22.2183 22.988 22.3954 23.0765C22.5725 23.1599 22.7131 23.2536 22.8173 23.3578C22.9214 23.462 22.9917 23.5583 23.0282 23.6469C23.0699 23.7302 23.0907 23.7745 23.0907 23.7797L23.1219 23.8578L23.0907 23.9203C23.023 24.0817 22.9657 24.2692 22.9188 24.4828C22.8719 24.6963 22.8329 24.9203 22.8016 25.1547H22.9735C23.1506 25.1547 23.3277 25.1364 23.5048 25.1C23.6818 25.0583 23.885 25.001 24.1141 24.9281L24.2079 24.8969L24.286 24.9437C24.2912 24.9489 24.3251 24.9776 24.3876 25.0297C24.4501 25.0817 24.5178 25.1625 24.5907 25.2719C24.6636 25.3812 24.7287 25.5219 24.786 25.6937C24.8485 25.8656 24.885 26.0687 24.8954 26.3031ZM31.1219 21.264L31.0907 21.3734C30.9865 21.6651 30.9084 21.9515 30.8563 22.2328C30.8094 22.5088 30.786 22.7823 30.786 23.0531C30.786 23.2666 30.799 23.4776 30.8251 23.6859C30.8511 23.889 30.898 24.0948 30.9657 24.3031L30.9813 24.4125C30.8928 24.7041 30.8277 24.9828 30.786 25.2484C30.7443 25.514 30.7235 25.7797 30.7235 26.0453C30.7235 26.5713 30.8147 27.0844 30.9969 27.5844L31.0126 27.6469L30.9813 27.7094C30.7886 28.251 30.6923 28.7953 30.6923 29.3422C30.6923 29.863 30.7834 30.3916 30.9657 30.9281L30.9969 30.9906L30.9657 31.0687C30.9605 31.0791 30.9318 31.126 30.8798 31.2094C30.8277 31.2875 30.7391 31.3734 30.6141 31.4672C30.4943 31.5609 30.3329 31.6469 30.1298 31.725C29.9266 31.8031 29.6714 31.8422 29.3641 31.8422C29.0568 31.8422 28.8016 31.8005 28.5985 31.7172C28.4006 31.6338 28.2443 31.5401 28.1298 31.4359C28.0152 31.3317 27.9344 31.238 27.8876 31.1547C27.8407 31.0661 27.8147 31.0166 27.8094 31.0062L27.7782 30.9437L27.8094 30.8656C27.9292 30.5739 28.0178 30.2797 28.0751 29.9828C28.1324 29.6859 28.161 29.376 28.161 29.0531C28.161 28.8344 28.148 28.6156 28.1219 28.3969C28.1011 28.1729 28.0621 27.9437 28.0048 27.7094V27.6156C28.0777 27.35 28.1298 27.0896 28.161 26.8344C28.1923 26.5791 28.2079 26.3213 28.2079 26.0609C28.2079 25.5297 28.1298 25.0088 27.9735 24.4984L27.9344 24.4359L27.9735 24.3656C28.036 24.1989 28.0881 24.0323 28.1298 23.8656C28.1766 23.6937 28.2131 23.5245 28.2391 23.3578C27.9735 23.5609 27.7287 23.7771 27.5048 24.0062C27.2808 24.2302 27.0933 24.4463 26.9423 24.6547L26.911 24.7172L26.8329 24.7562C26.8225 24.7562 26.7938 24.7614 26.7469 24.7719C26.7053 24.7823 26.6428 24.7875 26.5594 24.7875C26.4657 24.7875 26.3303 24.7536 26.1532 24.6859C25.9761 24.6182 25.799 24.5192 25.6219 24.389C25.4501 24.2536 25.299 24.0844 25.1688 23.8812C25.0438 23.6781 24.9813 23.4411 24.9813 23.1703C24.9813 22.9932 25.0048 22.85 25.0516 22.7406C25.0985 22.6312 25.1272 22.5713 25.1376 22.5609L25.1844 22.4984L25.2469 22.4828C25.4605 22.4099 25.6975 22.3031 25.9579 22.1625C26.2235 22.0219 26.4891 21.8578 26.7548 21.6703C27.0204 21.4828 27.2704 21.2823 27.5048 21.0687C27.7443 20.85 27.9475 20.6312 28.1141 20.4125L28.161 20.3344L28.2548 20.3187C28.2704 20.3187 28.3016 20.3213 28.3485 20.3265C28.4006 20.3265 28.4657 20.337 28.5438 20.3578C28.6219 20.3734 28.7079 20.4021 28.8016 20.4437C28.9006 20.4802 29.0022 20.5349 29.1063 20.6078C29.2313 20.5765 29.385 20.5609 29.5673 20.5609C29.8121 20.5609 30.0256 20.5922 30.2079 20.6547C30.3954 20.7172 30.5516 20.7875 30.6766 20.8656C30.8016 20.9437 30.8954 21.0166 30.9579 21.0844C31.0204 21.1469 31.0542 21.1807 31.0594 21.1859L31.1219 21.264ZM42.0594 25.8109C42.0594 25.8213 42.0621 25.8474 42.0673 25.889C42.0725 25.9307 42.0751 25.988 42.0751 26.0609C42.0751 26.139 42.0673 26.2276 42.0516 26.3265C42.036 26.4255 42.0022 26.5323 41.9501 26.6469C41.9032 26.7614 41.8329 26.8838 41.7391 27.014C41.6506 27.139 41.5334 27.264 41.3876 27.389C41.2001 27.5401 41.023 27.6521 40.8563 27.725C40.6949 27.7979 40.5516 27.8422 40.4266 27.8578C40.2756 28.0245 40.1376 28.2015 40.0126 28.389C39.8876 28.5713 39.773 28.7666 39.6688 28.975L39.6063 29.0531C39.4084 29.1312 39.2001 29.264 38.9813 29.4515C38.7678 29.6338 38.5594 29.8422 38.3563 30.0765C38.1584 30.3057 37.9761 30.5453 37.8094 30.7953C37.648 31.0453 37.523 31.2771 37.4344 31.4906L37.4032 31.5687L37.3173 31.6C37.3068 31.6104 37.2652 31.626 37.1923 31.6469C37.1193 31.6677 37.0178 31.6781 36.8876 31.6781C36.7365 31.6781 36.5542 31.6442 36.3407 31.5765C36.1324 31.5088 35.9084 31.3682 35.6688 31.1547C35.5178 31.0245 35.398 30.8942 35.3094 30.764C35.2261 30.6338 35.161 30.5114 35.1141 30.3969C34.9527 30.2614 34.786 30.139 34.6141 30.0297C34.4475 29.9203 34.2834 29.8083 34.1219 29.6937L34.0594 29.6781L34.0204 29.6156C33.7652 29.1312 33.4527 28.7146 33.0829 28.3656C32.7183 28.0166 32.286 27.7302 31.786 27.5062L31.7001 27.4594L31.6688 27.3578C31.6636 27.3474 31.661 27.3317 31.661 27.3109C31.6558 27.2901 31.6532 27.2484 31.6532 27.1859C31.6532 27.1182 31.6584 27.0349 31.6688 26.9359C31.6844 26.837 31.7183 26.7224 31.7704 26.5922C31.6246 26.4255 31.536 26.264 31.5048 26.1078C31.4683 25.9515 31.4501 25.8239 31.4501 25.725C31.4501 25.6781 31.4527 25.6416 31.4579 25.6156C31.4631 25.5844 31.4657 25.5635 31.4657 25.5531L31.4813 25.475L31.5438 25.4437C31.7209 25.3083 31.898 25.1416 32.0751 24.9437C32.2574 24.7406 32.4266 24.5245 32.5829 24.2953C32.7391 24.0661 32.8798 23.8265 33.0048 23.5765C33.135 23.3265 33.2391 23.0844 33.3173 22.85L33.3876 22.7328C33.8303 22.4047 34.1923 22.0297 34.4735 21.6078C34.7548 21.1859 34.9683 20.7146 35.1141 20.1937L35.1454 20.1L35.2391 20.0453C35.2496 20.0453 35.2912 20.0349 35.3641 20.014C35.4423 19.9932 35.5438 19.9828 35.6688 19.9828C35.8563 19.9828 36.0256 20.0036 36.1766 20.0453C36.3329 20.087 36.4709 20.1416 36.5907 20.2094C36.7105 20.2771 36.8173 20.3552 36.911 20.4437C37.0048 20.5323 37.0881 20.6234 37.161 20.7172C37.3016 20.6859 37.4292 20.6703 37.5438 20.6703C37.6219 20.6703 37.6844 20.6729 37.7313 20.6781C37.7782 20.6833 37.8068 20.6859 37.8173 20.6859L37.911 20.7172L37.9579 20.8187C38.1558 21.3187 38.4032 21.7588 38.7001 22.139C39.0022 22.514 39.3589 22.8422 39.7704 23.1234L39.8485 23.2015C39.9579 23.4307 40.0855 23.6625 40.2313 23.8969C40.3824 24.1312 40.5464 24.3578 40.7235 24.5765C40.9006 24.7953 41.0907 25.001 41.2938 25.1937C41.5022 25.3864 41.7235 25.5531 41.9579 25.6937L42.0204 25.725L42.0594 25.8109ZM37.6844 25.139L37.6219 25.1078L37.6063 25.0375C37.4709 24.6521 37.299 24.3005 37.0907 23.9828C36.8824 23.6651 36.6324 23.3786 36.3407 23.1234C36.2469 23.2901 36.161 23.4646 36.0829 23.6469C36.0048 23.8291 35.9371 24.0166 35.8798 24.2094L35.8329 24.3031C35.6923 24.4021 35.5516 24.5271 35.411 24.6781C35.2756 24.8239 35.1454 24.9854 35.0204 25.1625C34.8954 25.3396 34.7756 25.5245 34.661 25.7172C34.5516 25.9047 34.4553 26.0896 34.3719 26.2719C34.8094 26.7562 35.3121 27.1286 35.8798 27.389L35.9579 27.4594C36.0568 27.5844 36.1558 27.7172 36.2548 27.8578C36.3537 27.9984 36.4683 28.1364 36.5985 28.2719C36.7287 28.1208 36.8511 27.9672 36.9657 27.8109C37.0855 27.6495 37.1975 27.488 37.3016 27.3265C37.3173 27.3005 37.3277 27.2771 37.3329 27.2562C37.3433 27.2354 37.3537 27.212 37.3641 27.1859L37.4032 27.1234L37.4657 27.0922C37.9657 26.8474 38.3928 26.5323 38.7469 26.1469C38.5855 25.9437 38.4136 25.7562 38.2313 25.5844C38.0542 25.4073 37.8719 25.2588 37.6844 25.139Z" fill="#D9D9D9"/>
</svg>
