<svg width="413" height="188" viewBox="0 0 413 188" fill="none" xmlns="http://www.w3.org/2000/svg">
<path d="M124.838 131.248L124.744 131.529C123.838 133.654 123.182 135.592 122.776 137.342C122.369 139.061 122.166 140.764 122.166 142.451C122.166 143.451 122.229 144.451 122.354 145.451C122.479 146.451 122.666 147.498 122.916 148.592L123.01 148.967L122.822 149.389C121.916 151.17 121.213 152.764 120.713 154.17C120.244 155.545 119.963 156.982 119.869 158.482C120.494 158.389 121.057 158.279 121.557 158.154C122.057 158.029 122.541 157.889 123.01 157.732C123.51 157.545 124.01 157.357 124.51 157.17C125.041 156.982 125.635 156.779 126.291 156.561C126.447 156.498 126.588 156.451 126.713 156.42C126.838 156.357 126.979 156.279 127.135 156.186L127.51 155.998L127.932 156.092C128.994 156.342 129.994 156.514 130.932 156.607C131.901 156.701 132.807 156.748 133.651 156.748C135.432 156.748 137.166 156.529 138.854 156.092C140.541 155.654 142.401 154.951 144.432 153.982L144.994 153.701L145.463 153.982C145.494 154.014 145.713 154.17 146.119 154.451C146.526 154.732 146.979 155.186 147.479 155.811C148.01 156.404 148.526 157.186 149.026 158.154C149.526 159.092 149.885 160.264 150.104 161.67C150.166 162.014 150.197 162.342 150.197 162.654C150.197 162.967 150.197 163.279 150.197 163.592C150.197 164.686 150.072 165.67 149.822 166.545C149.572 167.42 149.291 168.17 148.979 168.795C148.666 169.389 148.369 169.857 148.088 170.201C147.838 170.545 147.697 170.732 147.666 170.764L147.197 171.279L146.635 171.092C145.666 170.936 144.744 170.811 143.869 170.717C142.994 170.623 142.151 170.576 141.338 170.576C139.494 170.576 137.776 170.795 136.182 171.232C134.619 171.67 132.916 172.326 131.072 173.201L130.697 173.389L130.416 173.295C129.697 173.295 128.994 173.264 128.307 173.201C127.619 173.139 126.947 173.107 126.291 173.107C123.947 173.107 121.666 173.373 119.447 173.904C117.229 174.436 115.057 175.248 112.932 176.342L112.463 176.529L112.088 176.436C112.182 176.467 111.947 176.373 111.385 176.154C110.822 175.936 110.166 175.529 109.416 174.936C108.666 174.373 107.932 173.592 107.213 172.592C106.526 171.561 106.104 170.248 105.947 168.654C105.104 168.186 104.401 167.686 103.838 167.154C103.307 166.592 102.869 166.076 102.526 165.607C102.213 165.139 101.994 164.748 101.869 164.436C101.744 164.092 101.682 163.904 101.682 163.873L101.588 163.404L101.776 162.982C102.369 161.92 102.885 160.92 103.322 159.982C103.76 159.045 104.119 158.139 104.401 157.264C104.682 156.357 104.885 155.451 105.01 154.545C105.166 153.607 105.244 152.592 105.244 151.498C105.244 150.217 105.151 148.779 104.963 147.186L105.057 146.576C105.869 144.607 106.463 142.779 106.838 141.092C107.244 139.404 107.447 137.717 107.447 136.029C107.447 135.061 107.385 134.076 107.26 133.076C107.135 132.045 106.979 130.982 106.791 129.889L106.697 129.42L106.885 129.139C107.604 127.732 108.197 126.451 108.666 125.295C109.135 124.107 109.494 122.92 109.744 121.732C109.276 121.107 108.869 120.279 108.526 119.248C108.213 118.186 108.057 116.904 108.057 115.404C108.057 113.404 108.307 111.779 108.807 110.529C109.338 109.248 109.916 108.248 110.541 107.529C111.197 106.811 111.791 106.326 112.322 106.076C112.854 105.826 113.151 105.701 113.213 105.701L113.682 105.514L114.104 105.701C115.729 106.514 117.369 107.107 119.026 107.482C120.682 107.826 122.432 107.998 124.276 107.998C125.026 107.998 125.901 107.998 126.901 107.998C127.901 107.967 128.807 107.811 129.619 107.529L130.041 107.436L130.416 107.623C132.26 108.436 133.932 109.061 135.432 109.498C136.963 109.904 138.526 110.107 140.119 110.107C141.088 110.107 142.057 110.045 143.026 109.92C144.026 109.764 145.072 109.545 146.166 109.264L146.729 109.17L147.104 109.545C147.135 109.576 147.307 109.748 147.619 110.061C147.932 110.373 148.244 110.842 148.557 111.467C148.901 112.092 149.213 112.889 149.494 113.857C149.776 114.795 149.916 115.92 149.916 117.232V117.982C149.822 119.389 149.557 120.623 149.119 121.686C148.713 122.717 148.276 123.576 147.807 124.264C147.338 124.92 146.901 125.42 146.494 125.764C146.119 126.107 145.916 126.295 145.885 126.326L145.276 126.701L144.713 126.514C142.869 125.732 141.213 125.154 139.744 124.779C138.307 124.404 136.854 124.217 135.385 124.217C134.51 124.217 133.635 124.279 132.76 124.404C131.885 124.529 130.947 124.717 129.947 124.967L129.244 124.873C128.338 124.717 127.51 124.545 126.76 124.357C126.01 124.139 125.244 123.936 124.463 123.748C124.401 124.217 124.369 124.67 124.369 125.107C124.369 125.545 124.369 125.982 124.369 126.42C124.369 127.107 124.401 127.811 124.463 128.529C124.557 129.248 124.682 130.014 124.838 130.826V131.248ZM199.088 136.123L198.994 136.686L198.432 136.967C196.401 137.842 194.541 138.826 192.854 139.92C191.197 140.982 189.697 142.217 188.354 143.623C188.885 145.061 189.572 146.357 190.416 147.514C191.26 148.639 192.369 149.842 193.744 151.123L194.026 151.592C194.557 154.279 195.432 156.717 196.651 158.904C197.901 161.092 199.588 163.092 201.713 164.904L202.088 165.139V165.607C202.088 165.67 202.057 165.967 201.994 166.498C201.963 167.029 201.776 167.686 201.432 168.467C201.119 169.248 200.588 170.092 199.838 170.998C199.088 171.904 198.01 172.764 196.604 173.576C195.51 174.201 194.479 174.623 193.51 174.842C192.572 175.092 191.744 175.217 191.026 175.217C190.369 175.217 189.791 175.154 189.291 175.029C188.791 174.904 188.369 174.764 188.026 174.607C187.682 174.451 187.416 174.311 187.229 174.186C187.041 174.061 186.932 173.982 186.901 173.951L186.619 173.764L186.526 173.295C186.369 172.076 186.119 170.936 185.776 169.873C185.463 168.811 185.057 167.779 184.557 166.779C184.057 165.779 183.463 164.795 182.776 163.826C182.119 162.857 181.385 161.873 180.572 160.873C180.26 160.561 180.041 160.373 179.916 160.311L179.635 160.029V159.654C179.385 158.186 179.088 156.889 178.744 155.764C178.432 154.607 177.994 153.529 177.432 152.529C176.119 153.498 174.854 154.576 173.635 155.764C172.447 156.951 171.369 158.186 170.401 159.467C170.338 159.717 170.322 159.951 170.354 160.17C170.385 160.389 170.401 160.623 170.401 160.873C170.401 162.529 170.526 164.154 170.776 165.748C171.026 167.311 171.447 168.889 172.041 170.482L172.229 170.857L172.041 171.373C172.01 171.436 171.838 171.717 171.526 172.217C171.213 172.686 170.697 173.201 169.979 173.764C169.26 174.326 168.276 174.826 167.026 175.264C165.807 175.732 164.276 175.967 162.432 175.967C160.588 175.967 159.057 175.717 157.838 175.217C156.651 174.748 155.697 174.217 154.979 173.623C154.291 172.998 153.807 172.436 153.526 171.936C153.244 171.436 153.104 171.154 153.104 171.092L152.916 170.576L153.104 170.201C153.822 168.451 154.354 166.686 154.697 164.904C155.041 163.092 155.213 161.217 155.213 159.279C155.213 157.967 155.135 156.654 154.979 155.342C154.854 153.998 154.619 152.623 154.276 151.217V150.607C154.651 149.076 154.947 147.561 155.166 146.061C155.416 144.529 155.541 143.045 155.541 141.607C155.541 139.92 155.401 138.279 155.119 136.686C154.838 135.092 154.463 133.498 153.994 131.904L153.901 131.529L154.088 131.154C155.432 127.717 156.104 124.279 156.104 120.842C156.104 119.436 155.994 118.061 155.776 116.717C155.588 115.373 155.276 113.998 154.838 112.592L154.651 112.029L155.026 111.561C155.057 111.529 155.182 111.404 155.401 111.186C155.619 110.936 155.947 110.654 156.385 110.342C156.822 109.998 157.385 109.67 158.072 109.357C158.76 109.014 159.572 108.748 160.51 108.561C161.104 107.623 161.776 106.889 162.526 106.357C163.276 105.795 163.979 105.373 164.635 105.092C165.322 104.811 165.901 104.623 166.369 104.529C166.869 104.436 167.151 104.373 167.213 104.342H167.729L168.104 104.623C169.01 105.436 170.01 106.217 171.104 106.967C172.197 107.717 173.354 108.373 174.572 108.936C175.791 109.498 177.072 109.951 178.416 110.295C179.76 110.607 181.151 110.764 182.588 110.764L183.385 111.092C184.635 112.186 185.822 113.123 186.947 113.904C188.104 114.654 189.291 115.279 190.51 115.779C191.729 116.279 193.01 116.67 194.354 116.951C195.697 117.232 197.182 117.42 198.807 117.514L199.416 117.607L199.791 118.076C199.791 118.139 199.838 118.279 199.932 118.498C200.057 118.717 200.182 119.029 200.307 119.436C200.432 119.811 200.541 120.279 200.635 120.842C200.76 121.373 200.822 121.982 200.822 122.67C200.822 123.295 200.76 123.967 200.635 124.686C200.541 125.404 200.354 126.17 200.072 126.982C199.635 128.264 199.088 129.326 198.432 130.17C198.776 130.982 198.994 131.748 199.088 132.467C199.213 133.154 199.276 133.764 199.276 134.295C199.276 134.826 199.244 135.248 199.182 135.561C199.119 135.873 199.088 136.061 199.088 136.123ZM177.901 127.592L177.291 127.404C176.104 126.717 174.994 126.076 173.963 125.482C172.932 124.857 171.932 124.311 170.963 123.842C170.963 124.998 171.057 126.154 171.244 127.311C171.432 128.436 171.697 129.576 172.041 130.732V131.436C171.26 134.061 170.776 136.623 170.588 139.123C171.088 138.623 171.541 138.123 171.947 137.623C172.385 137.123 172.729 136.654 172.979 136.217L173.682 135.654C175.744 134.873 177.666 133.936 179.447 132.842C181.26 131.717 182.916 130.373 184.416 128.811C182.479 128.186 180.307 127.779 177.901 127.592ZM239.354 140.904C239.354 142.311 239.166 143.545 238.791 144.607C238.416 145.639 237.994 146.514 237.526 147.232C237.057 147.951 236.619 148.498 236.213 148.873C235.838 149.248 235.635 149.451 235.604 149.482L235.135 149.857L234.479 149.67C232.729 149.076 231.182 148.639 229.838 148.357C228.526 148.076 227.213 147.936 225.901 147.936C224.932 147.936 223.979 148.029 223.041 148.217L223.322 148.779L223.51 149.201L223.322 149.576C222.572 151.701 222.057 153.811 221.776 155.904C222.276 155.779 222.838 155.67 223.463 155.576C224.088 155.482 224.682 155.404 225.244 155.342C225.807 155.279 226.276 155.232 226.651 155.201C227.026 155.17 227.229 155.154 227.26 155.154L227.635 155.014L228.01 155.248C229.791 155.967 231.307 156.514 232.557 156.889C233.807 157.264 235.072 157.451 236.354 157.451C237.229 157.451 238.182 157.357 239.213 157.17C240.244 156.982 241.416 156.717 242.729 156.373L243.291 156.186L243.76 156.561C243.791 156.623 243.963 156.826 244.276 157.17C244.619 157.482 244.979 157.982 245.354 158.67C245.729 159.326 246.072 160.17 246.385 161.201C246.697 162.201 246.854 163.404 246.854 164.811C246.822 166.217 246.604 167.436 246.197 168.467C245.791 169.498 245.354 170.373 244.885 171.092C244.416 171.779 243.979 172.311 243.572 172.686C243.166 173.061 242.947 173.264 242.916 173.295L242.307 173.576L241.744 173.389C239.901 172.701 238.369 172.217 237.151 171.936C235.932 171.623 234.744 171.467 233.588 171.467C232.776 171.467 231.932 171.545 231.057 171.701C230.182 171.826 229.166 172.029 228.01 172.311H227.354C226.479 172.154 225.604 171.982 224.729 171.795C223.885 171.576 223.026 171.373 222.151 171.186C221.838 171.529 221.432 171.904 220.932 172.311C220.463 172.686 219.869 173.029 219.151 173.342C218.463 173.654 217.651 173.904 216.713 174.092C215.807 174.311 214.776 174.42 213.619 174.42C211.776 174.42 210.244 174.17 209.026 173.67C207.838 173.17 206.885 172.623 206.166 172.029C205.479 171.404 204.994 170.842 204.713 170.342C204.432 169.811 204.291 169.514 204.291 169.451L204.104 169.076L204.291 168.561C205.01 166.842 205.541 165.076 205.885 163.264C206.229 161.451 206.401 159.607 206.401 157.732C206.401 156.42 206.322 155.092 206.166 153.748C206.041 152.404 205.807 151.014 205.463 149.576V148.967C205.838 147.436 206.135 145.936 206.354 144.467C206.604 142.967 206.729 141.467 206.729 139.967C206.729 138.311 206.588 136.686 206.307 135.092C206.026 133.498 205.651 131.92 205.182 130.357L205.088 129.889L205.276 129.514C205.963 127.826 206.463 126.139 206.776 124.451C207.119 122.732 207.291 121.029 207.291 119.342C207.291 117.967 207.182 116.607 206.963 115.264C206.776 113.889 206.463 112.498 206.026 111.092L205.838 110.482L206.213 110.014C206.244 109.982 206.432 109.795 206.776 109.451C207.119 109.076 207.635 108.686 208.322 108.279C209.041 107.842 209.932 107.467 210.994 107.154C212.057 106.811 213.322 106.639 214.791 106.639C216.479 106.639 217.916 106.873 219.104 107.342C220.291 107.811 221.244 108.311 221.963 108.842C222.869 108.748 223.822 108.607 224.822 108.42C225.822 108.232 226.822 107.967 227.822 107.623L228.197 107.436L228.713 107.529C230.213 107.998 231.51 108.357 232.604 108.607C233.729 108.826 234.791 108.936 235.791 108.936C236.885 108.936 238.026 108.795 239.213 108.514C240.401 108.232 241.791 107.811 243.385 107.248L243.947 107.014L244.463 107.342C244.494 107.373 244.697 107.545 245.072 107.857C245.447 108.17 245.854 108.654 246.291 109.311C246.729 109.936 247.135 110.748 247.51 111.748C247.916 112.717 248.166 113.904 248.26 115.311V116.154C248.26 117.404 248.104 118.514 247.791 119.482C247.479 120.451 247.119 121.279 246.713 121.967C246.338 122.623 245.979 123.123 245.635 123.467C245.322 123.811 245.151 123.998 245.119 124.029L244.651 124.404L243.947 124.217C242.447 123.873 241.166 123.623 240.104 123.467C239.041 123.279 238.057 123.186 237.151 123.186C236.088 123.186 235.026 123.311 233.963 123.561C232.932 123.779 231.682 124.123 230.213 124.592L229.557 124.686C228.244 124.436 226.979 124.248 225.76 124.123C224.572 123.998 223.369 123.936 222.151 123.936C222.244 124.811 222.369 125.686 222.526 126.561C222.713 127.404 222.947 128.264 223.229 129.139V129.795C223.041 130.357 222.885 130.92 222.76 131.482C222.666 132.014 222.572 132.576 222.479 133.17C223.385 133.42 224.229 133.592 225.01 133.686C225.822 133.779 226.666 133.826 227.541 133.826C228.697 133.826 229.869 133.732 231.057 133.545C232.244 133.326 233.541 132.998 234.947 132.561L235.51 132.373L235.979 132.748C236.01 132.779 236.197 132.967 236.541 133.311C236.916 133.623 237.307 134.123 237.713 134.811C238.151 135.467 238.526 136.311 238.838 137.342C239.182 138.342 239.354 139.529 239.354 140.904ZM318.385 114.514L318.104 115.123C316.854 117.436 315.916 119.732 315.291 122.014C314.666 124.264 314.354 126.561 314.354 128.904C314.354 130.092 314.447 131.248 314.635 132.373L314.447 132.936C312.26 137.717 311.166 142.389 311.166 146.951C311.166 147.764 311.197 148.576 311.26 149.389C311.322 150.17 311.432 150.967 311.588 151.779L311.354 152.529C308.947 156.967 307.744 161.576 307.744 166.357C307.744 167.232 307.776 168.107 307.838 168.982C307.932 169.826 308.057 170.686 308.213 171.561L308.307 172.029L308.026 172.404C307.994 172.467 307.838 172.67 307.557 173.014C307.276 173.357 306.822 173.717 306.197 174.092C305.604 174.498 304.822 174.857 303.854 175.17C302.885 175.514 301.713 175.686 300.338 175.686C299.151 175.686 298.088 175.592 297.151 175.404C296.213 175.217 295.369 174.967 294.619 174.654C293.901 174.342 293.26 173.998 292.697 173.623C292.166 173.217 291.713 172.811 291.338 172.404C290.432 171.436 289.776 170.326 289.369 169.076L289.276 168.654L289.604 168.186C288.885 167.811 288.338 167.42 287.963 167.014C287.619 166.576 287.447 166.326 287.447 166.264L287.166 165.889V165.42C287.26 164.701 287.307 164.014 287.307 163.357C287.338 162.67 287.354 162.014 287.354 161.389C287.354 159.889 287.197 158.451 286.885 157.076C286.604 155.701 286.119 154.186 285.432 152.529C283.651 156.373 282.76 160.436 282.76 164.717C282.76 165.498 282.791 166.279 282.854 167.061C282.947 167.811 283.041 168.576 283.135 169.357L283.229 169.826L282.947 170.201C282.916 170.264 282.76 170.467 282.479 170.811C282.229 171.123 281.822 171.482 281.26 171.889C280.697 172.264 279.979 172.623 279.104 172.967C278.26 173.279 277.244 173.451 276.057 173.482C275.151 174.107 274.026 174.654 272.682 175.123C271.369 175.623 269.869 175.873 268.182 175.873C267.026 175.873 266.026 175.717 265.182 175.404C264.369 175.123 263.682 174.811 263.119 174.467C262.588 174.123 262.182 173.795 261.901 173.482C261.619 173.17 261.463 172.998 261.432 172.967L261.151 172.592L261.244 172.123C261.307 171.498 261.354 170.889 261.385 170.295C261.416 169.701 261.432 169.092 261.432 168.467C261.432 165.967 261.119 163.482 260.494 161.014C259.869 158.514 258.885 156.014 257.541 153.514L257.307 152.904C257.307 149.529 256.901 146.357 256.088 143.389C255.276 140.42 254.026 137.576 252.338 134.857L252.151 134.107C252.213 133.482 252.26 132.873 252.291 132.279C252.322 131.686 252.338 131.076 252.338 130.451C252.338 125.326 250.963 120.529 248.213 116.061L247.932 115.592L248.213 114.982C248.213 115.014 248.385 114.732 248.729 114.139C249.072 113.545 249.651 112.889 250.463 112.17C251.307 111.42 252.416 110.732 253.791 110.107C255.166 109.482 256.885 109.17 258.947 109.17C259.885 109.17 260.729 109.264 261.479 109.451C262.229 109.607 262.869 109.795 263.401 110.014C263.932 110.232 264.338 110.436 264.619 110.623C264.932 110.811 265.119 110.92 265.182 110.951L265.697 111.373V112.029C265.635 112.467 265.604 112.904 265.604 113.342C265.604 113.748 265.604 114.17 265.604 114.607C265.604 117.326 265.916 119.889 266.541 122.295C267.166 124.67 268.166 126.951 269.541 129.139L269.635 129.795C269.635 132.232 269.791 134.514 270.104 136.639C270.416 138.764 270.963 140.795 271.744 142.732C272.182 141.326 272.494 139.967 272.682 138.654C272.869 137.342 272.963 135.982 272.963 134.576C272.963 133.201 272.869 131.732 272.682 130.17L272.588 129.795L272.776 129.42C273.776 127.67 274.541 126.045 275.072 124.545C275.635 123.014 275.994 121.404 276.151 119.717V119.623L275.869 119.014L276.057 118.545C276.057 118.576 276.213 118.311 276.526 117.748C276.838 117.154 277.354 116.514 278.072 115.826C278.822 115.107 279.807 114.451 281.026 113.857C282.244 113.264 283.76 112.967 285.572 112.967C286.447 112.967 287.229 113.061 287.916 113.248C288.635 113.436 289.244 113.654 289.744 113.904C290.276 114.123 290.682 114.342 290.963 114.561C291.276 114.748 291.463 114.857 291.526 114.889L291.994 115.311V115.967C291.932 116.404 291.901 116.811 291.901 117.186C291.901 117.561 291.901 117.92 291.901 118.264C291.901 119.482 291.963 120.576 292.088 121.545C292.244 122.482 292.479 123.404 292.791 124.311C293.104 125.186 293.494 126.076 293.963 126.982C294.432 127.889 294.994 128.889 295.651 129.982L295.838 130.639C295.838 131.639 295.854 132.545 295.885 133.357C295.916 134.17 295.963 134.92 296.026 135.607C296.088 136.295 296.166 136.936 296.26 137.529C296.385 138.092 296.526 138.654 296.682 139.217C296.869 137.873 296.963 136.561 296.963 135.279C296.963 134.498 296.916 133.732 296.822 132.982C296.76 132.201 296.682 131.42 296.588 130.639V130.17L296.776 129.889C299.463 125.357 300.807 120.623 300.807 115.686C300.807 114.436 300.713 113.123 300.526 111.748L300.432 111.186L300.901 110.67C300.932 110.639 301.088 110.529 301.369 110.342C301.651 110.123 302.057 109.889 302.588 109.639C303.151 109.389 303.822 109.17 304.604 108.982C305.416 108.764 306.354 108.654 307.416 108.654C309.322 108.654 310.947 108.92 312.291 109.451C313.635 109.982 314.729 110.576 315.572 111.232C316.416 111.889 317.041 112.514 317.447 113.107C317.854 113.67 318.072 113.982 318.104 114.045L318.385 114.514Z" fill="url(#paint0_linear_1_49)"/>
<path d="M54.4952 44.2031L54.4015 44.4844C53.4952 46.6094 52.839 48.5469 52.4327 50.2969C52.0265 52.0156 51.8234 53.7188 51.8234 55.4062C51.8234 56.4062 51.8859 57.4062 52.0109 58.4062C52.1359 59.4062 52.3234 60.4531 52.5734 61.5469L52.6671 61.9219L52.4796 62.3438C51.5734 64.125 50.8702 65.7188 50.3702 67.125C49.9015 68.5 49.6202 69.9375 49.5265 71.4375C50.1515 71.3438 50.714 71.2344 51.214 71.1094C51.714 70.9844 52.1984 70.8438 52.6671 70.6875C53.1671 70.5 53.6671 70.3125 54.1671 70.125C54.6984 69.9375 55.2921 69.7344 55.9484 69.5156C56.1046 69.4531 56.2452 69.4062 56.3702 69.375C56.4952 69.3125 56.6359 69.2344 56.7921 69.1406L57.1671 68.9531L57.589 69.0469C58.6515 69.2969 59.6515 69.4688 60.589 69.5625C61.5577 69.6562 62.464 69.7031 63.3077 69.7031C65.089 69.7031 66.8234 69.4844 68.5109 69.0469C70.1984 68.6094 72.0577 67.9062 74.089 66.9375L74.6515 66.6562L75.1202 66.9375C75.1515 66.9688 75.3702 67.125 75.7765 67.4062C76.1827 67.6875 76.6359 68.1406 77.1359 68.7656C77.6671 69.3594 78.1827 70.1406 78.6827 71.1094C79.1827 72.0469 79.5421 73.2188 79.7609 74.625C79.8234 74.9688 79.8546 75.2969 79.8546 75.6094C79.8546 75.9219 79.8546 76.2344 79.8546 76.5469C79.8546 77.6406 79.7296 78.625 79.4796 79.5C79.2296 80.375 78.9484 81.125 78.6359 81.75C78.3234 82.3438 78.0265 82.8125 77.7452 83.1562C77.4952 83.5 77.3546 83.6875 77.3234 83.7188L76.8546 84.2344L76.2921 84.0469C75.3234 83.8906 74.4015 83.7656 73.5265 83.6719C72.6515 83.5781 71.8077 83.5312 70.9952 83.5312C69.1515 83.5312 67.4327 83.75 65.839 84.1875C64.2765 84.625 62.5734 85.2812 60.7296 86.1562L60.3546 86.3438L60.0734 86.25C59.3546 86.25 58.6515 86.2188 57.964 86.1562C57.2765 86.0938 56.6046 86.0625 55.9484 86.0625C53.6046 86.0625 51.3234 86.3281 49.1046 86.8594C46.8859 87.3906 44.714 88.2031 42.589 89.2969L42.1202 89.4844L41.7452 89.3906C41.839 89.4219 41.6046 89.3281 41.0421 89.1094C40.4796 88.8906 39.8234 88.4844 39.0734 87.8906C38.3234 87.3281 37.589 86.5469 36.8702 85.5469C36.1827 84.5156 35.7609 83.2031 35.6046 81.6094C34.7609 81.1406 34.0577 80.6406 33.4952 80.1094C32.964 79.5469 32.5265 79.0312 32.1827 78.5625C31.8702 78.0938 31.6515 77.7031 31.5265 77.3906C31.4015 77.0469 31.339 76.8594 31.339 76.8281L31.2452 76.3594L31.4327 75.9375C32.0265 74.875 32.5421 73.875 32.9796 72.9375C33.4171 72 33.7765 71.0938 34.0577 70.2188C34.339 69.3125 34.5421 68.4062 34.6671 67.5C34.8234 66.5625 34.9015 65.5469 34.9015 64.4531C34.9015 63.1719 34.8077 61.7344 34.6202 60.1406L34.714 59.5312C35.5265 57.5625 36.1202 55.7344 36.4952 54.0469C36.9015 52.3594 37.1046 50.6719 37.1046 48.9844C37.1046 48.0156 37.0421 47.0312 36.9171 46.0312C36.7921 45 36.6359 43.9375 36.4484 42.8438L36.3546 42.375L36.5421 42.0938C37.2609 40.6875 37.8546 39.4062 38.3234 38.25C38.7921 37.0625 39.1515 35.875 39.4015 34.6875C38.9327 34.0625 38.5265 33.2344 38.1827 32.2031C37.8702 31.1406 37.714 29.8594 37.714 28.3594C37.714 26.3594 37.964 24.7344 38.464 23.4844C38.9952 22.2031 39.5734 21.2031 40.1984 20.4844C40.8546 19.7656 41.4484 19.2812 41.9796 19.0312C42.5109 18.7813 42.8077 18.6562 42.8702 18.6562L43.339 18.4688L43.7609 18.6562C45.3859 19.4687 47.0265 20.0625 48.6827 20.4375C50.339 20.7812 52.089 20.9531 53.9327 20.9531C54.6827 20.9531 55.5577 20.9531 56.5577 20.9531C57.5577 20.9219 58.464 20.7656 59.2765 20.4844L59.6984 20.3906L60.0734 20.5781C61.9171 21.3906 63.589 22.0156 65.089 22.4531C66.6202 22.8594 68.1827 23.0625 69.7765 23.0625C70.7452 23.0625 71.714 23 72.6827 22.875C73.6827 22.7188 74.7296 22.5 75.8234 22.2188L76.3859 22.125L76.7609 22.5C76.7921 22.5313 76.964 22.7031 77.2765 23.0156C77.589 23.3281 77.9015 23.7969 78.214 24.4219C78.5577 25.0469 78.8702 25.8437 79.1515 26.8125C79.4327 27.75 79.5734 28.875 79.5734 30.1875V30.9375C79.4796 32.3438 79.214 33.5781 78.7765 34.6406C78.3702 35.6719 77.9327 36.5312 77.464 37.2188C76.9952 37.875 76.5577 38.375 76.1515 38.7188C75.7765 39.0625 75.5734 39.25 75.5421 39.2812L74.9327 39.6562L74.3702 39.4688C72.5265 38.6875 70.8702 38.1094 69.4015 37.7344C67.964 37.3594 66.5109 37.1719 65.0421 37.1719C64.1671 37.1719 63.2921 37.2344 62.4171 37.3594C61.5421 37.4844 60.6046 37.6719 59.6046 37.9219L58.9015 37.8281C57.9952 37.6719 57.1671 37.5 56.4171 37.3125C55.6671 37.0938 54.9015 36.8906 54.1202 36.7031C54.0577 37.1719 54.0265 37.625 54.0265 38.0625C54.0265 38.5 54.0265 38.9375 54.0265 39.375C54.0265 40.0625 54.0577 40.7656 54.1202 41.4844C54.214 42.2031 54.339 42.9688 54.4952 43.7812V44.2031ZM126.823 77.8594C126.823 79.2656 126.636 80.5 126.261 81.5625C125.886 82.625 125.464 83.5156 124.995 84.2344C124.526 84.9531 124.089 85.5156 123.683 85.9219C123.276 86.2969 123.058 86.5 123.026 86.5312L122.511 86.9062L121.948 86.7188C118.605 85.5625 115.339 84.9844 112.151 84.9844C109.495 84.9844 106.901 85.375 104.37 86.1562H103.714C103.089 85.9375 102.401 85.7656 101.651 85.6406C100.901 85.4844 100.151 85.3281 99.4015 85.1719C98.6202 85.7031 97.6515 86.1719 96.4952 86.5781C95.3702 86.9844 93.9327 87.1875 92.1827 87.1875C90.339 87.1875 88.8077 86.9531 87.589 86.4844C86.4015 85.9844 85.4484 85.4375 84.7296 84.8438C84.0421 84.2188 83.5577 83.6562 83.2765 83.1562C82.9952 82.6562 82.8546 82.375 82.8546 82.3125L82.6671 81.7969L82.8546 81.4219C83.5734 79.6719 84.1046 77.9062 84.4484 76.125C84.7921 74.3125 84.964 72.4375 84.964 70.5C84.964 69.1875 84.8859 67.875 84.7296 66.5625C84.6046 65.2188 84.3702 63.8438 84.0265 62.4375V61.8281C84.4015 60.2969 84.6984 58.7969 84.9171 57.3281C85.1671 55.8281 85.2921 54.3281 85.2921 52.8281C85.2921 51.1406 85.1515 49.5 84.8702 47.9062C84.589 46.3125 84.214 44.7188 83.7452 43.125L83.6515 42.75L83.839 42.375C85.1827 38.9375 85.8546 35.5156 85.8546 32.1094C85.8546 30.7344 85.7452 29.375 85.5265 28.0312C85.339 26.6875 85.0265 25.3125 84.589 23.9062L84.4015 23.3438L84.7765 22.875C84.8077 22.8437 84.9952 22.6562 85.339 22.3125C85.6827 21.9375 86.1984 21.5469 86.8859 21.1406C87.6046 20.7031 88.4952 20.3281 89.5577 20.0156C90.6202 19.6719 91.8859 19.5 93.3546 19.5C94.8546 19.5 96.1515 19.7031 97.2452 20.1094C98.339 20.4844 99.2452 20.9062 99.964 21.375C100.714 21.8438 101.276 22.2812 101.651 22.6875C102.026 23.0938 102.23 23.3125 102.261 23.3438L102.73 23.8125L102.448 24.4219C101.886 26.1406 101.448 27.8281 101.136 29.4844C100.855 31.1094 100.714 32.75 100.714 34.4062C100.714 35.7188 100.792 37 100.948 38.25C101.136 39.4688 101.417 40.7031 101.792 41.9531V42.6562C100.823 46.0625 100.339 49.3281 100.339 52.4531C100.339 54.0469 100.464 55.6094 100.714 57.1406C100.964 58.6406 101.355 60.1406 101.886 61.6406L102.073 62.0625L101.886 62.4375C101.448 63.5312 101.105 64.6562 100.855 65.8125C100.605 66.9375 100.401 68.0781 100.245 69.2344C100.558 69.1719 100.886 69.125 101.23 69.0938C101.573 69.0312 101.886 68.9688 102.167 68.9062C102.511 68.8438 102.839 68.7969 103.151 68.7656L103.526 68.5781L103.901 68.7656C105.589 69.3906 107.261 69.875 108.917 70.2188C110.605 70.5312 112.323 70.6875 114.073 70.6875C115.417 70.6875 116.776 70.5938 118.151 70.4062C119.526 70.1875 120.917 69.8594 122.323 69.4219L123.026 69.2344L123.495 69.6094C123.526 69.6406 123.714 69.8281 124.058 70.1719C124.401 70.4844 124.761 70.9844 125.136 71.6719C125.542 72.3281 125.917 73.1719 126.261 74.2031C126.605 75.2344 126.792 76.4531 126.823 77.8594ZM162.823 53.8594C162.823 55.2656 162.636 56.5 162.261 57.5625C161.886 58.5938 161.464 59.4688 160.995 60.1875C160.526 60.9062 160.089 61.4531 159.683 61.8281C159.308 62.2031 159.105 62.4062 159.073 62.4375L158.605 62.8125L157.948 62.625C156.198 62.0312 154.651 61.5938 153.308 61.3125C151.995 61.0312 150.683 60.8906 149.37 60.8906C148.401 60.8906 147.448 60.9844 146.511 61.1719L146.792 61.7344L146.98 62.1562L146.792 62.5312C146.042 64.6562 145.526 66.7656 145.245 68.8594C145.745 68.7344 146.308 68.625 146.933 68.5312C147.558 68.4375 148.151 68.3594 148.714 68.2969C149.276 68.2344 149.745 68.1875 150.12 68.1562C150.495 68.125 150.698 68.1094 150.73 68.1094L151.105 67.9688L151.48 68.2031C153.261 68.9219 154.776 69.4688 156.026 69.8438C157.276 70.2188 158.542 70.4062 159.823 70.4062C160.698 70.4062 161.651 70.3125 162.683 70.125C163.714 69.9375 164.886 69.6719 166.198 69.3281L166.761 69.1406L167.23 69.5156C167.261 69.5781 167.433 69.7812 167.745 70.125C168.089 70.4375 168.448 70.9375 168.823 71.625C169.198 72.2812 169.542 73.125 169.855 74.1562C170.167 75.1562 170.323 76.3594 170.323 77.7656C170.292 79.1719 170.073 80.3906 169.667 81.4219C169.261 82.4531 168.823 83.3281 168.355 84.0469C167.886 84.7344 167.448 85.2656 167.042 85.6406C166.636 86.0156 166.417 86.2188 166.386 86.25L165.776 86.5312L165.214 86.3438C163.37 85.6562 161.839 85.1719 160.62 84.8906C159.401 84.5781 158.214 84.4219 157.058 84.4219C156.245 84.4219 155.401 84.5 154.526 84.6562C153.651 84.7812 152.636 84.9844 151.48 85.2656H150.823C149.948 85.1094 149.073 84.9375 148.198 84.75C147.355 84.5312 146.495 84.3281 145.62 84.1406C145.308 84.4844 144.901 84.8594 144.401 85.2656C143.933 85.6406 143.339 85.9844 142.62 86.2969C141.933 86.6094 141.12 86.8594 140.183 87.0469C139.276 87.2656 138.245 87.375 137.089 87.375C135.245 87.375 133.714 87.125 132.495 86.625C131.308 86.125 130.355 85.5781 129.636 84.9844C128.948 84.3594 128.464 83.7969 128.183 83.2969C127.901 82.7656 127.761 82.4688 127.761 82.4062L127.573 82.0312L127.761 81.5156C128.48 79.7969 129.011 78.0312 129.355 76.2188C129.698 74.4062 129.87 72.5625 129.87 70.6875C129.87 69.375 129.792 68.0469 129.636 66.7031C129.511 65.3594 129.276 63.9688 128.933 62.5312V61.9219C129.308 60.3906 129.605 58.8906 129.823 57.4219C130.073 55.9219 130.198 54.4219 130.198 52.9219C130.198 51.2656 130.058 49.6406 129.776 48.0469C129.495 46.4531 129.12 44.875 128.651 43.3125L128.558 42.8438L128.745 42.4688C129.433 40.7812 129.933 39.0938 130.245 37.4062C130.589 35.6875 130.761 33.9844 130.761 32.2969C130.761 30.9219 130.651 29.5625 130.433 28.2188C130.245 26.8438 129.933 25.4531 129.495 24.0469L129.308 23.4375L129.683 22.9688C129.714 22.9375 129.901 22.75 130.245 22.4062C130.589 22.0312 131.105 21.6406 131.792 21.2344C132.511 20.7969 133.401 20.4219 134.464 20.1094C135.526 19.7656 136.792 19.5938 138.261 19.5938C139.948 19.5938 141.386 19.8281 142.573 20.2969C143.761 20.7656 144.714 21.2656 145.433 21.7969C146.339 21.7031 147.292 21.5625 148.292 21.375C149.292 21.1875 150.292 20.9219 151.292 20.5781L151.667 20.3906L152.183 20.4844C153.683 20.9531 154.98 21.3125 156.073 21.5625C157.198 21.7813 158.261 21.8906 159.261 21.8906C160.355 21.8906 161.495 21.75 162.683 21.4688C163.87 21.1875 165.261 20.7656 166.855 20.2031L167.417 19.9688L167.933 20.2969C167.964 20.3281 168.167 20.5 168.542 20.8125C168.917 21.125 169.323 21.6094 169.761 22.2656C170.198 22.8906 170.605 23.7031 170.98 24.7031C171.386 25.6719 171.636 26.8594 171.73 28.2656V29.1094C171.73 30.3594 171.573 31.4687 171.261 32.4375C170.948 33.4062 170.589 34.2344 170.183 34.9219C169.808 35.5781 169.448 36.0781 169.105 36.4219C168.792 36.7656 168.62 36.9531 168.589 36.9844L168.12 37.3594L167.417 37.1719C165.917 36.8281 164.636 36.5781 163.573 36.4219C162.511 36.2344 161.526 36.1406 160.62 36.1406C159.558 36.1406 158.495 36.2656 157.433 36.5156C156.401 36.7344 155.151 37.0781 153.683 37.5469L153.026 37.6406C151.714 37.3906 150.448 37.2031 149.23 37.0781C148.042 36.9531 146.839 36.8906 145.62 36.8906C145.714 37.7656 145.839 38.6406 145.995 39.5156C146.183 40.3594 146.417 41.2188 146.698 42.0938V42.75C146.511 43.3125 146.355 43.875 146.23 44.4375C146.136 44.9688 146.042 45.5312 145.948 46.125C146.855 46.375 147.698 46.5469 148.48 46.6406C149.292 46.7344 150.136 46.7812 151.011 46.7812C152.167 46.7812 153.339 46.6875 154.526 46.5C155.714 46.2812 157.011 45.9531 158.417 45.5156L158.98 45.3281L159.448 45.7031C159.48 45.7344 159.667 45.9219 160.011 46.2656C160.386 46.5781 160.776 47.0781 161.183 47.7656C161.62 48.4219 161.995 49.2656 162.308 50.2969C162.651 51.2969 162.823 52.4844 162.823 53.8594ZM222.073 62.5312C222.261 63.5625 222.355 64.5156 222.355 65.3906C222.355 66.3594 222.261 67.2344 222.073 68.0156C221.886 68.7656 221.667 69.4219 221.417 69.9844C221.198 70.5156 220.98 70.9531 220.761 71.2969C220.573 71.6094 220.464 71.7812 220.433 71.8125L220.058 72.3281L219.401 72.2344C218.964 72.1719 218.526 72.1406 218.089 72.1406C217.651 72.1406 217.214 72.1406 216.776 72.1406C217.214 73.6719 217.761 75.1562 218.417 76.5938C219.073 78.0312 219.808 79.4219 220.62 80.7656L221.136 81.5156L220.526 82.2188C220.495 82.25 220.323 82.4219 220.011 82.7344C219.73 83.0156 219.292 83.3594 218.698 83.7656C218.105 84.1406 217.339 84.5469 216.401 84.9844C215.495 85.4219 214.417 85.7812 213.167 86.0625C212.573 86.2188 211.98 86.3438 211.386 86.4375C210.823 86.5 210.261 86.5312 209.698 86.5312C208.886 86.5312 208.136 86.4688 207.448 86.3438C206.792 86.2188 206.23 86.0781 205.761 85.9219C205.292 85.7344 204.917 85.5781 204.636 85.4531C204.386 85.3281 204.245 85.2656 204.214 85.2656L203.558 84.8906L203.651 84.1406C203.651 83.7344 203.667 83.3438 203.698 82.9688C203.73 82.5938 203.745 82.2031 203.745 81.7969C203.745 79.6406 203.558 77.5 203.183 75.375C203.058 75.5 202.948 75.5625 202.855 75.5625L202.198 75.75C200.23 75.75 198.214 75.875 196.151 76.125C194.089 76.375 192.042 76.8281 190.011 77.4844V78.9375C190.011 80.2812 190.105 81.625 190.292 82.9688L190.386 83.4375L190.105 83.8125C190.073 83.8438 189.917 84.0156 189.636 84.3281C189.355 84.6406 188.917 84.9844 188.323 85.3594C187.73 85.7344 186.98 86.0781 186.073 86.3906C185.167 86.6719 184.073 86.8125 182.792 86.8125C180.292 86.8125 178.308 86.4531 176.839 85.7344C175.401 85.0156 174.292 84.2031 173.511 83.2969C172.605 82.2656 171.995 81.0938 171.683 79.7812L171.589 79.4062L171.87 79.0312C173.464 76.5938 174.636 74 175.386 71.25C176.167 68.4688 176.558 65.4688 176.558 62.25V60.6094L176.745 60.0469C177.964 57.6094 178.855 55.1875 179.417 52.7812C180.011 50.3438 180.308 47.8906 180.308 45.4219C180.308 44.7969 180.292 44.1719 180.261 43.5469C180.23 42.9219 180.183 42.2969 180.12 41.6719L180.026 41.2031L180.308 40.8281C183.308 36.2344 184.808 31.2656 184.808 25.9219C184.808 25.4531 184.792 24.9688 184.761 24.4688C184.73 23.9375 184.683 23.4062 184.62 22.875V22.3125L185.042 21.8906C185.073 21.8594 185.23 21.75 185.511 21.5625C185.823 21.3437 186.245 21.125 186.776 20.9062C187.308 20.6563 187.948 20.4375 188.698 20.25C189.48 20.0625 190.37 19.9688 191.37 19.9688C193.308 19.9688 194.948 20.2656 196.292 20.8594C197.667 21.4531 198.776 22.1094 199.62 22.8281C200.464 23.5469 201.073 24.2031 201.448 24.7969C201.855 25.3906 202.073 25.7031 202.105 25.7344L202.386 26.3438L202.105 26.9062C201.98 27.0313 201.917 27.125 201.917 27.1875H202.573C203.948 27.1875 205.026 27.2812 205.808 27.4688C206.62 27.6562 207.058 27.75 207.12 27.75L207.683 28.1719L207.589 28.8281C207.526 29.2031 207.495 29.5781 207.495 29.9531C207.495 30.2969 207.495 30.6562 207.495 31.0312C207.495 36.5938 208.808 41.6875 211.433 46.3125L211.62 46.875V48.1406C211.62 49.7656 211.683 51.3281 211.808 52.8281C211.933 54.2969 212.183 55.7031 212.558 57.0469C213.183 56.7969 213.792 56.5312 214.386 56.25C214.98 55.9688 215.558 55.6562 216.12 55.3125L216.589 55.0312L217.198 55.2188C217.23 55.25 217.433 55.3906 217.808 55.6406C218.214 55.8906 218.667 56.2969 219.167 56.8594C219.698 57.4219 220.23 58.1719 220.761 59.1094C221.323 60.0156 221.761 61.1562 222.073 62.5312ZM196.808 50.5312L196.151 48.3281C195.433 50.2031 194.901 52.0625 194.558 53.9062C194.214 55.75 194.042 57.5625 194.042 59.3438V60.6094C195.386 60.1406 196.667 59.5938 197.886 58.9688L198.636 58.7812C198.855 58.8438 199.073 58.8906 199.292 58.9219C199.511 58.9531 199.714 58.9688 199.901 58.9688C199.558 57.625 199.12 56.2656 198.589 54.8906C198.089 53.4844 197.495 52.0312 196.808 50.5312ZM275.417 24.0469L275.23 24.6094C274.667 26.3594 274.214 28.0625 273.87 29.7188C273.558 31.375 273.401 33.0312 273.401 34.6875C273.401 35.9375 273.495 37.1875 273.683 38.4375C273.901 39.6562 274.198 40.9062 274.573 42.1875V42.8438C273.605 46.1562 273.12 49.3906 273.12 52.5469C273.12 54.1719 273.245 55.75 273.495 57.2812C273.745 58.8125 274.136 60.3281 274.667 61.8281V62.625C274.042 64.25 273.573 65.8906 273.261 67.5469C272.98 69.2031 272.839 70.8594 272.839 72.5156C272.839 75.6719 273.386 78.7969 274.48 81.8906L274.667 82.4062L274.48 82.7812C274.448 82.8438 274.276 83.125 273.964 83.625C273.651 84.0938 273.136 84.6094 272.417 85.1719C271.698 85.7344 270.73 86.25 269.511 86.7188C268.292 87.1562 266.776 87.375 264.964 87.375C263.464 87.375 262.183 87.2344 261.12 86.9531C260.058 86.6406 259.167 86.2344 258.448 85.7344H257.98C257.136 85.7344 256.386 85.6562 255.73 85.5C255.073 85.3125 254.526 85.125 254.089 84.9375C253.651 84.7188 253.308 84.5156 253.058 84.3281C252.839 84.1094 252.714 83.9688 252.683 83.9062L252.308 83.625V83.1562C252.151 79.9688 251.495 76.9219 250.339 74.0156C249.183 71.1094 247.495 68.2344 245.276 65.3906L245.089 64.9219C244.714 62.7969 244.183 60.7969 243.495 58.9219C242.839 57.0469 242.026 55.2344 241.058 53.4844C241.12 54.9531 241.261 56.375 241.48 57.75C241.73 59.125 242.105 60.4844 242.605 61.8281L242.792 62.25L242.605 62.625C242.011 64.2188 241.573 65.8281 241.292 67.4531C241.011 69.0469 240.87 70.6719 240.87 72.3281C240.87 73.9531 240.995 75.5625 241.245 77.1562C241.495 78.7188 241.917 80.2969 242.511 81.8906L242.698 82.4062L242.511 82.7812C242.48 82.8438 242.308 83.125 241.995 83.625C241.683 84.0938 241.167 84.6094 240.448 85.1719C239.73 85.7344 238.745 86.25 237.495 86.7188C236.276 87.1562 234.745 87.375 232.901 87.375C231.058 87.375 229.526 87.1406 228.308 86.6719C227.12 86.1719 226.167 85.625 225.448 85.0312C224.761 84.4062 224.276 83.8438 223.995 83.3438C223.714 82.8438 223.573 82.5625 223.573 82.5L223.386 82.0312L223.573 81.6094C224.292 79.8906 224.823 78.125 225.167 76.3125C225.511 74.5 225.683 72.625 225.683 70.6875C225.683 69.375 225.605 68.0625 225.448 66.75C225.323 65.4062 225.089 64.0312 224.745 62.625V62.0625C225.12 60.5 225.417 58.9688 225.636 57.4688C225.886 55.9375 226.011 54.4531 226.011 53.0156C226.011 51.3281 225.87 49.6875 225.589 48.0938C225.308 46.5 224.933 44.9062 224.464 43.3125L224.37 42.9375L224.558 42.5625C225.901 39.125 226.573 35.7031 226.573 32.2969C226.573 30.9219 226.464 29.5781 226.245 28.2656C226.058 26.9219 225.745 25.5469 225.308 24.1406L225.12 23.5312L225.495 23.0625C225.526 23.0312 225.714 22.8437 226.058 22.5C226.401 22.125 226.917 21.7344 227.605 21.3281C228.323 20.8906 229.214 20.5156 230.276 20.2031C231.339 19.8594 232.605 19.6875 234.073 19.6875C235.48 19.6875 236.683 19.8594 237.683 20.2031C238.714 20.5156 239.589 20.8906 240.308 21.3281H241.058C242.37 21.3281 243.417 21.4844 244.198 21.7969C244.98 22.0781 245.401 22.25 245.464 22.3125L246.073 22.5938L246.167 23.1562C246.823 29.5937 249.058 35 252.87 39.375L253.151 39.6562V39.9375C253.964 45.0625 255.573 49.4844 257.98 53.2031V53.1094C257.98 51.4219 257.855 49.7812 257.605 48.1875C257.355 46.5938 256.995 44.9688 256.526 43.3125V42.5625C257.87 39.125 258.542 35.6406 258.542 32.1094C258.542 29.4219 258.151 26.7656 257.37 24.1406L257.183 23.5312L257.558 23.0625C257.589 23.0312 257.776 22.8437 258.12 22.5C258.464 22.125 258.98 21.7344 259.667 21.3281C260.386 20.8906 261.276 20.5156 262.339 20.2031C263.401 19.8594 264.667 19.6875 266.136 19.6875C267.605 19.6875 268.886 19.8906 269.98 20.2969C271.073 20.6719 271.995 21.0938 272.745 21.5625C273.495 22.0312 274.058 22.4687 274.433 22.875C274.808 23.2813 275.011 23.5 275.042 23.5312L275.417 24.0469ZM303.12 24.7969L302.839 25.3594C301.964 27.3906 301.323 29.3906 300.917 31.3594C300.542 33.2969 300.355 35.2344 300.355 37.1719C300.355 39.0469 300.542 40.9375 300.917 42.8438V43.5C300.198 45.5625 299.651 47.4688 299.276 49.2188C298.901 50.9688 298.714 52.6875 298.714 54.375C298.714 55.4688 298.792 56.5625 298.948 57.6562C299.105 58.75 299.355 59.8906 299.698 61.0781V61.8281C298.823 63.7031 298.183 65.4062 297.776 66.9375C297.401 68.4688 297.214 70.0312 297.214 71.625C298.214 71.375 299.183 71.0781 300.12 70.7344C301.058 70.3594 302.136 69.9531 303.355 69.5156L304.105 69.3281C304.886 69.4219 305.62 69.5156 306.308 69.6094C307.026 69.6719 307.73 69.7031 308.417 69.7031C310.511 69.7031 312.526 69.4219 314.464 68.8594C314.308 67.9531 314.136 67.0312 313.948 66.0938C313.761 65.125 313.526 64.1562 313.245 63.1875L313.105 62.625C313.355 61.4688 313.526 60.3281 313.62 59.2031C313.745 58.0469 313.808 56.875 313.808 55.6875C313.808 53.6562 313.62 51.6719 313.245 49.7344C312.87 47.7656 312.323 45.8438 311.605 43.9688V43.2188C312.073 41.7812 312.401 40.3594 312.589 38.9531C312.808 37.5469 312.917 36.125 312.917 34.6875C312.917 33.0312 312.761 31.3906 312.448 29.7656C312.167 28.1406 311.714 26.4844 311.089 24.7969L310.808 24.2344L311.23 23.625C311.261 23.5937 311.448 23.375 311.792 22.9688C312.136 22.5625 312.683 22.125 313.433 21.6562C314.183 21.1875 315.136 20.7656 316.292 20.3906C317.48 19.9844 318.917 19.7812 320.605 19.7812C321.917 19.7812 323.058 19.9375 324.026 20.25C325.026 20.5625 325.87 20.9062 326.558 21.2812C327.245 21.6562 327.761 22.0156 328.105 22.3594C328.448 22.6719 328.636 22.8437 328.667 22.875L329.136 23.3438L328.948 24.0469C328.198 26.8281 327.823 29.5469 327.823 32.2031C327.823 35.4531 328.401 38.5781 329.558 41.5781V42.2812C328.964 44.875 328.667 47.3906 328.667 49.8281C328.667 53.7656 329.433 57.5469 330.964 61.1719L331.151 61.5469L331.058 61.9219C330.308 64.6406 329.933 67.2969 329.933 69.8906C329.933 71.8281 330.12 73.7344 330.495 75.6094C330.901 77.4844 331.511 79.3594 332.323 81.2344L332.511 81.6094L332.323 82.125C332.292 82.1562 332.12 82.4531 331.808 83.0156C331.526 83.5469 330.995 84.1406 330.214 84.7969C329.464 85.4531 328.433 86.0469 327.12 86.5781C325.808 87.1094 324.12 87.375 322.058 87.375C320.776 87.375 319.667 87.25 318.73 87C317.823 86.75 317.042 86.4375 316.386 86.0625C315.73 85.6875 315.198 85.2969 314.792 84.8906C314.417 84.4844 314.12 84.125 313.901 83.8125C312.933 84.125 311.98 84.4844 311.042 84.8906C310.136 85.2656 309.198 85.7188 308.23 86.25L307.667 86.3438C306.073 86.3438 304.542 86.375 303.073 86.4375C301.636 86.4688 300.23 86.5938 298.855 86.8125C297.511 87 296.167 87.3125 294.823 87.75C293.511 88.2188 292.183 88.8594 290.839 89.6719L290.464 89.9531L289.995 89.8594C289.808 89.7656 289.464 89.625 288.964 89.4375C288.495 89.2812 287.948 88.9531 287.323 88.4531C286.73 87.9844 286.105 87.2969 285.448 86.3906C284.792 85.4531 284.198 84.1875 283.667 82.5938C282.792 82.1875 282.073 81.7344 281.511 81.2344C280.948 80.7031 280.495 80.2031 280.151 79.7344C279.839 79.2656 279.605 78.875 279.448 78.5625C279.323 78.2188 279.261 78.0156 279.261 77.9531L279.12 77.4844L279.355 77.1094C280.355 75.1094 281.089 73.2656 281.558 71.5781C282.058 69.8594 282.308 67.9844 282.308 65.9531C282.308 65.1406 282.261 64.2969 282.167 63.4219C282.105 62.5469 281.995 61.6094 281.839 60.6094V60.0469C282.495 58.1719 282.995 56.3906 283.339 54.7031C283.683 53.0156 283.855 51.3281 283.855 49.6406C283.855 48.5469 283.761 47.4375 283.573 46.3125C283.417 45.1875 283.183 44 282.87 42.75L282.776 42.375L282.964 41.9531C283.933 39.9844 284.651 38.0156 285.12 36.0469C285.62 34.0781 285.87 32.0469 285.87 29.9531C285.87 27.9219 285.605 25.8125 285.073 23.625L284.886 22.9688L285.401 22.5938C285.433 22.5625 285.605 22.3906 285.917 22.0781C286.23 21.7656 286.698 21.4531 287.323 21.1406C287.948 20.7969 288.73 20.4844 289.667 20.2031C290.636 19.9219 291.761 19.7812 293.042 19.7812C294.667 19.7812 296.089 20.0156 297.308 20.4844C298.526 20.9219 299.526 21.4219 300.308 21.9844C301.12 22.5156 301.714 23.0156 302.089 23.4844C302.495 23.9531 302.714 24.2031 302.745 24.2344L303.12 24.7969ZM382.901 48.5156L382.808 49.0781L382.245 49.2656C379.245 50.5781 376.62 52.125 374.37 53.9062C372.12 55.6875 370.167 57.7969 368.511 60.2344L368.042 60.7031C366.886 61.1719 365.683 61.7969 364.433 62.5781C363.183 63.3594 361.933 64.2344 360.683 65.2031C359.464 66.1719 358.292 67.2188 357.167 68.3438C356.073 69.4375 355.089 70.5625 354.214 71.7188C354.151 71.9688 354.136 72.2188 354.167 72.4688C354.198 72.6875 354.214 72.9219 354.214 73.1719C354.214 74.8281 354.339 76.4531 354.589 78.0469C354.839 79.6094 355.261 81.1875 355.855 82.7812L356.042 83.25L355.855 83.625C355.823 83.6875 355.651 83.9688 355.339 84.4688C355.026 84.9375 354.511 85.4531 353.792 86.0156C353.073 86.5781 352.089 87.0938 350.839 87.5625C349.62 88.0312 348.089 88.2656 346.245 88.2656C344.401 88.2656 342.87 88.0156 341.651 87.5156C340.464 87.0156 339.511 86.4688 338.792 85.875C338.105 85.2812 337.62 84.7344 337.339 84.2344C337.058 83.7031 336.917 83.4062 336.917 83.3438L336.73 82.875L336.917 82.5C337.636 80.75 338.167 78.9688 338.511 77.1562C338.855 75.3438 339.026 73.4688 339.026 71.5312C339.026 70.2188 338.948 68.9062 338.792 67.5938C338.667 66.25 338.433 64.875 338.089 63.4688V62.9062C338.464 61.3438 338.761 59.8125 338.98 58.3125C339.23 56.8125 339.355 55.3281 339.355 53.8594C339.355 52.1719 339.214 50.5469 338.933 48.9844C338.651 47.3906 338.276 45.7969 337.808 44.2031L337.714 43.7812L337.901 43.4062C339.245 39.9688 339.917 36.5469 339.917 33.1406C339.917 31.7969 339.808 30.4531 339.589 29.1094C339.401 27.7656 339.089 26.3906 338.651 24.9844L338.464 24.4219L338.839 23.9062C338.87 23.875 338.995 23.75 339.214 23.5312C339.433 23.2813 339.761 23 340.198 22.6875C340.636 22.3438 341.198 22.0156 341.886 21.7031C342.573 21.3594 343.386 21.0781 344.323 20.8594C344.917 19.9219 345.589 19.1875 346.339 18.6562C347.089 18.0938 347.792 17.6719 348.448 17.3906C349.136 17.1094 349.714 16.9219 350.183 16.8281C350.683 16.7344 350.964 16.6719 351.026 16.6406H351.542L351.917 16.9219C352.917 17.8281 353.917 18.6094 354.917 19.2656C355.917 19.8906 356.948 20.4531 358.011 20.9531C359.105 21.4219 360.261 21.8281 361.48 22.1719C362.698 22.5156 364.026 22.8125 365.464 23.0625C365.62 23.0625 365.776 23.0781 365.933 23.1094C366.089 23.1406 366.245 23.1562 366.401 23.1562H366.776L367.198 23.4375C368.448 24.5 369.636 25.4219 370.761 26.2031C371.917 26.9531 373.105 27.5938 374.323 28.125C375.542 28.625 376.823 29.0156 378.167 29.2969C379.511 29.5781 380.995 29.7656 382.62 29.8594H383.23L383.605 30.375C383.605 30.4375 383.651 30.5781 383.745 30.7969C383.87 31.0156 383.995 31.3281 384.12 31.7344C384.245 32.1094 384.355 32.5781 384.448 33.1406C384.573 33.6719 384.636 34.2812 384.636 34.9688C384.636 35.5938 384.573 36.2656 384.448 36.9844C384.355 37.7031 384.167 38.4688 383.886 39.2812C383.417 40.5938 382.87 41.6875 382.245 42.5625C382.589 43.375 382.808 44.1562 382.901 44.9062C383.026 45.625 383.089 46.25 383.089 46.7812C383.089 47.25 383.058 47.6406 382.995 47.9531C382.933 48.2656 382.901 48.4531 382.901 48.5156ZM361.714 39.9375L361.105 39.6562C359.917 39 358.808 38.375 357.776 37.7812C356.745 37.1875 355.745 36.6719 354.776 36.2344C354.776 37.3906 354.87 38.5312 355.058 39.6562C355.245 40.75 355.511 41.875 355.855 43.0312V43.6875C355.073 46.3438 354.589 48.9375 354.401 51.4688C354.933 50.9375 355.433 50.4062 355.901 49.875C356.401 49.3125 356.698 48.8594 356.792 48.5156L357.073 48.1406L357.495 48.0469C361.62 46.4844 365.167 44.2031 368.136 41.2031C367.136 40.8594 366.105 40.5938 365.042 40.4062C364.011 40.2188 362.901 40.0625 361.714 39.9375Z" fill="url(#paint1_linear_1_49)"/>
<path d="M388.119 158.263C388.708 160.302 387.793 162.475 385.916 163.445C370.19 171.569 359.416 174.752 341.798 176.551C339.714 176.764 337.771 175.47 337.132 173.464L317.355 111.43L370.002 95.5127L388.119 158.263Z" fill="url(#paint2_linear_1_49)" stroke="black"/>
<rect x="0.626035" y="0.32252" width="4.33486" height="59.0084" rx="2.16743" transform="matrix(0.951185 -0.308621 0.300885 0.95366 327.501 115.531)" fill="url(#paint3_linear_1_49)" stroke="black"/>
<rect x="0.623545" y="0.330969" width="4.33441" height="59.0118" rx="2.16721" transform="matrix(0.955609 -0.294638 0.29148 0.956577 337.667 112.654)" fill="url(#paint4_linear_1_49)" stroke="black"/>
<rect x="0.616194" y="0.353602" width="4.33508" height="59.0067" rx="2.16754" transform="matrix(0.966467 -0.256791 0.265922 0.963995 358.029 106.266)" fill="url(#paint5_linear_1_49)" stroke="black"/>
<rect x="0.623545" y="0.330969" width="4.33441" height="59.0118" rx="2.16721" transform="matrix(0.955609 -0.294638 0.29148 0.956577 347.385 109.865)" fill="url(#paint6_linear_1_49)" stroke="black"/>
<path d="M55.2052 169.12C69.3886 159.144 79.6095 151.955 93.9426 141.873C97.5037 139.368 102.425 140.222 104.929 143.783C105.447 144.519 105.301 145.534 104.597 146.095C86.4347 160.572 75.1314 168.486 55.5796 180.572C54.813 181.046 53.8076 180.84 53.2893 180.103C50.7856 176.543 51.6449 171.625 55.2052 169.12Z" fill="#7C7D7F" stroke="black"/>
<path d="M66.8933 151.581L74.8738 145.908C78.3254 143.455 83.0597 144.141 85.6858 147.39L64.7388 162.279C62.5335 158.731 63.4418 154.034 66.8933 151.581Z" fill="#7C7D7F" stroke="black"/>
<path d="M69.4794 153.438L75.9189 148.861C78.0027 147.38 80.8422 147.746 82.4894 149.631L68.0472 159.896C66.8088 157.721 67.3958 154.919 69.4794 153.438Z" fill="#666666" stroke="black"/>
<defs>
<linearGradient id="paint0_linear_1_49" x1="210.01" y1="87.045" x2="210.01" y2="187.045" gradientUnits="userSpaceOnUse">
<stop offset="0.538462" stop-color="#74C279"/>
<stop offset="1" stop-color="#375C3A"/>
</linearGradient>
<linearGradient id="paint1_linear_1_49" x1="206.37" y1="0" x2="206.37" y2="100" gradientUnits="userSpaceOnUse">
<stop offset="0.538462" stop-color="#74C279"/>
<stop offset="1" stop-color="#375C3A"/>
</linearGradient>
<linearGradient id="paint2_linear_1_49" x1="343.497" y1="102.87" x2="364.338" y2="172.96" gradientUnits="userSpaceOnUse">
<stop stop-color="#A6A6A9"/>
<stop offset="1" stop-color="#7C7D7F"/>
</linearGradient>
<linearGradient id="paint3_linear_1_49" x1="2.66743" y1="0" x2="2.66743" y2="60.0084" gradientUnits="userSpaceOnUse">
<stop stop-color="#A6A6A9"/>
<stop offset="1" stop-color="#7C7D7F"/>
</linearGradient>
<linearGradient id="paint4_linear_1_49" x1="2.66721" y1="0" x2="2.66721" y2="60.0118" gradientUnits="userSpaceOnUse">
<stop stop-color="#A6A6A9"/>
<stop offset="1" stop-color="#7C7D7F"/>
</linearGradient>
<linearGradient id="paint5_linear_1_49" x1="2.66754" y1="0" x2="2.66754" y2="60.0067" gradientUnits="userSpaceOnUse">
<stop stop-color="#A6A6A9"/>
<stop offset="1" stop-color="#7C7D7F"/>
</linearGradient>
<linearGradient id="paint6_linear_1_49" x1="2.66721" y1="0" x2="2.66721" y2="60.0118" gradientUnits="userSpaceOnUse">
<stop stop-color="#A6A6A9"/>
<stop offset="1" stop-color="#7C7D7F"/>
</linearGradient>
</defs>
</svg>
